{"glyphs":{"0":{"ha":638,"x_min":44,"x_max":592,"o":"m 44 325 q 80 497 44 421 q 181 617 115 574 q 331 661 246 661 q 522 574 451 661 q 592 343 592 486 q 556 160 592 242 q 456 33 521 79 q 307 -12 392 -12 q 114 82 183 -12 q 44 325 44 176 m 185 324 q 219 101 185 183 q 318 18 254 18 q 416 102 381 18 q 451 324 451 186 q 416 546 451 461 q 318 631 381 631 q 219 547 254 631 q 185 324 185 463 z "},"1":{"ha":436,"x_min":13,"x_max":376,"o":"m 376 14 l 364 0 l 100 0 l 92 25 l 132 35 q 179 58 168 43 q 190 115 190 74 l 190 551 l 60 468 q 35 497 49 475 q 13 546 22 519 l 311 663 l 335 643 l 324 626 l 324 182 q 333 94 324 126 q 364 31 342 61 l 376 14 z "},"2":{"ha":550,"x_min":24,"x_max":522,"o":"m 171 504 q 184 441 171 475 q 215 389 197 407 q 92 422 139 390 q 46 507 46 454 q 108 618 46 575 q 269 661 171 661 q 442 616 379 661 q 506 492 506 571 q 422 316 506 410 q 157 103 338 222 l 522 103 q 514 42 522 71 q 492 0 506 13 l 50 0 l 24 46 q 226 232 154 157 q 328 368 297 307 q 358 493 358 429 q 333 592 358 553 q 269 632 308 632 q 200 594 229 632 q 171 504 171 557 z "},"3":{"ha":550,"x_min":42,"x_max":515,"o":"m 168 132 q 196 56 168 86 q 263 26 224 26 q 342 63 311 26 q 372 158 372 99 q 333 272 372 231 q 225 314 293 314 q 157 306 194 314 l 153 332 q 307 398 260 358 q 354 513 354 438 q 331 597 354 564 q 268 629 308 629 q 209 599 233 629 q 185 519 185 568 q 210 415 185 458 q 98 446 136 415 q 60 525 60 476 q 117 624 60 586 q 265 661 174 661 q 431 617 365 661 q 496 504 496 572 q 319 339 496 389 q 463 278 411 324 q 515 167 515 232 q 449 35 515 82 q 267 -12 383 -12 q 105 27 168 -12 q 42 129 42 67 q 85 215 42 182 q 213 247 128 247 q 180 199 192 225 q 168 132 168 172 z "},"4":{"ha":561,"x_min":17,"x_max":543,"o":"m 543 185 q 539 162 543 171 q 524 146 535 153 l 460 146 q 468 87 460 111 q 500 31 476 63 l 513 14 l 500 0 l 236 0 l 226 25 l 268 35 q 315 58 304 43 q 326 115 326 74 l 326 146 l 32 146 l 17 171 l 243 649 l 369 649 l 386 635 l 107 185 l 326 185 l 326 311 q 322 358 326 340 q 307 393 318 375 l 317 407 l 460 432 l 460 185 l 543 185 z "},"5":{"ha":550,"x_min":42,"x_max":510,"o":"m 249 375 q 439 320 368 375 q 510 174 510 265 q 444 38 510 89 q 267 -12 378 -12 q 105 27 168 -12 q 42 129 42 67 q 89 212 42 179 q 213 247 136 244 l 215 236 q 181 194 193 222 q 168 132 168 167 q 197 57 168 88 q 265 26 226 26 q 339 67 311 26 q 367 174 367 107 q 319 292 367 250 q 186 335 271 335 q 101 324 150 335 l 85 356 l 101 649 l 476 649 q 467 588 476 615 q 443 546 458 560 l 136 546 l 126 363 q 249 375 189 375 z "},"6":{"ha":596,"x_min":43,"x_max":539,"o":"m 401 528 q 379 600 401 572 q 322 628 357 628 q 251 585 282 628 q 202 467 219 543 q 185 294 185 392 q 190 242 185 263 l 196 242 q 249 334 210 304 q 357 364 288 364 q 490 319 440 364 q 539 197 539 274 q 476 44 539 101 q 310 -12 414 -12 q 170 26 231 -12 q 76 134 110 64 q 43 296 43 204 q 79 488 43 406 q 182 616 115 571 q 338 661 249 661 q 474 626 421 661 q 528 539 528 592 q 490 463 528 492 q 372 433 451 433 q 394 481 386 454 q 401 528 401 507 m 311 321 q 245 281 271 321 q 219 176 219 240 q 241 66 219 106 q 301 26 263 26 q 369 68 344 26 q 393 183 393 110 q 371 284 393 247 q 311 321 349 321 z "},"7":{"ha":460,"x_min":14,"x_max":456,"o":"m 156 115 q 117 58 136 75 q 63 31 97 40 l 43 25 l 51 0 l 282 0 l 293 14 l 283 31 q 271 85 271 58 q 290 171 271 118 l 456 625 l 439 649 l 14 649 q 22 589 14 617 q 44 546 31 561 l 371 546 l 156 115 z "},"8":{"ha":568,"x_min":46,"x_max":528,"o":"m 372 357 q 488 276 447 317 q 528 171 528 235 q 457 36 528 86 q 268 -14 386 -14 q 106 27 165 -14 q 46 138 46 68 q 82 236 46 193 q 181 301 118 279 q 89 378 122 336 q 56 481 56 421 q 124 613 56 563 q 301 663 192 663 q 457 621 400 663 q 514 510 514 579 q 476 417 514 457 q 372 357 438 376 m 292 629 q 221 603 250 629 q 192 540 192 578 q 228 451 192 486 q 335 378 265 415 q 392 519 392 435 q 363 599 392 568 q 292 629 335 629 m 276 18 q 358 45 326 18 q 389 117 389 72 q 367 180 389 153 q 317 224 344 207 q 221 278 289 240 q 181 212 196 249 q 167 136 167 175 q 198 51 167 83 q 276 18 229 18 z "},"9":{"ha":596,"x_min":60,"x_max":539,"o":"m 196 103 q 216 43 196 65 q 268 21 236 21 q 364 88 331 21 q 397 274 397 156 l 394 351 l 389 353 q 325 286 367 310 q 229 263 283 263 q 107 314 154 263 q 60 444 60 365 q 90 556 60 506 q 175 633 121 606 q 296 661 229 661 q 474 570 408 661 q 539 324 539 479 q 463 77 539 167 q 253 -12 386 -12 q 124 22 175 -12 q 74 107 74 56 q 113 175 74 150 q 224 201 153 200 q 196 103 196 167 m 292 317 q 358 359 332 317 q 383 467 383 401 q 360 577 383 533 q 299 621 336 621 q 233 578 258 621 q 207 468 207 535 q 231 359 207 401 q 292 317 254 317 z "},"\u0000":{"ha":0,"x_min":0,"x_max":0,"o":""},"\r":{"ha":463,"x_min":0,"x_max":0,"o":""}," ":{"ha":233,"x_min":0,"x_max":0,"o":""},"!":{"ha":235,"x_min":36,"x_max":197,"o":"m 117 688 q 164 681 142 688 q 197 663 186 674 q 173 445 197 613 q 129 192 149 278 l 106 192 q 61 446 86 279 q 36 663 36 613 q 69 681 47 674 q 117 688 92 688 m 46 64 q 71 113 46 86 q 117 140 96 140 q 165 113 139 140 q 192 64 192 86 q 165 14 192 40 q 117 -12 139 -12 q 71 15 96 -12 q 46 64 46 42 z "},"\"":{"ha":357,"x_min":24,"x_max":333,"o":"m 89 725 q 151 699 131 725 q 134 583 151 661 q 99 467 117 504 l 76 467 q 40 581 57 503 q 24 699 24 660 q 89 725 46 725 m 269 725 q 333 699 313 725 q 317 581 333 660 q 281 467 300 503 l 257 467 q 222 582 239 504 q 206 699 206 660 q 269 725 228 725 z "},"#":{"ha":628,"x_min":46,"x_max":583,"o":"m 203 443 l 260 649 l 324 649 l 267 443 l 428 443 l 485 649 l 550 649 l 493 443 l 583 443 l 567 383 l 476 383 l 443 263 l 533 263 l 515 203 l 425 203 l 369 0 l 306 0 l 361 203 l 200 203 l 143 0 l 79 0 l 136 203 l 46 203 l 61 263 l 151 263 l 185 383 l 96 383 l 113 443 l 203 443 m 378 263 l 411 383 l 250 383 l 217 263 l 378 263 z "},"$":{"ha":540,"x_min":31,"x_max":503,"o":"m 503 186 q 445 59 503 107 q 289 3 388 11 l 289 -117 q 250 -137 279 -137 l 250 1 q 91 39 151 1 q 31 140 31 76 q 59 206 31 182 q 131 231 88 231 q 194 214 164 231 q 151 126 151 192 q 180 60 151 88 q 257 33 208 33 q 335 62 306 33 q 364 131 364 90 q 329 202 364 174 q 224 267 294 231 q 128 319 165 296 q 66 381 92 343 q 40 469 40 418 q 97 590 40 542 q 250 646 154 639 l 250 767 q 289 788 261 788 l 289 647 q 437 611 381 646 q 493 518 493 576 q 468 459 493 481 q 400 438 443 438 q 336 453 369 438 q 364 488 354 467 q 374 531 374 508 q 350 590 374 565 q 281 614 326 614 q 203 589 231 614 q 176 528 176 564 q 197 463 176 490 q 248 416 218 435 q 331 371 278 397 q 421 321 386 343 q 479 265 456 299 q 503 186 503 232 z "},"%":{"ha":1008,"x_min":32,"x_max":975,"o":"m 32 456 q 83 603 32 546 q 214 660 133 660 q 337 608 292 660 q 382 467 382 556 q 331 311 382 371 q 200 251 281 251 q 77 307 122 251 q 32 456 32 363 m 140 454 q 158 329 140 375 q 206 283 175 283 q 255 328 238 283 q 272 454 272 374 q 254 583 272 536 q 206 629 236 629 q 158 582 175 629 q 140 454 140 535 m 615 675 l 663 675 l 392 -28 l 346 -28 l 615 675 m 625 192 q 676 339 625 282 q 807 396 726 396 q 930 344 885 396 q 975 203 975 292 q 924 47 975 107 q 793 -12 874 -12 q 670 43 715 -12 q 625 192 625 99 m 733 190 q 751 65 733 111 q 799 19 768 19 q 848 65 831 19 q 865 190 865 110 q 847 319 865 272 q 799 365 829 365 q 751 318 768 365 q 733 190 733 271 z "},"&":{"ha":614,"x_min":22,"x_max":614,"o":"m 614 344 q 456 236 614 244 q 487 194 475 218 q 499 143 499 169 q 476 69 499 106 q 402 10 453 33 q 274 -12 351 -12 q 90 36 158 -12 q 22 174 22 85 q 66 282 22 236 q 192 349 110 328 q 94 401 129 364 q 58 499 58 439 q 86 578 58 540 q 168 638 114 615 q 297 661 222 661 q 426 624 381 661 q 471 538 471 588 q 426 456 471 483 q 304 428 382 429 q 353 535 353 465 q 333 603 353 575 q 285 632 314 632 q 222 594 244 632 q 199 504 199 556 q 231 403 199 438 q 317 368 264 368 l 317 347 q 203 281 239 328 q 167 172 167 233 q 199 63 167 110 q 290 17 232 17 q 381 55 344 17 q 418 160 418 93 q 399 233 418 207 q 290 218 322 233 q 244 178 258 203 l 235 182 q 254 264 235 240 q 315 288 274 288 q 360 285 329 288 q 421 281 386 281 q 526 357 526 281 q 513 405 526 378 q 483 444 499 432 q 576 417 538 443 q 614 344 614 392 z "},"'":{"ha":175,"x_min":24,"x_max":151,"o":"m 89 725 q 151 699 131 725 q 134 583 151 661 q 99 467 117 504 l 76 467 q 40 581 57 503 q 24 699 24 660 q 89 725 46 725 z "},"(":{"ha":331,"x_min":33,"x_max":307,"o":"m 179 299 q 213 74 179 171 q 307 -72 246 -24 l 290 -94 q 33 299 33 13 q 290 692 33 588 l 307 671 q 213 524 246 622 q 179 299 179 426 z "},")":{"ha":331,"x_min":24,"x_max":297,"o":"m 151 299 q 118 524 151 426 q 24 671 85 622 l 40 692 q 297 299 297 588 q 40 -94 297 13 l 24 -72 q 118 74 85 -24 q 151 299 151 171 z "},"*":{"ha":518,"x_min":56,"x_max":454,"o":"m 453 560 q 453 549 453 556 q 453 535 454 543 l 279 539 l 422 440 q 304 354 381 378 l 254 518 l 206 354 q 88 440 132 375 l 229 539 l 56 535 q 57 560 56 551 q 100 674 58 621 l 240 565 l 182 732 q 254 746 219 746 q 326 732 289 746 l 267 564 l 408 674 q 453 560 449 622 z "},"+":{"ha":561,"x_min":89,"x_max":471,"o":"m 246 357 l 246 514 l 314 514 l 314 357 l 471 357 l 471 288 l 314 288 l 314 132 l 246 132 l 246 288 l 89 288 l 89 357 l 246 357 z "},",":{"ha":200,"x_min":14,"x_max":176,"o":"m 33 126 q 103 142 63 142 q 156 124 136 142 q 176 69 176 107 q 157 3 176 36 q 94 -79 138 -29 l 51 -126 l 14 -101 l 54 -11 q 67 36 67 14 q 43 83 67 64 l 26 94 l 22 121 l 33 126 z "},"-":{"ha":321,"x_min":29,"x_max":290,"o":"m 29 228 q 35 264 29 246 q 53 290 42 282 l 290 300 q 267 236 290 254 l 29 228 z "},".":{"ha":214,"x_min":31,"x_max":182,"o":"m 31 67 q 57 119 31 90 q 106 147 83 147 q 155 119 128 147 q 182 67 182 90 q 155 15 182 43 q 106 -12 128 -12 q 57 15 83 -12 q 31 67 31 43 z "},"/":{"ha":335,"x_min":10,"x_max":326,"o":"m 279 706 l 326 706 l 56 -57 l 10 -57 l 279 706 z "},":":{"ha":214,"x_min":31,"x_max":182,"o":"m 31 67 q 57 119 31 90 q 106 147 83 147 q 155 119 128 147 q 182 67 182 90 q 155 15 182 43 q 106 -12 128 -12 q 57 15 83 -12 q 31 67 31 43 m 31 364 q 57 416 31 388 q 106 444 83 444 q 155 416 128 444 q 182 364 182 388 q 155 313 182 340 q 106 285 128 285 q 57 313 83 285 q 31 364 31 340 z "},";":{"ha":214,"x_min":15,"x_max":182,"o":"m 35 126 q 104 142 64 142 q 158 124 138 142 q 178 69 178 107 q 158 3 178 36 q 96 -79 139 -29 l 53 -126 l 15 -101 l 56 -11 q 68 36 68 14 q 44 83 68 64 l 28 94 l 24 121 l 35 126 m 31 364 q 57 416 31 388 q 106 444 83 444 q 155 416 128 444 q 182 364 182 388 q 155 313 182 340 q 106 285 128 285 q 57 313 83 285 q 31 364 31 340 z "},"<":{"ha":561,"x_min":89,"x_max":471,"o":"m 471 511 l 471 443 l 167 322 l 471 203 l 471 133 l 89 288 l 89 357 l 471 511 z "},"=":{"ha":563,"x_min":90,"x_max":472,"o":"m 472 454 l 472 386 l 90 386 l 90 454 l 472 454 m 472 260 l 472 190 l 90 190 l 90 260 l 472 260 z "},">":{"ha":563,"x_min":90,"x_max":472,"o":"m 90 133 l 90 203 l 396 322 l 90 443 l 90 511 l 472 357 l 472 288 l 90 133 z "},"?":{"ha":458,"x_min":21,"x_max":433,"o":"m 215 685 q 373 641 313 685 q 433 528 433 597 q 403 430 433 472 q 311 329 372 388 q 243 262 267 289 q 211 203 219 235 l 207 186 l 189 186 l 147 229 q 260 378 224 307 q 296 521 296 450 q 275 621 296 585 q 217 657 254 657 q 167 630 186 657 q 147 558 147 603 q 159 498 147 525 q 193 456 171 471 l 190 446 q 67 481 114 449 q 21 561 21 513 q 76 650 21 615 q 215 685 131 685 m 126 64 q 151 113 126 86 q 197 140 176 140 q 245 113 219 140 q 271 64 271 86 q 245 14 271 40 q 197 -12 219 -12 q 151 15 176 -12 q 126 64 126 42 z "},"@":{"ha":872,"x_min":40,"x_max":832,"o":"m 832 285 q 801 153 832 214 q 716 58 769 93 q 600 22 663 22 q 481 189 481 22 q 422 108 454 133 q 347 82 390 82 q 268 122 297 82 q 239 231 239 163 q 296 399 239 336 q 449 461 353 461 q 556 450 483 461 l 617 443 l 624 432 l 617 419 q 604 382 606 407 q 586 129 586 157 q 595 72 586 93 q 621 51 604 51 q 679 117 657 51 q 701 288 701 182 q 633 499 701 419 q 453 579 565 579 q 309 533 374 579 q 208 405 244 486 q 171 224 171 324 q 242 13 171 89 q 436 -64 313 -64 q 618 -22 531 -64 l 628 -44 q 524 -87 574 -74 q 417 -100 474 -100 q 222 -58 308 -100 q 88 58 136 -17 q 40 226 40 132 q 97 419 40 331 q 249 558 153 507 q 457 610 344 610 q 651 568 565 610 q 784 452 736 526 q 832 285 832 378 m 444 428 q 384 382 406 428 q 363 254 363 336 q 376 177 363 207 q 411 147 389 147 q 469 224 446 147 q 494 417 492 300 q 444 428 474 428 z "},"A":{"ha":650,"x_min":-7,"x_max":650,"o":"m 568 125 q 599 63 582 86 q 650 14 615 40 l 638 0 l 386 0 l 378 25 l 399 31 q 428 48 419 38 q 438 76 438 58 q 422 133 438 88 l 394 215 l 179 215 l 168 181 q 147 86 147 118 q 158 31 147 56 l 168 14 l 156 0 l 3 0 l -7 25 l 14 31 q 64 58 47 40 q 96 119 81 75 l 238 528 q 247 576 247 563 q 203 619 247 607 l 188 624 l 197 649 l 386 649 l 568 125 m 381 254 l 286 536 l 193 254 l 381 254 z "},"B":{"ha":624,"x_min":36,"x_max":588,"o":"m 438 340 q 547 281 506 325 q 588 176 588 236 q 519 48 588 96 q 336 0 451 0 l 46 0 l 36 25 q 86 44 71 35 q 107 68 101 53 q 113 115 113 83 l 113 492 q 105 563 113 540 q 69 601 97 585 l 53 611 l 58 629 q 173 652 103 643 q 300 661 243 661 q 491 615 422 661 q 560 488 560 569 q 527 398 560 436 q 438 340 494 360 m 335 31 q 417 71 385 31 q 450 174 450 111 q 407 278 450 238 q 285 332 364 318 l 285 349 q 385 386 349 349 q 422 488 422 424 q 392 590 422 551 q 310 628 361 628 q 263 608 279 628 q 246 551 246 588 l 246 154 q 270 64 246 97 q 335 31 294 31 z "},"C":{"ha":576,"x_min":29,"x_max":571,"o":"m 335 -12 q 108 82 186 -12 q 29 324 29 176 q 108 566 29 471 q 338 661 188 661 q 494 624 433 661 q 554 528 554 588 q 506 436 554 469 q 383 403 457 403 q 425 524 425 447 q 398 598 425 568 q 328 628 371 628 q 212 538 249 628 q 175 324 175 447 q 198 179 175 244 q 265 76 221 114 q 365 38 308 38 q 474 65 431 38 q 554 140 518 92 l 571 128 q 474 26 533 65 q 335 -12 415 -12 z "},"D":{"ha":688,"x_min":36,"x_max":658,"o":"m 36 25 q 86 44 71 35 q 107 68 101 53 q 113 115 113 83 l 113 492 q 105 563 113 540 q 69 601 97 585 l 53 611 l 58 629 q 172 652 104 643 q 297 661 240 661 q 566 574 474 661 q 658 324 658 488 q 573 88 658 175 q 340 0 488 0 l 46 0 l 36 25 m 328 28 q 515 324 515 28 q 462 542 515 460 q 321 625 408 625 q 265 614 285 625 q 246 582 246 603 l 246 157 q 266 60 246 92 q 328 28 286 28 z "},"E":{"ha":574,"x_min":35,"x_max":522,"o":"m 111 467 q 103 554 111 522 q 71 618 94 586 l 60 633 l 71 649 l 378 649 q 481 667 454 649 l 497 679 l 511 667 l 511 493 l 483 483 q 434 586 458 558 q 365 614 410 614 l 303 614 q 256 601 267 614 q 244 544 244 588 l 244 347 l 344 347 q 406 356 386 347 q 436 389 426 364 l 443 408 l 461 397 l 461 242 l 431 231 l 425 261 q 394 301 419 290 q 314 313 369 313 l 244 313 l 244 103 q 257 48 244 61 q 313 35 269 35 l 381 35 q 447 64 422 35 q 493 165 471 93 l 522 156 l 522 -11 l 507 -24 q 463 -5 488 -10 q 393 0 438 0 l 44 0 l 35 25 q 85 44 69 35 q 106 68 100 53 q 111 115 111 83 l 111 467 z "},"F":{"ha":515,"x_min":28,"x_max":489,"o":"m 28 25 q 78 44 63 35 q 99 68 93 53 q 104 115 104 83 l 104 467 q 96 554 104 522 q 64 618 88 586 l 53 633 l 64 649 l 356 649 q 458 667 432 649 l 475 679 l 489 667 l 489 493 l 461 483 q 412 586 436 558 q 342 614 388 614 l 296 614 q 249 601 260 614 q 238 544 238 588 l 238 336 l 336 336 q 407 378 390 336 l 414 397 l 432 388 l 432 232 l 401 221 l 396 250 q 371 291 390 281 q 297 301 351 301 l 238 301 l 238 182 q 247 95 238 128 q 279 31 256 63 l 290 14 l 279 0 l 38 0 l 28 25 z "},"G":{"ha":643,"x_min":29,"x_max":613,"o":"m 613 278 l 601 263 q 576 208 582 238 q 569 119 569 179 l 569 0 l 556 -6 l 483 32 q 331 -12 415 -12 q 110 78 192 -12 q 29 321 29 168 q 117 569 29 478 q 356 661 206 661 q 512 624 451 661 q 572 528 572 588 q 524 436 572 469 q 401 403 475 403 q 432 453 421 426 q 443 524 443 481 q 415 599 443 571 q 346 628 388 628 q 222 544 268 628 q 175 321 175 460 q 199 174 175 239 q 267 74 224 110 q 365 38 310 38 q 446 53 407 38 l 446 178 q 440 224 446 210 q 419 248 435 239 q 369 267 404 257 l 378 293 l 601 293 l 613 278 z "},"H":{"ha":736,"x_min":42,"x_max":689,"o":"m 625 175 q 629 101 625 126 q 646 58 633 76 q 685 17 658 40 l 674 0 l 429 0 l 421 25 q 467 42 453 33 q 487 67 482 51 q 492 115 492 83 l 492 310 l 246 310 l 246 175 q 250 101 246 126 q 266 58 254 75 q 304 17 278 40 l 294 0 l 50 0 l 42 25 q 100 53 88 38 q 113 115 113 69 l 113 476 q 102 570 113 543 q 51 631 92 597 l 63 649 l 299 649 l 308 626 q 257 583 268 603 q 246 511 246 563 l 246 349 l 492 349 l 492 476 q 481 570 492 543 q 431 631 471 597 l 442 649 l 678 649 l 689 626 q 637 583 649 603 q 625 511 625 563 l 625 175 z "},"I":{"ha":350,"x_min":38,"x_max":304,"o":"m 38 25 q 84 42 69 33 q 103 67 99 51 q 108 115 108 83 l 108 476 q 98 570 108 543 q 47 631 88 597 l 60 649 l 294 649 l 304 626 q 253 583 264 603 q 242 511 242 563 l 242 169 q 252 77 242 104 q 301 17 263 50 l 290 0 l 47 0 l 38 25 z "},"J":{"ha":461,"x_min":1,"x_max":425,"o":"m 156 -12 q 44 19 86 -12 q 1 97 1 50 q 45 183 1 150 q 154 224 89 217 l 158 214 q 129 169 140 199 q 118 104 118 139 q 132 47 118 69 q 174 24 146 24 q 224 58 207 24 q 240 156 240 93 l 240 519 q 234 575 240 557 q 213 603 228 593 q 163 624 197 613 l 172 649 l 414 649 l 425 633 l 414 618 q 383 554 392 588 q 374 467 374 521 l 374 240 q 156 -12 374 -12 z "},"K":{"ha":631,"x_min":35,"x_max":651,"o":"m 651 47 q 589 1 621 15 q 518 -12 557 -12 q 435 15 464 -12 q 379 111 406 42 l 326 247 q 294 302 310 285 q 244 319 279 319 l 244 169 q 255 78 244 106 q 304 17 265 51 l 294 0 l 44 0 l 35 25 q 85 44 69 35 q 106 68 100 53 q 111 115 111 83 l 111 476 q 101 570 111 543 q 51 631 90 597 l 63 649 l 304 649 l 314 626 q 257 582 269 603 q 244 511 244 561 l 244 339 l 249 339 l 414 526 q 431 553 426 542 q 438 581 436 565 q 426 618 438 590 l 418 633 l 436 649 l 600 649 l 608 624 l 576 614 q 503 558 538 597 l 308 336 q 422 306 381 331 q 483 235 464 282 l 547 74 q 564 48 554 56 q 589 40 574 40 q 640 63 611 40 l 651 47 z "},"L":{"ha":522,"x_min":32,"x_max":503,"o":"m 108 469 q 104 545 108 519 q 88 589 100 571 q 47 631 75 607 l 60 649 l 301 649 l 311 626 q 265 594 279 608 q 247 560 251 581 q 242 494 242 539 l 242 107 q 254 49 242 63 q 310 35 267 35 l 363 35 q 426 62 403 35 q 475 165 450 89 l 503 156 l 503 -11 l 489 -24 q 449 -5 471 -10 q 382 0 426 0 l 40 0 l 32 25 q 82 44 67 35 q 103 68 97 53 q 108 115 108 83 l 108 469 z "},"M":{"ha":833,"x_min":14,"x_max":804,"o":"m 743 175 q 760 82 746 119 q 804 14 774 44 l 793 0 l 551 0 l 542 25 q 601 50 588 38 q 614 96 614 63 q 592 433 614 114 l 583 554 l 396 21 l 357 21 l 171 550 l 151 233 q 146 140 146 167 q 155 77 146 104 q 189 14 164 50 l 176 0 l 22 0 l 14 25 q 66 44 50 36 q 88 68 82 53 q 97 115 94 83 l 114 382 q 121 504 121 475 q 110 574 121 551 q 64 631 100 596 l 74 649 l 276 649 l 419 217 l 571 649 l 750 649 l 764 633 q 728 569 738 594 q 719 504 719 544 q 725 422 719 478 l 743 175 z "},"N":{"ha":681,"x_min":21,"x_max":636,"o":"m 624 618 q 592 553 601 586 q 583 467 583 519 l 583 79 q 596 31 583 50 l 608 14 l 596 0 l 451 0 l 143 532 l 143 182 q 152 94 143 126 q 183 31 161 61 l 196 14 l 183 0 l 31 0 l 21 25 q 72 43 57 35 q 92 67 86 51 q 97 115 97 82 l 97 482 q 86 571 97 543 q 38 631 75 599 l 49 649 l 229 649 l 539 113 l 539 533 q 522 592 539 575 q 450 624 504 608 l 458 649 l 624 649 l 636 633 l 624 618 z "},"O":{"ha":686,"x_min":29,"x_max":658,"o":"m 343 -12 q 114 78 199 -12 q 29 324 29 168 q 114 570 29 479 q 343 661 199 661 q 573 570 488 661 q 658 324 658 479 q 573 78 658 169 q 343 -12 488 -12 m 339 19 q 430 58 390 19 q 492 164 469 96 q 514 321 514 232 q 492 481 514 410 q 433 591 471 551 q 346 631 394 631 q 254 591 294 631 q 192 480 214 551 q 169 317 169 408 q 215 101 169 182 q 339 19 261 19 z "},"P":{"ha":586,"x_min":35,"x_max":572,"o":"m 572 446 q 544 341 572 386 q 469 272 515 296 q 371 249 422 249 q 268 276 317 249 l 271 289 l 294 288 l 318 289 q 403 338 372 297 q 433 447 433 379 q 399 576 433 524 q 306 628 365 628 q 259 610 274 628 q 244 569 244 592 l 244 182 q 253 94 244 126 q 286 31 263 63 l 297 14 l 286 0 l 44 0 l 35 25 q 85 43 71 35 q 106 67 100 51 q 111 115 111 82 l 111 485 q 103 559 111 533 q 68 601 96 585 l 51 611 l 57 629 q 162 651 97 642 q 285 661 226 661 q 499 602 426 661 q 572 446 572 543 z "},"Q":{"ha":686,"x_min":29,"x_max":658,"o":"m 551 -183 q 601 -171 579 -183 q 642 -133 622 -158 l 658 -146 q 598 -210 631 -189 q 518 -231 565 -231 q 429 -208 464 -231 q 368 -142 394 -186 q 303 -11 342 -99 q 102 90 175 1 q 29 324 29 179 q 114 570 29 479 q 343 661 199 661 q 573 570 488 661 q 658 324 658 479 q 593 103 658 190 q 414 -6 528 15 q 433 -51 428 -36 q 487 -152 464 -121 q 551 -183 510 -183 m 169 317 q 215 101 169 182 q 339 19 261 19 q 430 58 390 19 q 492 164 469 96 q 514 321 514 232 q 492 481 514 410 q 433 591 471 551 q 346 631 394 631 q 254 591 294 631 q 192 480 214 551 q 169 317 169 408 z "},"R":{"ha":625,"x_min":29,"x_max":644,"o":"m 644 47 q 514 -12 594 -12 q 435 10 464 -12 q 386 89 407 33 l 346 211 q 321 266 332 249 q 286 293 310 283 l 263 306 l 265 319 q 294 318 276 318 q 318 319 311 318 q 399 367 369 328 q 428 467 428 406 q 393 584 428 540 q 301 628 358 628 q 239 569 239 628 l 239 182 q 248 95 239 128 q 281 31 257 63 l 292 14 l 281 0 l 39 0 l 29 25 q 79 44 64 35 q 100 68 94 53 q 106 115 106 83 l 106 485 q 98 559 106 533 q 63 601 90 585 l 46 611 l 51 629 q 162 652 94 643 q 282 661 229 661 q 490 608 414 661 q 567 464 567 556 q 526 351 567 400 q 421 285 485 301 q 490 210 471 263 l 539 74 q 582 40 550 40 q 633 63 607 40 l 644 47 z "},"S":{"ha":539,"x_min":31,"x_max":503,"o":"m 176 542 q 215 451 176 486 q 332 371 254 415 q 422 315 389 339 q 479 256 456 292 q 503 172 503 219 q 434 37 503 86 q 250 -12 365 -12 q 91 25 151 -12 q 31 126 31 63 q 59 192 31 168 q 131 217 88 217 q 194 200 164 217 q 151 113 151 178 q 180 47 151 74 q 257 19 208 19 q 335 47 307 19 q 364 117 364 75 q 328 197 364 165 q 221 269 293 228 q 127 326 164 300 q 65 392 90 353 q 40 483 40 431 q 108 612 40 563 q 283 661 175 661 q 435 626 376 661 q 493 532 493 590 q 468 473 493 494 q 400 451 443 451 q 336 467 369 451 q 364 501 354 481 q 374 544 374 522 q 349 603 374 579 q 275 628 324 628 q 202 603 228 628 q 176 542 176 578 z "},"T":{"ha":558,"x_min":18,"x_max":540,"o":"m 344 115 q 351 67 344 83 q 372 43 357 51 q 422 25 388 35 l 413 0 l 171 0 l 160 14 l 171 31 q 203 95 194 63 q 211 182 213 128 l 211 556 q 205 602 211 590 q 181 614 199 614 l 165 614 q 94 585 118 614 q 46 483 71 557 l 18 493 l 18 667 l 32 679 l 49 667 q 151 649 75 649 l 406 649 q 508 667 482 649 l 525 679 l 540 667 l 540 493 l 511 483 q 462 587 485 560 q 393 614 439 614 l 375 614 q 351 602 357 614 q 344 556 344 590 l 344 115 z "},"U":{"ha":668,"x_min":35,"x_max":633,"o":"m 581 231 q 519 49 581 111 q 340 -12 458 -12 q 160 51 225 -12 q 94 231 94 115 l 94 479 q 83 571 94 543 q 35 631 72 599 l 44 649 l 288 649 l 297 626 q 251 597 265 610 q 233 563 238 583 q 228 500 228 542 l 228 218 q 264 77 228 125 q 369 29 300 29 q 492 78 449 29 q 535 218 535 128 l 535 533 q 519 592 535 576 q 450 624 503 608 l 460 649 l 621 649 l 633 633 l 621 618 q 588 553 597 586 q 581 467 579 521 l 581 231 z "},"V":{"ha":628,"x_min":-10,"x_max":625,"o":"m 625 633 q 574 583 590 606 q 544 524 557 561 l 369 0 l 249 0 l 71 524 q 41 585 57 563 q -10 633 25 607 l 1 649 l 254 649 l 263 624 l 243 618 q 213 602 221 613 q 204 572 204 592 q 214 528 204 558 l 353 110 l 492 525 q 501 571 501 556 q 492 598 501 588 q 463 614 483 608 l 438 624 l 447 649 l 614 649 l 625 633 z "},"W":{"ha":974,"x_min":-10,"x_max":981,"o":"m 981 633 q 929 584 946 607 q 899 524 913 561 l 724 0 l 604 0 l 486 390 l 369 0 l 249 0 l 71 524 q 41 584 57 563 q -10 633 25 606 l 1 649 l 254 649 l 263 624 l 243 618 q 213 601 222 611 q 204 572 204 590 q 214 528 204 558 l 353 114 l 460 475 l 444 524 q 415 584 431 563 q 364 633 399 606 l 375 649 l 628 649 l 638 624 l 617 618 q 586 602 594 613 q 578 572 578 592 q 588 528 578 558 l 710 113 l 847 525 q 857 571 857 556 q 848 598 857 588 q 818 614 839 608 l 793 624 l 801 649 l 969 649 l 981 633 z "},"X":{"ha":621,"x_min":6,"x_max":619,"o":"m 538 104 q 619 14 578 47 l 608 0 l 333 0 l 326 25 l 347 31 q 386 65 386 42 q 360 128 386 89 l 275 257 l 183 122 q 168 95 172 106 q 164 71 164 85 q 176 31 164 56 l 183 14 l 167 0 l 18 0 l 10 25 l 31 31 q 65 47 51 36 q 94 79 79 58 l 247 299 l 90 538 q 6 633 49 599 l 17 649 l 292 649 l 299 624 l 278 618 q 239 583 239 608 q 265 519 239 561 l 343 400 l 429 526 q 444 553 440 543 q 449 576 449 564 q 438 618 449 592 l 429 633 l 446 649 l 594 649 l 603 624 l 582 618 q 547 601 561 613 q 518 569 533 590 l 371 358 l 538 104 z "},"Y":{"ha":563,"x_min":-11,"x_max":549,"o":"m 549 633 l 535 618 q 471 522 497 572 l 344 281 l 344 115 q 351 67 344 83 q 372 43 357 51 q 421 25 388 35 l 413 0 l 169 0 l 158 14 l 169 31 q 202 94 193 61 q 211 182 211 126 l 211 278 l 79 519 q 38 588 57 564 q -11 633 18 613 l 1 649 l 256 649 l 263 624 l 242 618 q 201 586 201 610 q 208 563 201 578 q 229 521 215 547 l 324 343 l 424 533 q 435 569 435 551 q 424 601 435 588 q 396 618 413 614 l 369 624 l 378 649 l 538 649 l 549 633 z "},"Z":{"ha":539,"x_min":13,"x_max":528,"o":"m 13 0 l 360 614 l 192 614 q 122 586 147 614 q 72 483 97 558 l 46 493 l 46 667 l 60 679 l 76 667 q 179 649 100 649 l 528 649 l 182 35 l 368 35 q 433 64 408 35 q 482 165 457 93 l 510 156 l 510 -11 l 496 -24 q 451 -5 476 -10 q 381 0 425 0 l 13 0 z "},"[":{"ha":363,"x_min":94,"x_max":356,"o":"m 356 699 l 356 661 l 283 651 q 244 636 254 646 q 233 603 233 626 l 233 -6 q 244 -38 233 -28 q 283 -53 254 -49 l 356 -64 l 356 -101 l 94 -101 l 94 699 l 356 699 z "},"\\":{"ha":335,"x_min":10,"x_max":326,"o":"m 10 706 l 56 706 l 326 -57 l 281 -57 l 10 706 z "},"]":{"ha":363,"x_min":7,"x_max":268,"o":"m 268 -101 l 7 -101 l 7 -64 l 79 -53 q 119 -38 108 -49 q 129 -6 129 -28 l 129 603 q 119 636 129 626 q 79 651 108 646 l 7 661 l 7 699 l 268 699 l 268 -101 z "},"^":{"ha":561,"x_min":86,"x_max":474,"o":"m 474 360 l 400 360 l 279 589 l 160 360 l 86 360 l 242 649 l 318 649 l 474 360 z "},"_":{"ha":321,"x_min":-24,"x_max":344,"o":"m -24 -76 q -17 -40 -24 -58 q 0 -12 -11 -22 l 344 -12 q 321 -76 344 -58 l -24 -76 z "},"`":{"ha":260,"x_min":39,"x_max":232,"o":"m 214 513 l 100 554 q 39 624 39 575 q 90 686 39 665 l 232 535 l 214 513 z "},"a":{"ha":507,"x_min":33,"x_max":510,"o":"m 193 307 q 124 290 164 290 q 78 308 94 290 q 61 357 61 325 q 108 433 61 404 q 229 461 154 461 q 369 422 318 461 q 419 317 419 383 l 419 76 q 447 38 419 38 q 499 58 474 38 l 510 44 q 388 -12 458 -12 q 324 8 346 -12 q 299 74 303 29 l 293 74 q 234 10 271 33 q 150 -12 197 -12 q 65 20 97 -12 q 33 106 33 53 q 90 200 33 165 q 244 235 147 235 q 296 232 263 235 l 296 301 q 279 399 296 369 q 225 429 263 429 q 183 413 199 429 q 168 369 168 396 q 193 307 168 328 m 214 57 q 296 206 296 57 q 192 183 226 206 q 157 118 157 160 q 172 74 157 90 q 214 57 188 57 z "},"b":{"ha":549,"x_min":7,"x_max":515,"o":"m 318 461 q 419 433 374 461 q 490 354 464 404 q 515 242 515 304 q 481 112 515 169 q 388 21 447 54 q 254 -12 328 -12 q 154 3 204 -12 q 72 44 104 18 l 72 593 q 68 608 72 604 q 54 613 64 613 l 11 613 l 7 626 q 76 666 33 651 q 160 681 118 681 q 188 673 178 681 q 199 651 199 665 l 199 418 q 251 450 219 439 q 318 461 282 461 m 261 19 q 376 218 376 19 q 348 369 376 317 q 264 421 319 421 q 199 400 229 421 l 199 33 q 261 19 229 19 z "},"c":{"ha":467,"x_min":32,"x_max":442,"o":"m 442 339 q 414 267 442 293 q 346 240 386 240 q 288 257 314 240 q 318 335 318 285 q 301 401 318 375 q 253 426 285 426 q 194 370 217 426 q 171 224 171 314 q 203 85 171 138 q 296 33 236 33 q 367 49 338 33 q 424 93 397 64 l 440 82 q 364 14 411 40 q 254 -12 317 -12 q 94 53 157 -12 q 32 221 32 118 q 97 396 32 331 q 271 461 163 461 q 394 427 347 461 q 442 339 442 393 z "},"d":{"ha":567,"x_min":32,"x_max":563,"o":"m 563 44 q 442 -12 511 -12 q 378 6 399 -12 q 350 68 357 25 q 275 7 314 26 q 189 -12 236 -12 q 76 49 119 -12 q 32 207 32 110 q 93 392 32 324 q 260 461 154 461 q 349 439 308 461 l 349 593 q 331 613 349 613 l 283 613 l 278 626 q 349 666 306 651 q 433 681 392 681 q 463 673 451 681 q 474 651 474 665 l 474 79 q 500 38 474 38 q 551 58 526 38 l 563 44 m 261 54 q 349 113 314 54 l 349 411 q 288 425 321 425 q 171 224 171 425 q 194 98 171 142 q 261 54 217 54 z "},"e":{"ha":479,"x_min":32,"x_max":450,"o":"m 297 33 q 368 48 338 33 q 428 97 399 63 l 444 85 q 363 13 413 39 q 256 -12 314 -12 q 141 18 192 -12 q 61 102 90 49 q 32 224 32 156 q 98 397 32 332 q 274 461 164 461 q 401 424 351 461 q 450 329 450 388 q 394 223 450 263 q 240 183 338 183 q 169 189 201 183 q 211 75 176 117 q 297 33 246 33 m 258 428 q 191 376 215 428 q 167 231 167 324 l 167 208 q 204 211 182 208 q 294 249 263 218 q 325 332 325 281 q 306 401 325 374 q 258 428 288 428 z "},"f":{"ha":314,"x_min":13,"x_max":422,"o":"m 210 92 q 219 47 210 58 q 261 28 228 35 l 279 24 l 271 0 l 54 0 l 43 14 l 54 28 q 77 76 71 50 q 83 146 83 101 l 83 392 l 13 392 q 15 422 13 415 q 32 433 18 429 l 83 446 q 135 629 83 565 q 285 693 188 693 q 384 667 346 693 q 422 597 422 640 q 400 537 422 560 q 342 514 378 514 q 290 525 314 514 q 315 588 315 546 q 303 640 315 621 q 268 660 290 660 q 225 631 240 660 q 210 549 210 601 l 210 446 l 311 446 q 290 392 311 407 l 210 392 l 210 92 z "},"g":{"ha":551,"x_min":42,"x_max":497,"o":"m 186 -131 q 205 -181 186 -161 q 253 -200 224 -200 q 350 -42 350 -200 l 350 93 q 278 33 315 53 q 194 14 240 14 q 84 71 126 14 q 42 221 42 128 q 110 397 42 332 q 293 461 178 461 q 360 456 324 461 q 406 449 397 450 q 486 438 464 440 l 497 426 l 486 410 q 474 375 474 393 l 474 0 q 410 -170 474 -110 q 235 -231 347 -231 q 122 -204 165 -231 q 79 -135 79 -178 q 101 -74 79 -97 q 160 -51 124 -51 q 211 -62 186 -51 q 186 -131 186 -87 m 261 81 q 349 139 317 81 l 349 415 q 288 429 317 429 q 208 383 235 429 q 181 247 181 336 q 201 124 181 167 q 261 81 222 81 z "},"h":{"ha":604,"x_min":25,"x_max":594,"o":"m 506 79 q 532 38 506 38 q 583 58 558 38 l 594 44 q 474 -12 543 -12 q 402 13 424 -12 q 381 97 381 39 l 381 310 q 329 390 381 390 q 249 322 279 390 q 218 144 218 254 q 224 76 218 101 q 246 28 231 50 l 257 14 l 246 0 l 44 0 l 36 24 l 56 28 q 85 45 78 33 q 92 92 92 57 l 92 588 q 87 606 92 599 q 74 613 82 613 l 31 613 l 25 626 q 94 666 51 651 q 178 681 136 681 q 207 673 196 681 q 218 651 218 665 l 218 308 q 287 417 238 374 q 392 461 336 461 q 478 422 451 461 q 506 299 506 383 l 506 79 z "},"i":{"ha":294,"x_min":15,"x_max":296,"o":"m 207 79 q 233 38 207 38 q 285 58 260 38 l 296 44 q 175 -12 244 -12 q 103 13 125 -12 q 81 97 81 39 l 81 372 q 63 392 81 392 l 19 392 l 15 407 q 85 446 43 431 q 168 461 126 461 q 196 453 185 461 q 207 431 207 444 l 207 79 m 67 594 q 94 650 67 619 q 146 681 122 681 q 199 650 171 681 q 228 594 228 619 q 199 538 228 568 q 146 508 171 508 q 94 538 122 508 q 67 594 67 568 z "},"j":{"ha":274,"x_min":-122,"x_max":225,"o":"m -122 -135 q -100 -74 -122 -97 q -42 -51 -78 -51 q 10 -62 -15 -51 q -9 -92 -3 -74 q -15 -132 -15 -111 q -4 -180 -15 -161 q 31 -199 7 -199 q 81 -107 81 -199 l 81 372 q 63 392 81 392 l 19 392 l 15 407 q 85 445 42 429 q 168 461 128 461 q 197 453 186 461 q 208 431 208 444 l 208 0 q 158 -171 208 -111 q 22 -231 108 -231 q -82 -204 -42 -231 q -122 -135 -122 -178 m 64 594 q 92 650 64 619 q 143 681 119 681 q 197 650 168 681 q 225 594 225 619 q 197 538 225 568 q 143 508 168 508 q 92 538 119 508 q 64 594 64 568 z "},"k":{"ha":531,"x_min":25,"x_max":549,"o":"m 549 42 q 428 -12 500 -12 q 358 7 383 -12 q 318 72 332 26 l 275 194 q 253 231 267 218 q 218 249 240 243 l 218 144 q 224 76 218 101 q 246 28 231 51 l 257 14 l 246 0 l 44 0 l 36 24 l 56 28 q 85 45 78 33 q 92 92 92 57 l 92 593 q 74 613 92 613 l 31 613 l 25 626 q 94 666 51 651 q 178 681 136 681 q 207 673 196 681 q 218 651 218 665 l 218 275 l 301 336 q 342 369 331 357 q 353 396 353 382 q 336 429 353 415 l 325 438 l 336 451 l 504 451 l 513 428 q 435 389 478 419 l 271 269 q 365 240 332 263 q 414 176 399 218 l 453 65 q 492 35 463 35 q 538 56 513 35 l 549 42 z "},"l":{"ha":285,"x_min":6,"x_max":286,"o":"m 197 79 q 224 38 197 38 q 275 58 250 38 l 286 44 q 165 -12 238 -12 q 94 10 117 -12 q 72 83 72 33 l 72 593 q 54 613 72 613 l 10 613 l 6 626 q 74 666 32 651 q 158 681 117 681 q 187 673 176 681 q 197 651 197 665 l 197 79 z "},"m":{"ha":868,"x_min":35,"x_max":860,"o":"m 496 308 q 468 424 494 388 q 385 461 442 461 q 288 417 331 461 q 226 308 244 372 l 226 422 q 216 444 226 436 q 188 451 206 451 q 104 436 146 451 q 35 397 63 421 l 39 383 l 83 383 q 101 363 101 383 l 101 92 q 94 45 101 57 q 65 28 88 33 l 46 24 l 54 0 l 256 0 l 267 14 l 256 28 q 233 76 239 51 q 226 144 226 101 q 251 316 226 242 q 321 390 276 390 q 374 310 374 390 l 374 0 l 528 0 l 539 14 l 528 28 q 506 76 513 51 q 499 144 500 101 q 524 316 499 242 q 593 390 549 390 q 646 310 646 390 l 646 110 q 667 15 646 42 q 739 -12 688 -12 q 860 44 808 -12 l 849 58 q 797 38 824 38 q 771 79 771 38 l 771 299 q 744 422 771 382 q 657 461 717 461 q 563 418 607 461 q 499 308 518 375 l 496 308 z "},"n":{"ha":613,"x_min":35,"x_max":604,"o":"m 515 79 q 542 38 515 38 q 593 58 568 38 l 604 44 q 483 -12 553 -12 q 412 13 433 -12 q 390 97 390 39 l 390 310 q 339 390 390 390 q 258 322 289 390 q 226 144 226 254 q 233 77 226 103 q 256 28 240 51 l 267 14 l 256 0 l 54 0 l 46 24 l 65 28 q 94 45 88 33 q 101 92 101 57 l 101 363 q 83 389 101 389 l 39 389 l 35 404 q 104 443 63 428 q 188 458 146 458 q 216 450 206 458 q 226 428 226 442 l 226 308 q 296 417 246 374 q 401 461 346 461 q 488 422 461 461 q 515 299 515 383 l 515 79 z "},"o":{"ha":535,"x_min":32,"x_max":503,"o":"m 32 224 q 95 397 32 333 q 267 461 158 461 q 439 397 375 461 q 503 224 503 332 q 439 51 503 115 q 267 -12 375 -12 q 95 51 158 -12 q 32 224 32 115 m 363 221 q 336 373 363 314 q 269 432 310 432 q 197 374 225 432 q 169 224 169 317 q 195 74 169 129 q 264 18 221 18 q 335 74 307 18 q 363 221 363 131 z "},"p":{"ha":554,"x_min":15,"x_max":522,"o":"m 364 461 q 478 399 435 461 q 522 238 522 338 q 497 110 522 167 q 424 23 471 54 q 319 -8 378 -8 q 256 2 286 -8 q 206 32 226 13 l 206 -126 q 215 -172 206 -160 q 257 -190 224 -183 l 275 -194 l 267 -218 l 51 -218 l 40 -204 l 51 -190 q 74 -142 68 -168 q 81 -74 81 -117 l 81 363 q 63 388 81 388 l 19 388 l 15 403 q 84 442 42 426 q 167 457 126 457 q 195 449 185 457 q 206 426 206 440 l 206 365 q 278 438 240 415 q 364 461 317 461 m 267 32 q 353 81 324 32 q 383 224 383 129 q 361 349 383 306 q 297 393 339 393 q 206 319 242 393 l 206 50 q 267 32 232 32 z "},"q":{"ha":563,"x_min":32,"x_max":513,"o":"m 349 68 q 275 7 314 26 q 189 -12 236 -12 q 76 49 119 -12 q 32 207 32 110 q 102 392 32 324 q 292 461 172 461 q 404 449 335 461 q 486 438 463 440 l 496 426 l 485 410 q 476 394 478 401 q 474 375 474 386 l 474 -74 q 480 -142 474 -117 q 501 -190 486 -168 l 513 -204 l 501 -218 l 285 -218 l 275 -194 l 294 -190 q 339 -172 329 -183 q 349 -126 349 -160 l 349 68 m 171 224 q 194 98 171 142 q 261 54 217 54 q 347 113 315 54 l 347 417 q 286 429 315 429 q 200 377 229 429 q 171 224 171 325 z "},"r":{"ha":440,"x_min":26,"x_max":435,"o":"m 335 461 q 407 435 379 461 q 435 369 435 410 q 413 309 435 332 q 354 286 390 286 q 303 297 326 286 q 328 360 328 318 q 319 390 328 379 q 297 401 311 401 q 242 334 264 401 q 219 167 219 267 q 226 85 219 115 q 247 28 232 54 l 258 14 l 247 0 l 46 0 l 38 24 l 57 28 q 86 45 79 33 q 93 92 93 57 l 93 363 q 75 389 93 389 l 32 389 l 26 404 q 92 443 53 428 q 171 458 132 458 q 200 450 189 458 q 211 428 211 442 l 211 326 l 215 326 q 335 461 244 461 z "},"s":{"ha":454,"x_min":43,"x_max":413,"o":"m 169 367 q 197 310 169 332 q 279 263 224 289 q 350 224 325 240 q 394 182 375 208 q 413 119 413 156 q 356 24 413 60 q 206 -12 300 -12 q 89 13 135 -12 q 43 81 43 39 q 64 127 43 108 q 115 146 85 146 q 163 136 139 146 q 139 78 139 118 q 158 35 139 50 q 206 19 178 19 q 260 36 238 19 q 283 83 283 53 q 260 130 283 113 q 189 171 238 147 q 117 209 144 192 q 71 256 90 226 q 51 326 51 285 q 104 425 51 389 q 238 461 157 461 q 353 435 308 461 q 399 367 399 408 q 379 319 399 335 q 329 304 360 304 q 278 317 300 304 q 303 376 303 340 q 285 415 303 400 q 238 429 267 429 q 188 411 206 429 q 169 367 169 393 z "},"t":{"ha":329,"x_min":10,"x_max":319,"o":"m 186 -12 q 104 13 129 -12 q 79 97 79 39 l 79 392 l 10 392 q 13 422 10 415 q 29 433 15 429 q 101 472 75 446 q 144 549 128 499 q 158 567 149 564 q 206 571 168 571 l 206 446 l 319 446 q 314 413 319 428 q 299 392 308 399 l 206 392 l 206 79 q 240 38 206 38 q 274 47 256 38 q 308 74 293 57 l 319 60 q 186 -12 260 -12 z "},"u":{"ha":596,"x_min":18,"x_max":586,"o":"m 372 126 q 305 26 353 65 q 203 -12 257 -12 q 113 26 142 -12 q 83 146 83 65 l 83 372 q 65 392 83 392 l 22 392 l 18 407 q 88 446 46 431 q 169 461 129 461 q 198 453 188 461 q 208 431 208 444 l 208 153 q 222 80 208 106 q 261 54 236 54 q 344 117 313 54 q 375 282 375 181 q 367 366 375 336 q 340 418 360 396 l 328 433 l 339 446 l 499 458 l 499 79 q 524 38 499 38 q 575 58 550 38 l 586 44 q 465 -12 538 -12 q 392 18 413 -12 q 372 126 372 49 z "},"v":{"ha":506,"x_min":0,"x_max":450,"o":"m 285 32 q 355 90 329 32 q 381 235 381 147 q 331 421 381 353 l 318 436 l 329 447 l 446 461 q 450 365 450 401 q 396 88 450 188 q 250 -12 342 -12 q 141 31 178 -12 q 89 172 104 74 l 60 372 q 54 388 58 383 q 42 392 50 392 l 4 392 l 0 407 q 67 447 28 432 q 143 461 106 461 q 173 449 164 461 q 188 399 182 436 l 224 150 q 246 57 233 82 q 285 32 258 32 z "},"w":{"ha":774,"x_min":0,"x_max":719,"o":"m 243 -12 q 140 31 176 -12 q 89 172 103 75 l 60 372 q 54 388 58 383 q 42 392 50 392 l 4 392 l 0 407 q 67 447 28 432 q 143 461 106 461 q 173 449 164 461 q 188 400 182 436 l 224 150 q 246 57 233 82 q 283 32 258 32 q 345 80 322 32 q 368 207 368 128 q 347 372 368 288 q 342 388 344 383 q 329 392 339 392 l 293 392 l 289 407 q 354 447 315 432 q 432 461 393 461 q 461 448 451 461 q 475 400 471 435 l 510 157 q 534 57 521 82 q 567 32 547 32 q 627 88 604 32 q 650 235 650 144 q 638 341 650 296 q 600 421 626 386 l 589 436 l 599 447 l 715 461 q 719 365 719 407 q 669 88 719 188 q 524 -12 618 -12 q 438 17 467 -12 q 389 124 408 46 q 243 -12 361 -12 z "},"x":{"ha":508,"x_min":8,"x_max":511,"o":"m 511 42 q 458 0 488 13 q 392 -12 429 -12 q 322 8 349 -12 q 267 82 294 29 l 215 176 q 157 71 157 101 q 172 28 157 51 l 182 14 l 171 0 l 25 0 l 17 22 l 199 206 l 103 382 q 63 413 86 413 q 18 394 43 413 l 8 410 q 62 449 33 438 q 126 461 90 461 q 198 440 171 461 q 250 367 225 419 l 297 279 q 350 378 350 346 q 336 422 350 399 l 325 435 l 336 449 l 483 449 l 492 426 l 314 249 l 414 65 q 454 35 431 35 q 499 56 475 35 l 511 42 z "},"y":{"ha":564,"x_min":18,"x_max":486,"o":"m 486 458 l 486 0 q 423 -170 486 -110 q 247 -231 360 -231 q 135 -204 178 -231 q 92 -135 92 -178 q 114 -74 92 -97 q 172 -51 136 -51 q 224 -62 199 -51 q 199 -131 199 -87 q 217 -181 199 -161 q 265 -200 236 -200 q 363 -42 363 -200 l 363 135 q 299 48 344 82 q 203 14 254 14 q 113 51 142 14 q 83 165 83 89 l 83 372 q 65 392 83 392 l 22 392 l 18 407 q 88 446 44 431 q 169 461 131 461 q 198 453 188 461 q 208 431 208 444 l 208 150 q 257 72 208 72 q 333 129 304 72 q 363 281 363 186 q 354 363 363 331 q 328 418 346 394 l 317 433 l 326 446 l 486 458 z "},"z":{"ha":447,"x_min":22,"x_max":426,"o":"m 306 42 q 351 53 336 42 q 374 93 367 65 l 385 144 l 413 135 l 413 -11 l 401 -22 q 359 -5 382 -10 q 294 0 336 0 l 32 0 l 22 28 l 268 410 l 140 410 q 94 397 111 410 q 72 358 78 385 l 63 307 l 33 317 l 33 463 l 44 474 q 87 456 64 461 q 153 451 110 451 l 408 451 q 426 413 426 435 l 401 399 l 172 42 l 306 42 z "},"{":{"ha":297,"x_min":-12,"x_max":283,"o":"m 207 142 q 224 -13 207 38 q 283 -75 242 -64 l 276 -101 q 113 -26 171 -90 q 56 146 56 38 q 42 252 56 222 q -12 289 28 282 l -12 308 q 42 345 28 315 q 56 451 56 375 q 113 624 56 560 q 276 699 171 688 l 283 674 q 224 612 242 661 q 207 461 207 563 q 107 301 207 325 q 207 142 207 281 z "},"|":{"ha":317,"x_min":114,"x_max":203,"o":"m 114 672 l 203 672 l 203 -74 l 114 -74 l 114 672 z "},"}":{"ha":297,"x_min":14,"x_max":310,"o":"m 90 142 q 190 301 90 281 q 90 461 90 325 q 73 612 90 563 q 14 674 56 661 l 21 699 q 184 624 126 688 q 242 451 242 560 q 256 345 242 375 q 310 308 269 315 l 310 289 q 256 252 269 282 q 242 146 242 222 q 184 -26 242 38 q 21 -101 126 -90 l 14 -75 q 73 -13 56 -64 q 90 142 90 38 z "},"~":{"ha":561,"x_min":89,"x_max":471,"o":"m 471 290 q 381 321 429 321 q 333 313 356 321 q 281 292 311 306 q 224 269 246 276 q 176 263 201 263 q 89 290 125 263 l 89 360 q 181 331 131 331 q 281 360 222 331 q 337 382 315 375 q 383 389 358 389 q 471 360 438 389 l 471 290 z "}," ":{"ha":233,"x_min":0,"x_max":0,"o":""},"¡":{"ha":235,"x_min":36,"x_max":197,"o":"m 188 385 q 163 335 188 363 q 117 308 138 308 q 68 335 94 308 q 42 385 42 363 q 68 435 42 408 q 117 461 94 461 q 163 434 138 461 q 188 385 188 407 m 117 -239 q 69 -232 92 -239 q 36 -214 47 -225 q 60 3 36 -164 q 104 257 85 171 l 128 257 q 172 3 147 169 q 197 -214 197 -164 q 164 -232 186 -225 q 117 -239 142 -239 z "},"¢":{"ha":461,"x_min":32,"x_max":442,"o":"m 296 135 q 367 150 338 135 q 424 194 397 165 l 440 183 q 367 117 413 143 q 263 89 322 90 l 263 -54 q 224 -75 253 -75 l 224 90 q 85 165 138 101 q 32 322 32 229 q 83 482 32 419 q 224 558 135 544 l 224 703 q 263 724 235 724 l 263 563 l 271 563 q 394 528 347 563 q 442 440 442 494 q 414 368 442 394 q 346 342 386 342 q 288 358 314 342 q 318 436 318 386 q 301 502 318 476 q 253 528 285 528 q 194 472 217 528 q 171 325 171 415 q 203 187 171 239 q 296 135 236 135 z "},"£":{"ha":553,"x_min":28,"x_max":522,"o":"m 243 267 q 224 174 242 215 q 154 103 206 133 l 521 103 q 490 0 521 31 l 51 0 l 28 39 q 105 122 76 71 q 133 224 133 174 q 129 267 133 246 l 43 267 q 64 306 43 296 l 121 306 q 108 350 117 318 q 94 409 99 382 q 89 461 89 436 q 147 606 89 551 q 324 661 204 661 q 467 626 411 661 q 522 533 522 590 q 475 444 522 476 q 361 408 428 411 q 392 463 382 431 q 401 531 401 496 q 378 600 401 572 q 321 628 354 628 q 255 590 281 628 q 229 447 229 553 q 232 392 229 422 q 236 350 235 361 q 242 306 239 333 l 414 306 q 393 267 414 278 l 243 267 z "},"¤":{"ha":574,"x_min":32,"x_max":540,"o":"m 540 100 q 497 88 522 88 l 415 169 q 285 133 358 133 q 157 169 211 133 l 61 74 q 47 115 47 92 l 126 194 q 76 326 76 249 q 128 458 76 404 l 32 553 q 75 567 47 567 l 157 485 q 285 519 208 519 q 415 482 363 519 l 514 581 q 526 538 526 564 l 444 457 q 494 326 494 403 q 444 196 494 250 l 540 100 m 282 165 q 340 210 317 165 q 363 329 363 254 q 343 447 363 406 q 290 489 324 489 q 232 444 254 489 q 210 324 210 400 q 229 207 210 249 q 282 165 249 165 z "},"¥":{"ha":563,"x_min":-8,"x_max":551,"o":"m 538 618 q 474 522 500 572 l 407 396 l 513 396 q 492 357 513 368 l 388 357 l 347 281 l 347 274 l 513 274 q 492 235 513 246 l 347 235 l 347 115 q 353 67 347 83 q 375 43 360 51 q 424 25 390 35 l 415 0 l 172 0 l 161 14 l 172 31 q 205 94 196 61 q 214 182 214 126 l 214 235 l 49 235 q 69 274 49 264 l 214 274 l 214 278 l 171 357 l 49 357 q 69 396 49 386 l 149 396 l 82 519 q 40 588 60 564 q -8 633 21 613 l 4 649 l 258 649 l 265 624 l 244 618 q 204 586 204 610 q 211 563 204 578 q 232 521 218 547 l 326 343 l 426 533 q 438 569 438 551 q 426 601 438 588 q 399 618 415 614 l 372 624 l 381 649 l 540 649 l 551 633 l 538 618 z "},"¦":{"ha":317,"x_min":114,"x_max":203,"o":"m 114 672 l 203 672 l 203 408 l 114 408 l 114 672 m 114 190 l 203 190 l 203 -74 l 114 -74 l 114 190 z "},"§":{"ha":414,"x_min":17,"x_max":397,"o":"m 397 560 q 353 482 397 511 q 247 450 310 453 l 243 463 q 275 554 275 496 q 260 601 275 583 q 222 619 244 619 q 176 597 194 619 q 157 538 157 574 q 226 410 157 481 q 306 318 283 354 q 329 243 329 282 q 304 156 329 197 l 131 324 q 65 413 82 371 q 49 496 49 454 q 95 611 49 563 q 242 660 142 660 q 353 631 310 660 q 397 560 397 603 m 17 -131 q 60 -53 17 -82 q 167 -22 104 -25 l 171 -33 q 138 -125 138 -68 q 153 -172 138 -154 q 192 -190 168 -190 q 238 -167 219 -190 q 257 -108 257 -144 q 188 19 257 -51 q 108 111 131 75 q 85 185 85 147 q 111 274 85 232 l 282 106 q 348 17 331 58 q 365 -67 365 -25 q 319 -182 365 -133 q 174 -231 272 -231 q 60 -203 104 -231 q 17 -131 17 -175 z "},"¨":{"ha":381,"x_min":28,"x_max":353,"o":"m 28 588 q 52 635 28 608 q 96 661 76 661 q 141 635 117 661 q 165 588 165 608 q 141 540 165 565 q 96 515 117 515 q 52 540 76 515 q 28 588 28 565 m 214 588 q 238 635 214 608 q 282 661 263 661 q 328 635 303 661 q 353 588 353 608 q 328 540 353 565 q 282 515 303 515 q 238 541 263 515 q 214 588 214 567 z "},"©":{"ha":613,"x_min":46,"x_max":567,"o":"m 46 450 q 81 581 46 521 q 175 676 115 640 q 306 711 235 711 q 436 676 376 711 q 531 581 496 640 q 567 450 567 521 q 531 319 567 379 q 436 224 496 260 q 306 189 376 189 q 175 224 235 189 q 81 319 115 260 q 46 450 46 379 m 68 450 q 100 331 68 385 q 187 244 132 276 q 306 213 242 213 q 425 244 371 213 q 511 331 479 276 q 543 450 543 385 q 511 569 543 514 q 425 656 479 624 q 306 688 371 688 q 187 656 242 688 q 100 569 132 624 q 68 450 68 514 m 442 333 q 318 267 393 267 q 193 318 236 267 q 150 450 150 369 q 193 583 150 531 q 319 635 236 635 q 403 613 371 635 q 436 557 436 592 q 409 499 436 519 q 339 476 382 478 l 339 485 q 355 513 349 494 q 361 553 361 532 q 349 598 361 581 q 313 615 336 615 q 251 567 271 615 q 231 450 231 518 q 260 340 231 385 q 338 294 290 294 q 433 340 393 294 l 442 333 z "},"ª":{"ha":375,"x_min":19,"x_max":374,"o":"m 204 390 q 106 326 167 326 q 44 348 69 326 q 19 410 19 369 q 59 487 19 463 q 156 511 99 511 q 206 507 188 511 l 206 549 q 167 635 206 635 q 138 620 147 635 q 128 585 128 606 q 151 540 128 554 l 150 531 q 40 586 40 531 q 76 640 40 619 q 167 661 111 661 q 271 634 231 661 q 311 558 311 607 l 311 393 q 325 365 311 365 q 363 383 343 365 l 374 368 q 288 326 336 326 q 210 390 218 326 l 204 390 m 154 382 q 190 408 174 382 q 207 482 206 433 q 172 489 190 489 q 138 475 151 489 q 124 432 124 461 q 131 397 124 411 q 154 382 139 382 z "},"«":{"ha":467,"x_min":33,"x_max":439,"o":"m 239 122 q 194 74 219 88 q 139 56 168 60 q 54 197 75 160 q 33 251 33 233 q 55 308 33 268 q 139 449 76 349 q 239 382 204 440 q 187 322 225 360 q 142 279 149 285 l 113 251 q 188 179 150 217 q 239 122 226 142 m 439 122 q 340 56 408 65 l 324 83 q 251 203 268 172 q 233 251 233 235 q 255 307 233 268 q 340 449 276 346 q 439 382 406 439 q 388 324 426 363 q 313 251 350 286 q 439 122 415 157 z "},"¬":{"ha":563,"x_min":90,"x_max":472,"o":"m 472 357 l 472 151 l 411 151 l 411 288 l 90 288 l 90 357 l 472 357 z "},"­":{"ha":321,"x_min":29,"x_max":290,"o":"m 29 228 q 35 264 29 246 q 53 290 42 282 l 290 300 q 267 236 290 254 l 29 228 z "},"®":{"ha":613,"x_min":46,"x_max":567,"o":"m 46 450 q 81 581 46 521 q 175 676 115 640 q 306 711 235 711 q 436 676 376 711 q 531 581 496 640 q 567 450 567 521 q 531 319 567 379 q 436 224 496 260 q 306 189 376 189 q 175 224 235 189 q 81 319 115 260 q 46 450 46 379 m 68 450 q 100 331 68 385 q 187 244 132 276 q 306 213 242 213 q 425 244 371 213 q 511 331 479 276 q 543 450 543 385 q 511 569 543 514 q 425 656 479 624 q 306 688 371 688 q 187 656 242 688 q 100 569 132 624 q 68 450 68 514 m 465 282 q 414 268 440 268 q 378 280 394 268 q 357 318 361 292 l 342 389 q 319 427 336 415 q 268 440 301 439 l 268 344 q 275 310 268 319 q 301 293 282 300 l 311 290 l 306 275 l 171 275 l 164 285 l 171 293 q 189 328 185 310 q 193 385 193 347 l 193 538 q 189 576 193 563 q 171 600 185 589 l 164 606 l 168 617 q 228 630 190 624 q 300 636 265 636 q 412 608 375 636 q 449 535 449 579 q 426 478 449 501 q 368 447 404 456 l 368 444 q 428 375 415 432 l 440 310 q 461 293 443 293 l 465 282 m 267 457 q 345 474 319 457 q 371 542 371 492 q 353 595 371 574 q 307 617 336 617 q 267 581 267 617 l 267 457 z "},"¯":{"ha":368,"x_min":44,"x_max":324,"o":"m 44 549 q 68 628 44 606 l 324 628 q 318 582 324 604 q 300 549 313 560 l 44 549 z "},"°":{"ha":411,"x_min":31,"x_max":382,"o":"m 31 493 q 78 615 31 569 q 206 660 125 660 q 334 615 286 660 q 382 493 382 569 q 334 372 382 417 q 206 326 286 326 q 78 372 125 326 q 31 493 31 417 m 265 496 q 250 596 265 561 q 208 631 235 631 q 162 593 179 631 q 144 490 144 556 q 160 390 144 425 q 201 354 175 354 q 248 392 231 354 q 265 496 265 431 z "},"±":{"ha":561,"x_min":89,"x_max":472,"o":"m 246 357 l 246 514 l 314 514 l 314 357 l 471 357 l 471 288 l 314 288 l 314 132 l 246 132 l 246 288 l 89 288 l 89 357 l 246 357 m 472 68 l 472 -1 l 90 -1 l 90 68 l 472 68 z "},"²":{"ha":363,"x_min":17,"x_max":339,"o":"m 31 558 q 71 628 31 601 q 175 656 111 656 q 289 627 249 656 q 329 546 329 599 q 111 325 329 442 l 339 325 q 314 260 339 279 l 33 260 l 17 290 q 176 439 132 382 q 219 553 219 496 q 207 605 219 585 q 175 625 194 625 q 142 606 156 625 q 129 558 129 588 q 135 519 129 538 q 153 493 142 501 l 150 483 q 62 504 93 485 q 31 558 31 524 z "},"³":{"ha":363,"x_min":28,"x_max":331,"o":"m 126 347 q 171 286 126 286 q 210 308 194 286 q 225 367 225 331 q 204 424 225 403 q 147 444 183 444 q 104 439 126 444 l 100 458 l 122 464 q 215 564 215 488 q 203 613 215 593 q 172 632 190 632 q 148 617 158 632 q 138 579 138 601 q 142 542 138 560 q 154 515 147 524 l 151 506 q 68 526 97 507 q 39 579 39 544 q 78 639 39 615 q 179 663 118 663 q 280 635 240 663 q 319 567 319 608 q 242 467 319 500 q 307 429 283 457 q 331 363 331 401 q 289 283 331 311 q 174 254 247 254 q 68 279 108 254 q 28 344 28 304 q 58 393 28 375 q 143 413 89 411 l 146 403 q 126 347 126 383 z "},"´":{"ha":260,"x_min":51,"x_max":246,"o":"m 193 686 q 246 624 246 665 q 185 554 246 575 l 69 513 l 51 535 l 193 686 z "},"µ":{"ha":596,"x_min":18,"x_max":499,"o":"m 372 100 q 326 33 356 60 q 257 -3 296 7 q 222 -8 240 -8 q 204 -7 210 -8 l 204 -189 l 71 -176 l 60 -165 l 71 -149 q 81 -116 78 -139 q 83 -46 83 -93 l 83 372 l 22 392 l 18 407 q 80 442 42 428 q 158 458 118 457 l 172 460 q 193 456 185 460 q 208 431 208 449 l 208 136 q 265 44 208 44 q 344 103 314 44 q 375 257 375 161 q 367 362 375 321 q 336 433 358 403 l 347 446 l 499 458 l 499 0 l 444 0 l 372 100 z "},"¶":{"ha":467,"x_min":31,"x_max":417,"o":"m 150 18 q 164 -37 150 -17 q 200 -58 178 -58 q 244 -32 228 -58 q 261 42 261 -6 l 261 206 q 94 275 158 218 q 31 413 31 332 q 77 535 31 489 q 203 581 124 581 q 331 567 253 581 q 407 557 388 558 l 417 546 l 406 529 q 393 494 393 513 l 393 158 q 341 -31 393 29 q 178 -92 289 -92 q 72 -63 113 -92 q 31 11 31 -35 q 74 94 31 60 q 185 135 118 129 l 189 124 q 150 18 150 89 z "},"·":{"ha":201,"x_min":24,"x_max":175,"o":"m 24 311 q 50 363 24 335 q 99 392 76 392 q 148 363 121 392 q 175 311 175 335 q 148 260 175 288 q 99 232 121 232 q 50 260 76 232 q 24 311 24 288 z "},"¸":{"ha":317,"x_min":21,"x_max":288,"o":"m 129 -62 q 160 -58 142 -58 q 249 -84 211 -58 q 288 -158 288 -110 q 244 -237 288 -207 q 135 -267 201 -267 q 54 -249 88 -267 q 21 -200 21 -232 q 35 -163 21 -179 q 75 -147 50 -147 q 117 -156 100 -147 q 107 -173 111 -161 q 103 -197 103 -185 q 113 -230 103 -218 q 140 -242 124 -242 q 179 -217 165 -242 q 193 -161 193 -193 q 176 -107 193 -126 q 131 -87 160 -87 q 83 -101 107 -87 l 67 -85 l 150 17 l 186 17 l 125 -58 l 129 -62 z "},"¹":{"ha":313,"x_min":-17,"x_max":225,"o":"m 194 378 q 199 331 194 350 q 218 289 204 311 l 225 278 l 217 267 l 38 267 l 29 289 l 58 294 q 83 308 78 299 q 89 340 89 317 l 89 572 l 29 533 q 0 554 14 536 q -17 590 -14 572 l 182 664 q 208 640 199 657 l 194 631 l 194 378 z "},"º":{"ha":390,"x_min":25,"x_max":367,"o":"m 25 494 q 72 616 25 571 q 196 661 118 661 q 320 616 274 661 q 367 494 367 571 q 320 372 367 418 q 196 326 274 326 q 72 372 118 326 q 25 494 25 418 m 256 492 q 242 592 256 546 q 197 638 228 638 q 153 597 169 638 q 136 493 136 557 q 152 390 136 428 q 194 351 168 351 q 238 390 221 351 q 256 492 256 429 z "},"»":{"ha":467,"x_min":26,"x_max":433,"o":"m 26 122 q 153 251 47 154 q 26 382 47 351 q 125 449 58 439 q 211 307 190 344 q 232 251 232 269 q 210 197 232 235 q 125 56 189 158 q 26 122 58 65 m 228 122 q 354 251 249 154 q 228 382 249 351 q 328 449 261 439 q 413 305 393 342 q 433 251 433 268 q 413 197 433 235 q 328 56 392 160 q 228 122 261 65 z "},"¼":{"ha":851,"x_min":6,"x_max":833,"o":"m 217 375 q 222 328 217 347 q 240 286 226 308 l 247 275 l 239 264 l 60 264 l 51 286 l 81 292 q 106 305 100 296 q 111 338 111 314 l 111 569 l 51 531 q 22 551 36 533 q 6 588 8 569 l 204 661 q 231 638 221 654 l 217 628 l 217 375 m 513 675 l 560 675 l 289 -28 l 243 -28 l 513 675 m 833 125 q 818 88 833 99 l 788 88 q 813 22 788 56 l 821 11 l 811 0 l 638 0 l 632 22 l 657 28 q 682 42 675 32 q 689 74 689 51 l 689 88 l 517 88 l 506 103 l 628 389 l 724 389 l 735 378 l 572 125 l 689 125 l 689 185 q 686 213 689 203 q 676 233 683 224 l 683 244 l 788 251 l 788 125 l 833 125 z "},"½":{"ha":853,"x_min":6,"x_max":829,"o":"m 217 375 q 222 328 217 347 q 240 286 226 308 l 247 275 l 239 264 l 60 264 l 51 286 l 81 292 q 106 305 100 296 q 111 338 111 314 l 111 569 l 51 531 q 22 551 36 533 q 6 588 8 569 l 204 661 q 231 638 221 654 l 217 628 l 217 375 m 513 675 l 560 675 l 289 -28 l 243 -28 l 513 675 m 521 299 q 561 369 521 342 q 665 396 601 396 q 779 367 739 396 q 819 286 819 339 q 601 65 819 182 l 829 65 q 804 0 829 19 l 524 0 l 507 31 q 666 179 622 122 q 710 293 710 236 q 697 345 710 325 q 665 365 685 365 q 633 347 646 365 q 619 299 619 328 q 626 260 619 278 q 643 233 632 242 l 640 224 q 552 244 583 225 q 521 299 521 264 z "},"¾":{"ha":901,"x_min":28,"x_max":883,"o":"m 126 344 q 171 283 126 283 q 210 306 194 283 q 225 364 225 328 q 204 421 225 400 q 147 442 183 442 q 104 436 126 442 l 100 456 l 122 461 q 215 561 215 485 q 203 610 215 590 q 172 629 190 629 q 148 614 158 629 q 138 576 138 599 q 142 539 138 557 q 154 513 147 521 l 151 503 q 68 523 97 504 q 39 576 39 542 q 78 636 39 613 q 179 660 118 660 q 280 633 240 660 q 319 564 319 606 q 242 464 319 497 q 307 426 283 454 q 331 360 331 399 q 289 280 331 308 q 174 251 247 251 q 68 276 108 251 q 28 342 28 301 q 58 390 28 372 q 143 410 89 408 l 146 400 q 126 344 126 381 m 563 675 l 610 675 l 339 -28 l 293 -28 l 563 675 m 883 125 q 868 88 883 99 l 838 88 q 863 22 838 56 l 871 11 l 861 0 l 688 0 l 682 22 l 707 28 q 732 42 725 32 q 739 74 739 51 l 739 88 l 567 88 l 556 103 l 678 389 l 774 389 l 785 378 l 622 125 l 739 125 l 739 185 q 736 213 739 203 q 726 233 733 224 l 733 244 l 838 251 l 838 125 l 883 125 z "},"¿":{"ha":458,"x_min":25,"x_max":438,"o":"m 332 385 q 307 335 332 363 q 261 308 282 308 q 213 335 239 308 q 188 385 188 363 q 213 435 188 408 q 261 461 239 461 q 307 434 282 461 q 332 385 332 407 m 243 -236 q 85 -192 146 -236 q 25 -79 25 -149 q 56 19 25 -24 q 147 119 86 61 q 215 187 192 160 q 247 246 239 214 l 251 263 l 269 263 l 311 219 q 199 70 235 142 q 163 -72 163 -1 q 183 -172 163 -136 q 242 -208 204 -208 q 292 -181 272 -208 q 311 -110 311 -154 q 299 -49 311 -76 q 265 -7 288 -22 l 268 3 q 391 -32 344 0 q 438 -112 438 -64 q 383 -201 438 -167 q 243 -236 328 -236 z "},"À":{"ha":650,"x_min":-7,"x_max":650,"o":"m 568 125 q 599 63 582 86 q 650 14 615 40 l 638 0 l 386 0 l 378 25 l 399 31 q 428 48 419 38 q 438 76 438 58 q 422 133 438 88 l 394 215 l 179 215 l 168 181 q 147 86 147 118 q 158 31 147 56 l 168 14 l 156 0 l 3 0 l -7 25 l 14 31 q 64 58 47 40 q 96 119 81 75 l 238 528 q 247 576 247 563 q 203 619 247 607 l 188 624 l 197 649 l 386 649 l 568 125 m 381 254 l 286 536 l 193 254 l 381 254 m 385 710 l 269 751 q 210 821 210 772 q 261 883 210 864 l 403 732 l 385 710 z "},"Á":{"ha":650,"x_min":-7,"x_max":650,"o":"m 568 125 q 599 63 582 86 q 650 14 615 40 l 638 0 l 386 0 l 378 25 l 399 31 q 428 48 419 38 q 438 76 438 58 q 422 133 438 88 l 394 215 l 179 215 l 168 181 q 147 86 147 118 q 158 31 147 56 l 168 14 l 156 0 l 3 0 l -7 25 l 14 31 q 64 58 47 40 q 96 119 81 75 l 238 528 q 247 576 247 563 q 203 619 247 607 l 188 624 l 197 649 l 386 649 l 568 125 m 381 254 l 286 536 l 193 254 l 381 254 m 388 883 q 439 821 439 863 q 378 751 439 772 l 264 710 l 246 732 l 388 883 z "},"Â":{"ha":650,"x_min":-7,"x_max":650,"o":"m 568 125 q 599 63 582 86 q 650 14 615 40 l 638 0 l 386 0 l 378 25 l 399 31 q 428 48 419 38 q 438 76 438 58 q 422 133 438 88 l 394 215 l 179 215 l 168 181 q 147 86 147 118 q 158 31 147 56 l 168 14 l 156 0 l 3 0 l -7 25 l 14 31 q 64 58 47 40 q 96 119 81 75 l 238 528 q 247 576 247 563 q 203 619 247 607 l 188 624 l 197 649 l 386 649 l 568 125 m 381 254 l 286 536 l 193 254 l 381 254 m 439 710 l 325 788 l 211 710 l 190 728 q 247 819 217 778 q 301 879 278 860 l 349 879 q 460 728 394 843 l 439 710 z "},"Ã":{"ha":650,"x_min":-7,"x_max":650,"o":"m 568 125 q 599 63 582 86 q 650 14 615 40 l 638 0 l 386 0 l 378 25 l 399 31 q 428 48 419 38 q 438 76 438 58 q 422 133 438 88 l 394 215 l 179 215 l 168 181 q 147 86 147 118 q 158 31 147 56 l 168 14 l 156 0 l 3 0 l -7 25 l 14 31 q 64 58 47 40 q 96 119 81 75 l 238 528 q 247 576 247 563 q 203 619 247 607 l 188 624 l 197 649 l 386 649 l 568 125 m 381 254 l 286 536 l 193 254 l 381 254 m 469 829 q 414 757 440 782 q 360 732 388 732 q 334 736 344 732 q 308 750 324 740 q 289 762 299 757 q 267 767 279 767 q 200 732 239 767 l 178 753 q 233 825 207 800 q 288 850 260 850 q 313 845 303 850 q 338 831 324 840 q 381 814 363 814 q 446 850 408 814 l 469 829 z "},"Ä":{"ha":650,"x_min":-7,"x_max":650,"o":"m 568 125 q 599 63 582 86 q 650 14 615 40 l 638 0 l 386 0 l 378 25 l 399 31 q 428 48 419 38 q 438 76 438 58 q 422 133 438 88 l 394 215 l 179 215 l 168 181 q 147 86 147 118 q 158 31 147 56 l 168 14 l 156 0 l 3 0 l -7 25 l 14 31 q 64 58 47 40 q 96 119 81 75 l 238 528 q 247 576 247 563 q 203 619 247 607 l 188 624 l 197 649 l 386 649 l 568 125 m 381 254 l 286 536 l 193 254 l 381 254 m 163 785 q 187 832 163 806 q 231 858 211 858 q 276 832 251 858 q 300 785 300 806 q 276 738 300 763 q 231 713 251 713 q 187 738 211 713 q 163 785 163 763 m 349 785 q 373 832 349 806 q 417 858 397 858 q 463 832 438 858 q 488 785 488 806 q 463 738 488 763 q 417 713 438 713 q 373 738 397 713 q 349 785 349 764 z "},"Å":{"ha":650,"x_min":-7,"x_max":650,"o":"m 568 125 q 599 63 582 86 q 650 14 615 40 l 638 0 l 386 0 l 378 25 l 399 31 q 428 48 419 38 q 438 76 438 58 q 422 133 438 88 l 394 215 l 179 215 l 168 181 q 147 86 147 118 q 158 31 147 56 l 168 14 l 156 0 l 3 0 l -7 25 l 14 31 q 64 58 47 40 q 96 119 81 75 l 238 528 q 247 576 247 563 q 203 619 247 607 l 188 624 l 197 649 l 386 649 l 568 125 m 381 254 l 286 536 l 193 254 l 381 254 m 324 692 q 242 719 271 692 q 214 792 214 747 q 242 864 214 836 q 324 892 271 892 q 408 864 379 892 q 438 792 438 836 q 408 719 438 747 q 324 692 379 692 m 324 718 q 349 739 340 718 q 358 792 358 760 q 349 844 358 824 q 324 865 340 865 q 299 844 308 865 q 290 792 290 824 q 299 740 290 761 q 324 718 308 718 z "},"Æ":{"ha":896,"x_min":-11,"x_max":844,"o":"m 844 156 l 844 -11 l 831 -24 q 790 -5 811 -10 q 725 0 768 0 l 367 0 l 357 25 l 376 31 q 423 58 411 40 q 435 115 435 75 l 435 285 l 243 285 l 163 139 q 143 71 143 101 q 154 31 143 51 l 164 14 l 151 0 l -1 0 l -11 25 l 10 31 q 79 85 56 43 l 393 649 l 700 649 q 803 667 779 649 l 819 679 l 835 667 l 835 493 l 806 483 q 756 588 781 561 q 688 614 732 614 l 625 614 q 579 601 590 614 q 568 544 568 588 l 568 324 l 667 324 q 729 333 710 324 q 758 365 749 342 l 765 383 l 783 374 l 783 214 l 753 203 l 747 232 q 717 272 742 261 q 636 283 693 283 l 568 283 l 568 103 q 581 47 568 60 q 636 35 593 35 l 704 35 q 767 63 743 35 q 817 165 792 90 l 844 156 m 435 324 l 435 615 l 425 615 l 264 324 l 435 324 z "},"Ç":{"ha":576,"x_min":29,"x_max":571,"o":"m 335 -12 q 294 -11 307 -12 l 256 -58 l 260 -62 q 290 -58 272 -58 q 380 -84 342 -58 q 418 -158 418 -110 q 375 -237 418 -207 q 265 -267 332 -267 q 185 -249 218 -267 q 151 -200 151 -232 q 166 -163 151 -179 q 206 -147 181 -147 q 247 -156 231 -147 q 238 -173 242 -161 q 233 -197 233 -185 q 244 -230 233 -218 q 271 -242 254 -242 q 310 -217 296 -242 q 324 -161 324 -193 q 307 -107 324 -126 q 261 -87 290 -87 q 214 -101 238 -87 l 197 -85 l 263 -6 q 89 106 149 17 q 29 324 29 196 q 108 566 29 471 q 338 661 188 661 q 494 624 433 661 q 554 528 554 588 q 506 436 554 469 q 383 403 457 403 q 425 524 425 447 q 398 598 425 568 q 328 628 371 628 q 212 538 249 628 q 175 324 175 447 q 198 179 175 244 q 265 76 221 114 q 365 38 308 38 q 474 65 431 38 q 554 140 518 92 l 571 128 q 474 26 533 65 q 335 -12 415 -12 z "},"È":{"ha":574,"x_min":35,"x_max":522,"o":"m 111 467 q 103 554 111 522 q 71 618 94 586 l 60 633 l 71 649 l 378 649 q 481 667 454 649 l 497 679 l 511 667 l 511 493 l 483 483 q 434 586 458 558 q 365 614 410 614 l 303 614 q 256 601 267 614 q 244 544 244 588 l 244 347 l 344 347 q 406 356 386 347 q 436 389 426 364 l 443 408 l 461 397 l 461 242 l 431 231 l 425 261 q 394 301 419 290 q 314 313 369 313 l 244 313 l 244 103 q 257 48 244 61 q 313 35 269 35 l 381 35 q 447 64 422 35 q 493 165 471 93 l 522 156 l 522 -11 l 507 -24 q 463 -5 488 -10 q 393 0 438 0 l 44 0 l 35 25 q 85 44 69 35 q 106 68 100 53 q 111 115 111 83 l 111 467 m 347 710 l 232 751 q 172 821 172 772 q 224 883 172 864 l 365 732 l 347 710 z "},"É":{"ha":574,"x_min":35,"x_max":522,"o":"m 111 467 q 103 554 111 522 q 71 618 94 586 l 60 633 l 71 649 l 378 649 q 481 667 454 649 l 497 679 l 511 667 l 511 493 l 483 483 q 434 586 458 558 q 365 614 410 614 l 303 614 q 256 601 267 614 q 244 544 244 588 l 244 347 l 344 347 q 406 356 386 347 q 436 389 426 364 l 443 408 l 461 397 l 461 242 l 431 231 l 425 261 q 394 301 419 290 q 314 313 369 313 l 244 313 l 244 103 q 257 48 244 61 q 313 35 269 35 l 381 35 q 447 64 422 35 q 493 165 471 93 l 522 156 l 522 -11 l 507 -24 q 463 -5 488 -10 q 393 0 438 0 l 44 0 l 35 25 q 85 44 69 35 q 106 68 100 53 q 111 115 111 83 l 111 467 m 350 883 q 401 821 401 863 q 340 751 401 772 l 226 710 l 208 732 l 350 883 z "},"Ê":{"ha":574,"x_min":35,"x_max":522,"o":"m 111 467 q 103 554 111 522 q 71 618 94 586 l 60 633 l 71 649 l 378 649 q 481 667 454 649 l 497 679 l 511 667 l 511 493 l 483 483 q 434 586 458 558 q 365 614 410 614 l 303 614 q 256 601 267 614 q 244 544 244 588 l 244 347 l 344 347 q 406 356 386 347 q 436 389 426 364 l 443 408 l 461 397 l 461 242 l 431 231 l 425 261 q 394 301 419 290 q 314 313 369 313 l 244 313 l 244 103 q 257 48 244 61 q 313 35 269 35 l 381 35 q 447 64 422 35 q 493 165 471 93 l 522 156 l 522 -11 l 507 -24 q 463 -5 488 -10 q 393 0 438 0 l 44 0 l 35 25 q 85 44 69 35 q 106 68 100 53 q 111 115 111 83 l 111 467 m 401 710 l 288 788 l 174 710 l 153 728 q 210 819 179 778 q 264 879 240 860 l 311 879 q 422 728 357 843 l 401 710 z "},"Ë":{"ha":574,"x_min":35,"x_max":522,"o":"m 111 467 q 103 554 111 522 q 71 618 94 586 l 60 633 l 71 649 l 378 649 q 481 667 454 649 l 497 679 l 511 667 l 511 493 l 483 483 q 434 586 458 558 q 365 614 410 614 l 303 614 q 256 601 267 614 q 244 544 244 588 l 244 347 l 344 347 q 406 356 386 347 q 436 389 426 364 l 443 408 l 461 397 l 461 242 l 431 231 l 425 261 q 394 301 419 290 q 314 313 369 313 l 244 313 l 244 103 q 257 48 244 61 q 313 35 269 35 l 381 35 q 447 64 422 35 q 493 165 471 93 l 522 156 l 522 -11 l 507 -24 q 463 -5 488 -10 q 393 0 438 0 l 44 0 l 35 25 q 85 44 69 35 q 106 68 100 53 q 111 115 111 83 l 111 467 m 125 785 q 149 832 125 806 q 193 858 174 858 q 238 832 214 858 q 263 785 263 806 q 238 738 263 763 q 193 713 214 713 q 149 738 174 713 q 125 785 125 763 m 311 785 q 335 832 311 806 q 379 858 360 858 q 425 832 400 858 q 450 785 450 806 q 425 738 450 763 q 379 713 400 713 q 335 738 360 713 q 311 785 311 764 z "},"Ì":{"ha":350,"x_min":38,"x_max":304,"o":"m 38 25 q 84 42 69 33 q 103 67 99 51 q 108 115 108 83 l 108 476 q 98 570 108 543 q 47 631 88 597 l 60 649 l 294 649 l 304 626 q 253 583 264 603 q 242 511 242 563 l 242 169 q 252 77 242 104 q 301 17 263 50 l 290 0 l 47 0 l 38 25 m 236 710 l 121 751 q 61 821 61 772 q 113 883 61 864 l 254 732 l 236 710 z "},"Í":{"ha":350,"x_min":38,"x_max":304,"o":"m 38 25 q 84 42 69 33 q 103 67 99 51 q 108 115 108 83 l 108 476 q 98 570 108 543 q 47 631 88 597 l 60 649 l 294 649 l 304 626 q 253 583 264 603 q 242 511 242 563 l 242 169 q 252 77 242 104 q 301 17 263 50 l 290 0 l 47 0 l 38 25 m 239 883 q 290 821 290 863 q 229 751 290 772 l 115 710 l 97 732 l 239 883 z "},"Î":{"ha":350,"x_min":38,"x_max":311,"o":"m 38 25 q 84 42 69 33 q 103 67 99 51 q 108 115 108 83 l 108 476 q 98 570 108 543 q 47 631 88 597 l 60 649 l 294 649 l 304 626 q 253 583 264 603 q 242 511 242 563 l 242 169 q 252 77 242 104 q 301 17 263 50 l 290 0 l 47 0 l 38 25 m 290 710 l 176 788 l 63 710 l 42 728 q 99 819 68 778 q 153 879 129 860 l 200 879 q 311 728 246 843 l 290 710 z "},"Ï":{"ha":350,"x_min":14,"x_max":339,"o":"m 38 25 q 84 42 69 33 q 103 67 99 51 q 108 115 108 83 l 108 476 q 98 570 108 543 q 47 631 88 597 l 60 649 l 294 649 l 304 626 q 253 583 264 603 q 242 511 242 563 l 242 169 q 252 77 242 104 q 301 17 263 50 l 290 0 l 47 0 l 38 25 m 14 785 q 38 832 14 806 q 82 858 63 858 q 127 832 103 858 q 151 785 151 806 q 127 738 151 763 q 82 713 103 713 q 38 738 63 713 q 14 785 14 763 m 200 785 q 224 832 200 806 q 268 858 249 858 q 314 832 289 858 q 339 785 339 806 q 314 738 339 763 q 268 713 289 713 q 224 738 249 713 q 200 785 200 764 z "},"Ð":{"ha":688,"x_min":31,"x_max":658,"o":"m 297 661 q 566 574 474 661 q 658 324 658 488 q 573 88 658 175 q 340 0 488 0 l 46 0 l 36 25 q 86 44 71 35 q 107 68 101 53 q 113 115 113 83 l 113 296 l 31 296 q 47 353 31 338 l 113 353 l 113 492 q 105 563 113 540 q 69 601 97 585 l 53 611 l 58 629 q 172 652 104 643 q 297 661 240 661 m 328 28 q 515 324 515 28 q 462 542 515 460 q 321 625 408 625 q 265 614 285 625 q 246 582 246 603 l 246 353 l 414 353 q 396 296 414 314 l 246 296 l 246 157 q 266 60 246 92 q 328 28 286 28 z "},"Ñ":{"ha":681,"x_min":21,"x_max":636,"o":"m 624 618 q 592 553 601 586 q 583 467 583 519 l 583 79 q 596 31 583 50 l 608 14 l 596 0 l 451 0 l 143 532 l 143 182 q 152 94 143 126 q 183 31 161 61 l 196 14 l 183 0 l 31 0 l 21 25 q 72 43 57 35 q 92 67 86 51 q 97 115 97 82 l 97 482 q 86 571 97 543 q 38 631 75 599 l 49 649 l 229 649 l 539 113 l 539 533 q 522 592 539 575 q 450 624 504 608 l 458 649 l 624 649 l 636 633 l 624 618 m 485 829 q 429 757 456 782 q 375 732 403 732 q 349 736 360 732 q 324 750 339 740 q 304 762 314 757 q 282 767 294 767 q 215 732 254 767 l 193 753 q 249 825 222 800 q 303 850 275 850 q 328 845 318 850 q 353 831 339 840 q 396 814 378 814 q 461 850 424 814 l 485 829 z "},"Ò":{"ha":686,"x_min":29,"x_max":658,"o":"m 343 -12 q 114 78 199 -12 q 29 324 29 168 q 114 570 29 479 q 343 661 199 661 q 573 570 488 661 q 658 324 658 479 q 573 78 658 169 q 343 -12 488 -12 m 339 19 q 430 58 390 19 q 492 164 469 96 q 514 321 514 232 q 492 481 514 410 q 433 591 471 551 q 346 631 394 631 q 254 591 294 631 q 192 480 214 551 q 169 317 169 408 q 215 101 169 182 q 339 19 261 19 m 404 710 l 289 751 q 229 821 229 772 q 281 883 229 864 l 422 732 l 404 710 z "},"Ó":{"ha":686,"x_min":29,"x_max":658,"o":"m 343 -12 q 114 78 199 -12 q 29 324 29 168 q 114 570 29 479 q 343 661 199 661 q 573 570 488 661 q 658 324 658 479 q 573 78 658 169 q 343 -12 488 -12 m 339 19 q 430 58 390 19 q 492 164 469 96 q 514 321 514 232 q 492 481 514 410 q 433 591 471 551 q 346 631 394 631 q 254 591 294 631 q 192 480 214 551 q 169 317 169 408 q 215 101 169 182 q 339 19 261 19 m 407 883 q 458 821 458 863 q 397 751 458 772 l 283 710 l 265 732 l 407 883 z "},"Ô":{"ha":686,"x_min":29,"x_max":658,"o":"m 343 -12 q 114 78 199 -12 q 29 324 29 168 q 114 570 29 479 q 343 661 199 661 q 573 570 488 661 q 658 324 658 479 q 573 78 658 169 q 343 -12 488 -12 m 339 19 q 430 58 390 19 q 492 164 469 96 q 514 321 514 232 q 492 481 514 410 q 433 591 471 551 q 346 631 394 631 q 254 591 294 631 q 192 480 214 551 q 169 317 169 408 q 215 101 169 182 q 339 19 261 19 m 458 710 l 344 788 l 231 710 l 210 728 q 267 819 236 778 q 321 879 297 860 l 368 879 q 479 728 414 843 l 458 710 z "},"Õ":{"ha":686,"x_min":29,"x_max":658,"o":"m 343 -12 q 114 78 199 -12 q 29 324 29 168 q 114 570 29 479 q 343 661 199 661 q 573 570 488 661 q 658 324 658 479 q 573 78 658 169 q 343 -12 488 -12 m 339 19 q 430 58 390 19 q 492 164 469 96 q 514 321 514 232 q 492 481 514 410 q 433 591 471 551 q 346 631 394 631 q 254 591 294 631 q 192 480 214 551 q 169 317 169 408 q 215 101 169 182 q 339 19 261 19 m 489 829 q 433 757 460 782 q 379 732 407 732 q 353 736 364 732 q 328 750 343 740 q 308 762 318 757 q 286 767 299 767 q 219 732 258 767 l 197 753 q 253 825 226 800 q 307 850 279 850 q 333 845 322 850 q 357 831 343 840 q 400 814 382 814 q 465 850 428 814 l 489 829 z "},"Ö":{"ha":686,"x_min":29,"x_max":658,"o":"m 343 -12 q 114 78 199 -12 q 29 324 29 168 q 114 570 29 479 q 343 661 199 661 q 573 570 488 661 q 658 324 658 479 q 573 78 658 169 q 343 -12 488 -12 m 339 19 q 430 58 390 19 q 492 164 469 96 q 514 321 514 232 q 492 481 514 410 q 433 591 471 551 q 346 631 394 631 q 254 591 294 631 q 192 480 214 551 q 169 317 169 408 q 215 101 169 182 q 339 19 261 19 m 182 785 q 206 832 182 806 q 250 858 231 858 q 295 832 271 858 q 319 785 319 806 q 295 738 319 763 q 250 713 271 713 q 206 738 231 713 q 182 785 182 763 m 368 785 q 392 832 368 806 q 436 858 417 858 q 482 832 457 858 q 507 785 507 806 q 482 738 507 763 q 436 713 457 713 q 392 738 417 713 q 368 785 368 764 z "},"×":{"ha":561,"x_min":101,"x_max":460,"o":"m 231 322 l 101 453 l 150 501 l 281 371 l 411 501 l 460 453 l 329 322 l 460 192 l 411 143 l 281 274 l 150 143 l 101 192 l 231 322 z "},"Ø":{"ha":686,"x_min":29,"x_max":658,"o":"m 481 635 q 612 517 565 599 q 658 324 658 436 q 573 78 658 169 q 343 -12 488 -12 q 261 -4 299 -12 l 240 -64 l 186 -64 l 211 11 q 77 127 125 46 q 29 324 29 208 q 114 570 29 479 q 343 661 199 661 q 429 651 392 661 l 446 699 l 503 699 l 481 635 m 169 317 q 186 175 169 238 q 233 74 203 113 l 415 607 q 346 631 383 631 q 254 591 294 631 q 192 480 214 551 q 169 317 169 408 m 339 19 q 430 58 390 19 q 492 164 469 96 q 514 321 514 232 q 499 458 514 396 q 456 563 483 519 l 275 36 q 339 19 304 19 z "},"Ù":{"ha":668,"x_min":35,"x_max":633,"o":"m 581 231 q 519 49 581 111 q 340 -12 458 -12 q 160 51 225 -12 q 94 231 94 115 l 94 479 q 83 571 94 543 q 35 631 72 599 l 44 649 l 288 649 l 297 626 q 251 597 265 610 q 233 563 238 583 q 228 500 228 542 l 228 218 q 264 77 228 125 q 369 29 300 29 q 492 78 449 29 q 535 218 535 128 l 535 533 q 519 592 535 576 q 450 624 503 608 l 460 649 l 621 649 l 633 633 l 621 618 q 588 553 597 586 q 581 467 579 521 l 581 231 m 438 710 l 322 751 q 263 821 263 772 q 314 883 263 864 l 456 732 l 438 710 z "},"Ú":{"ha":668,"x_min":35,"x_max":633,"o":"m 581 231 q 519 49 581 111 q 340 -12 458 -12 q 160 51 225 -12 q 94 231 94 115 l 94 479 q 83 571 94 543 q 35 631 72 599 l 44 649 l 288 649 l 297 626 q 251 597 265 610 q 233 563 238 583 q 228 500 228 542 l 228 218 q 264 77 228 125 q 369 29 300 29 q 492 78 449 29 q 535 218 535 128 l 535 533 q 519 592 535 576 q 450 624 503 608 l 460 649 l 621 649 l 633 633 l 621 618 q 588 553 597 586 q 581 467 579 521 l 581 231 m 440 883 q 492 821 492 863 q 431 751 492 772 l 317 710 l 299 732 l 440 883 z "},"Û":{"ha":668,"x_min":35,"x_max":633,"o":"m 581 231 q 519 49 581 111 q 340 -12 458 -12 q 160 51 225 -12 q 94 231 94 115 l 94 479 q 83 571 94 543 q 35 631 72 599 l 44 649 l 288 649 l 297 626 q 251 597 265 610 q 233 563 238 583 q 228 500 228 542 l 228 218 q 264 77 228 125 q 369 29 300 29 q 492 78 449 29 q 535 218 535 128 l 535 533 q 519 592 535 576 q 450 624 503 608 l 460 649 l 621 649 l 633 633 l 621 618 q 588 553 597 586 q 581 467 579 521 l 581 231 m 492 710 l 378 788 l 264 710 l 243 728 q 300 819 269 778 q 354 879 331 860 l 401 879 q 513 728 447 843 l 492 710 z "},"Ü":{"ha":668,"x_min":35,"x_max":633,"o":"m 581 231 q 519 49 581 111 q 340 -12 458 -12 q 160 51 225 -12 q 94 231 94 115 l 94 479 q 83 571 94 543 q 35 631 72 599 l 44 649 l 288 649 l 297 626 q 251 597 265 610 q 233 563 238 583 q 228 500 228 542 l 228 218 q 264 77 228 125 q 369 29 300 29 q 492 78 449 29 q 535 218 535 128 l 535 533 q 519 592 535 576 q 450 624 503 608 l 460 649 l 621 649 l 633 633 l 621 618 q 588 553 597 586 q 581 467 579 521 l 581 231 m 215 785 q 240 832 215 806 q 283 858 264 858 q 328 832 304 858 q 353 785 353 806 q 328 738 353 763 q 283 713 304 713 q 240 738 264 713 q 215 785 215 763 m 401 785 q 426 832 401 806 q 469 858 450 858 q 515 832 490 858 q 540 785 540 806 q 515 738 540 763 q 469 713 490 713 q 426 738 450 713 q 401 785 401 764 z "},"Ý":{"ha":563,"x_min":-11,"x_max":549,"o":"m 549 633 l 535 618 q 471 522 497 572 l 344 281 l 344 115 q 351 67 344 83 q 372 43 357 51 q 421 25 388 35 l 413 0 l 169 0 l 158 14 l 169 31 q 202 94 193 61 q 211 182 211 126 l 211 278 l 79 519 q 38 588 57 564 q -11 633 18 613 l 1 649 l 256 649 l 263 624 l 242 618 q 201 586 201 610 q 208 563 201 578 q 229 521 215 547 l 324 343 l 424 533 q 435 569 435 551 q 424 601 435 588 q 396 618 413 614 l 369 624 l 378 649 l 538 649 l 549 633 m 368 883 q 419 821 419 863 q 358 751 419 772 l 244 710 l 226 732 l 368 883 z "},"Þ":{"ha":581,"x_min":33,"x_max":572,"o":"m 572 317 q 515 176 572 232 q 372 119 458 119 q 318 128 347 119 q 268 147 289 136 l 271 161 q 301 158 290 158 q 319 160 313 158 q 403 210 374 168 q 433 318 433 251 q 399 449 433 400 q 306 497 364 497 q 262 483 278 497 q 246 444 246 468 l 246 182 q 256 89 246 121 q 297 14 265 57 l 286 0 l 44 0 l 35 25 q 99 55 85 39 q 113 115 113 71 l 113 475 q 106 544 113 519 q 85 586 100 568 q 33 631 69 604 l 44 649 l 299 649 l 308 626 q 260 588 271 607 q 247 518 249 569 q 326 531 285 531 q 506 472 439 531 q 572 317 572 414 z "},"ß":{"ha":592,"x_min":22,"x_max":578,"o":"m 421 -12 q 343 1 381 -12 q 278 42 306 14 l 289 57 q 368 35 322 35 q 429 54 407 35 q 451 107 451 74 q 390 200 451 160 l 326 244 q 272 295 286 274 q 258 350 258 317 q 269 390 258 371 q 304 440 281 410 q 348 503 333 476 q 363 565 363 531 q 347 626 363 604 q 301 647 331 647 q 236 599 260 647 q 213 464 213 551 l 213 157 q 220 82 213 110 q 246 29 228 54 l 257 14 l 246 0 l 31 0 l 22 24 l 42 29 q 76 51 67 36 q 85 106 85 67 l 85 417 q 149 610 85 539 q 325 681 214 681 q 441 651 399 681 q 483 572 483 622 q 467 522 483 543 q 419 474 450 500 q 377 433 392 451 q 363 393 363 415 q 373 365 363 378 q 408 335 383 351 l 479 285 q 554 213 531 250 q 578 131 578 175 q 534 28 578 68 q 421 -12 490 -12 z "},"à":{"ha":507,"x_min":33,"x_max":510,"o":"m 193 307 q 124 290 164 290 q 78 308 94 290 q 61 357 61 325 q 108 433 61 404 q 229 461 154 461 q 369 422 318 461 q 419 317 419 383 l 419 76 q 447 38 419 38 q 499 58 474 38 l 510 44 q 388 -12 458 -12 q 324 8 346 -12 q 299 74 303 29 l 293 74 q 234 10 271 33 q 150 -12 197 -12 q 65 20 97 -12 q 33 106 33 53 q 90 200 33 165 q 244 235 147 235 q 296 232 263 235 l 296 301 q 279 399 296 369 q 225 429 263 429 q 183 413 199 429 q 168 369 168 396 q 193 307 168 328 m 214 57 q 296 206 296 57 q 192 183 226 206 q 157 118 157 160 q 172 74 157 90 q 214 57 188 57 m 293 513 l 178 554 q 118 624 118 575 q 169 686 118 667 l 311 535 l 293 513 z "},"á":{"ha":507,"x_min":33,"x_max":510,"o":"m 193 307 q 124 290 164 290 q 78 308 94 290 q 61 357 61 325 q 108 433 61 404 q 229 461 154 461 q 369 422 318 461 q 419 317 419 383 l 419 76 q 447 38 419 38 q 499 58 474 38 l 510 44 q 388 -12 458 -12 q 324 8 346 -12 q 299 74 303 29 l 293 74 q 234 10 271 33 q 150 -12 197 -12 q 65 20 97 -12 q 33 106 33 53 q 90 200 33 165 q 244 235 147 235 q 296 232 263 235 l 296 301 q 279 399 296 369 q 225 429 263 429 q 183 413 199 429 q 168 369 168 396 q 193 307 168 328 m 214 57 q 296 206 296 57 q 192 183 226 206 q 157 118 157 160 q 172 74 157 90 q 214 57 188 57 m 296 686 q 347 624 347 665 q 286 554 347 575 l 172 513 l 154 535 l 296 686 z "},"â":{"ha":507,"x_min":33,"x_max":510,"o":"m 193 307 q 124 290 164 290 q 78 308 94 290 q 61 357 61 325 q 108 433 61 404 q 229 461 154 461 q 369 422 318 461 q 419 317 419 383 l 419 76 q 447 38 419 38 q 499 58 474 38 l 510 44 q 388 -12 458 -12 q 324 8 346 -12 q 299 74 303 29 l 293 74 q 234 10 271 33 q 150 -12 197 -12 q 65 20 97 -12 q 33 106 33 53 q 90 200 33 165 q 244 235 147 235 q 296 232 263 235 l 296 301 q 279 399 296 369 q 225 429 263 429 q 183 413 199 429 q 168 369 168 396 q 193 307 168 328 m 214 57 q 296 206 296 57 q 192 183 226 206 q 157 118 157 160 q 172 74 157 90 q 214 57 188 57 m 347 513 l 233 590 l 119 513 l 99 531 q 156 622 125 581 q 210 682 186 663 l 257 682 q 368 531 303 646 l 347 513 z "},"ã":{"ha":507,"x_min":33,"x_max":510,"o":"m 193 307 q 124 290 164 290 q 78 308 94 290 q 61 357 61 325 q 108 433 61 404 q 229 461 154 461 q 369 422 318 461 q 419 317 419 383 l 419 76 q 447 38 419 38 q 499 58 474 38 l 510 44 q 388 -12 458 -12 q 324 8 346 -12 q 299 74 303 29 l 293 74 q 234 10 271 33 q 150 -12 197 -12 q 65 20 97 -12 q 33 106 33 53 q 90 200 33 165 q 244 235 147 235 q 296 232 263 235 l 296 301 q 279 399 296 369 q 225 429 263 429 q 183 413 199 429 q 168 369 168 396 q 193 307 168 328 m 214 57 q 296 206 296 57 q 192 183 226 206 q 157 118 157 160 q 172 74 157 90 q 214 57 188 57 m 378 632 q 322 560 349 585 q 268 535 296 535 q 242 539 253 535 q 217 553 232 543 q 197 565 207 560 q 175 569 188 569 q 108 535 147 569 l 86 556 q 142 628 115 603 q 196 653 168 653 q 222 648 211 653 q 246 633 232 643 q 289 617 271 617 q 354 653 317 617 l 378 632 z "},"ä":{"ha":507,"x_min":33,"x_max":510,"o":"m 193 307 q 124 290 164 290 q 78 308 94 290 q 61 357 61 325 q 108 433 61 404 q 229 461 154 461 q 369 422 318 461 q 419 317 419 383 l 419 76 q 447 38 419 38 q 499 58 474 38 l 510 44 q 388 -12 458 -12 q 324 8 346 -12 q 299 74 303 29 l 293 74 q 234 10 271 33 q 150 -12 197 -12 q 65 20 97 -12 q 33 106 33 53 q 90 200 33 165 q 244 235 147 235 q 296 232 263 235 l 296 301 q 279 399 296 369 q 225 429 263 429 q 183 413 199 429 q 168 369 168 396 q 193 307 168 328 m 214 57 q 296 206 296 57 q 192 183 226 206 q 157 118 157 160 q 172 74 157 90 q 214 57 188 57 m 71 588 q 95 635 71 608 q 139 661 119 661 q 184 635 160 661 q 208 588 208 608 q 184 540 208 565 q 139 515 160 515 q 95 540 119 515 q 71 588 71 565 m 257 588 q 281 635 257 608 q 325 661 306 661 q 371 635 346 661 q 396 588 396 608 q 371 540 396 565 q 325 515 346 515 q 281 541 306 515 q 257 588 257 567 z "},"å":{"ha":507,"x_min":33,"x_max":510,"o":"m 193 307 q 124 290 164 290 q 78 308 94 290 q 61 357 61 325 q 108 433 61 404 q 229 461 154 461 q 369 422 318 461 q 419 317 419 383 l 419 76 q 447 38 419 38 q 499 58 474 38 l 510 44 q 388 -12 458 -12 q 324 8 346 -12 q 299 74 303 29 l 293 74 q 234 10 271 33 q 150 -12 197 -12 q 65 20 97 -12 q 33 106 33 53 q 90 200 33 165 q 244 235 147 235 q 296 232 263 235 l 296 301 q 279 399 296 369 q 225 429 263 429 q 183 413 199 429 q 168 369 168 396 q 193 307 168 328 m 214 57 q 296 206 296 57 q 192 183 226 206 q 157 118 157 160 q 172 74 157 90 q 214 57 188 57 m 232 494 q 151 522 179 494 q 122 594 122 550 q 151 667 122 639 q 232 694 179 694 q 317 667 288 694 q 346 594 346 639 q 317 522 346 550 q 232 494 288 494 m 232 521 q 258 542 249 521 q 267 594 267 563 q 258 647 267 626 q 232 668 249 668 q 208 647 217 668 q 199 594 199 626 q 208 542 199 564 q 232 521 217 521 z "},"æ":{"ha":743,"x_min":33,"x_max":714,"o":"m 563 33 q 635 50 606 33 q 692 97 665 67 l 708 85 q 632 15 679 42 q 521 -12 585 -12 q 396 26 450 -12 q 318 128 342 64 q 253 20 299 53 q 154 -12 208 -12 q 67 18 100 -12 q 33 106 33 49 q 88 199 33 164 q 244 235 143 235 q 296 232 278 235 l 296 301 q 279 399 296 369 q 225 429 263 429 q 183 413 199 429 q 168 369 168 396 q 193 307 168 328 q 124 290 164 290 q 78 308 94 290 q 61 357 61 325 q 108 433 61 404 q 229 461 154 461 q 382 411 331 461 q 536 461 443 461 q 665 424 615 461 q 714 329 714 386 q 663 235 714 274 q 504 197 611 197 q 432 203 485 197 q 472 80 438 126 q 563 33 506 33 m 521 428 q 455 374 479 428 q 431 231 431 321 l 431 222 q 469 225 444 222 q 564 261 535 232 q 593 332 593 290 q 574 400 593 372 q 521 428 554 428 m 232 63 q 278 106 261 72 q 296 210 296 139 q 157 124 157 210 q 169 78 157 94 q 200 60 181 63 l 211 58 q 232 63 221 58 z "},"ç":{"ha":467,"x_min":32,"x_max":442,"o":"m 296 33 q 367 49 338 33 q 424 93 397 64 l 440 82 q 364 14 411 40 q 254 -12 317 -12 l 239 -12 l 201 -58 l 206 -62 q 236 -58 218 -58 q 326 -84 288 -58 q 364 -158 364 -110 q 321 -237 364 -207 q 211 -267 278 -267 q 131 -249 164 -267 q 97 -200 97 -232 q 112 -163 97 -179 q 151 -147 126 -147 q 193 -156 176 -147 q 183 -173 188 -161 q 179 -197 179 -185 q 190 -230 179 -218 q 217 -242 200 -242 q 256 -217 242 -242 q 269 -161 269 -193 q 253 -107 269 -126 q 207 -87 236 -87 q 160 -101 183 -87 l 143 -85 l 206 -8 q 79 69 126 7 q 32 221 32 132 q 97 396 32 331 q 271 461 163 461 q 394 427 347 461 q 442 339 442 393 q 414 267 442 293 q 346 240 386 240 q 288 257 314 240 q 318 335 318 285 q 301 401 318 375 q 253 426 285 426 q 194 370 217 426 q 171 224 171 314 q 203 85 171 138 q 296 33 236 33 z "},"è":{"ha":479,"x_min":32,"x_max":450,"o":"m 297 33 q 368 48 338 33 q 428 97 399 63 l 444 85 q 363 13 413 39 q 256 -12 314 -12 q 141 18 192 -12 q 61 102 90 49 q 32 224 32 156 q 98 397 32 332 q 274 461 164 461 q 401 424 351 461 q 450 329 450 388 q 394 223 450 263 q 240 183 338 183 q 169 189 201 183 q 211 75 176 117 q 297 33 246 33 m 258 428 q 191 376 215 428 q 167 231 167 324 l 167 208 q 204 211 182 208 q 294 249 263 218 q 325 332 325 281 q 306 401 325 374 q 258 428 288 428 m 319 513 l 204 554 q 144 624 144 575 q 196 686 144 667 l 338 535 l 319 513 z "},"é":{"ha":479,"x_min":32,"x_max":450,"o":"m 297 33 q 368 48 338 33 q 428 97 399 63 l 444 85 q 363 13 413 39 q 256 -12 314 -12 q 141 18 192 -12 q 61 102 90 49 q 32 224 32 156 q 98 397 32 332 q 274 461 164 461 q 401 424 351 461 q 450 329 450 388 q 394 223 450 263 q 240 183 338 183 q 169 189 201 183 q 211 75 176 117 q 297 33 246 33 m 258 428 q 191 376 215 428 q 167 231 167 324 l 167 208 q 204 211 182 208 q 294 249 263 218 q 325 332 325 281 q 306 401 325 374 q 258 428 288 428 m 322 686 q 374 624 374 665 q 313 554 374 575 l 199 513 l 181 535 l 322 686 z "},"ê":{"ha":479,"x_min":32,"x_max":450,"o":"m 297 33 q 368 48 338 33 q 428 97 399 63 l 444 85 q 363 13 413 39 q 256 -12 314 -12 q 141 18 192 -12 q 61 102 90 49 q 32 224 32 156 q 98 397 32 332 q 274 461 164 461 q 401 424 351 461 q 450 329 450 388 q 394 223 450 263 q 240 183 338 183 q 169 189 201 183 q 211 75 176 117 q 297 33 246 33 m 258 428 q 191 376 215 428 q 167 231 167 324 l 167 208 q 204 211 182 208 q 294 249 263 218 q 325 332 325 281 q 306 401 325 374 q 258 428 288 428 m 374 513 l 260 590 l 146 513 l 125 531 q 182 622 151 581 q 236 682 213 663 l 283 682 q 394 531 329 646 l 374 513 z "},"ë":{"ha":479,"x_min":32,"x_max":450,"o":"m 297 33 q 368 48 338 33 q 428 97 399 63 l 444 85 q 363 13 413 39 q 256 -12 314 -12 q 141 18 192 -12 q 61 102 90 49 q 32 224 32 156 q 98 397 32 332 q 274 461 164 461 q 401 424 351 461 q 450 329 450 388 q 394 223 450 263 q 240 183 338 183 q 169 189 201 183 q 211 75 176 117 q 297 33 246 33 m 258 428 q 191 376 215 428 q 167 231 167 324 l 167 208 q 204 211 182 208 q 294 249 263 218 q 325 332 325 281 q 306 401 325 374 q 258 428 288 428 m 97 588 q 122 635 97 608 q 165 661 146 661 q 210 635 186 661 q 235 588 235 608 q 210 540 235 565 q 165 515 186 515 q 122 540 146 515 q 97 588 97 565 m 283 588 q 308 635 283 608 q 351 661 332 661 q 397 635 372 661 q 422 588 422 608 q 397 540 422 565 q 351 515 372 515 q 308 541 332 515 q 283 588 283 567 z "},"ì":{"ha":294,"x_min":15,"x_max":296,"o":"m 207 79 q 233 38 207 38 q 285 58 260 38 l 296 44 q 175 -12 244 -12 q 103 13 125 -12 q 81 97 81 39 l 81 372 q 63 392 81 392 l 19 392 l 15 407 q 85 446 43 431 q 168 461 126 461 q 196 453 185 461 q 207 431 207 444 l 207 79 m 207 513 l 92 554 q 32 624 32 575 q 83 686 32 667 l 225 535 l 207 513 z "},"í":{"ha":294,"x_min":15,"x_max":296,"o":"m 207 79 q 233 38 207 38 q 285 58 260 38 l 296 44 q 175 -12 244 -12 q 103 13 125 -12 q 81 97 81 39 l 81 372 q 63 392 81 392 l 19 392 l 15 407 q 85 446 43 431 q 168 461 126 461 q 196 453 185 461 q 207 431 207 444 l 207 79 m 210 686 q 261 624 261 665 q 200 554 261 575 l 86 513 l 68 535 l 210 686 z "},"î":{"ha":294,"x_min":13,"x_max":296,"o":"m 207 79 q 233 38 207 38 q 285 58 260 38 l 296 44 q 175 -12 244 -12 q 103 13 125 -12 q 81 97 81 39 l 81 372 q 63 392 81 392 l 19 392 l 15 407 q 85 446 43 431 q 168 461 126 461 q 196 453 185 461 q 207 431 207 444 l 207 79 m 261 513 l 147 590 l 33 513 l 13 531 q 69 622 39 581 q 124 682 100 663 l 171 682 q 282 531 217 646 l 261 513 z "},"ï":{"ha":294,"x_min":-15,"x_max":310,"o":"m 207 79 q 233 38 207 38 q 285 58 260 38 l 296 44 q 175 -12 244 -12 q 103 13 125 -12 q 81 97 81 39 l 81 372 q 63 392 81 392 l 19 392 l 15 407 q 85 446 43 431 q 168 461 126 461 q 196 453 185 461 q 207 431 207 444 l 207 79 m -15 588 q 9 635 -15 608 q 53 661 33 661 q 98 635 74 661 q 122 588 122 608 q 98 540 122 565 q 53 515 74 515 q 9 540 33 515 q -15 588 -15 565 m 171 588 q 195 635 171 608 q 239 661 219 661 q 285 635 260 661 q 310 588 310 608 q 285 540 310 565 q 239 515 260 515 q 195 541 219 515 q 171 588 171 567 z "},"ð":{"ha":547,"x_min":32,"x_max":513,"o":"m 415 588 q 487 431 461 521 q 513 243 513 340 q 450 54 513 121 q 272 -12 388 -12 q 97 49 161 -12 q 32 215 32 111 q 88 381 32 319 q 238 443 143 443 q 357 396 310 443 l 363 399 q 331 544 350 482 l 228 493 q 232 533 228 521 q 249 550 236 544 l 315 583 q 214 679 274 679 q 169 657 186 679 q 151 597 151 635 q 160 538 151 565 q 185 497 169 511 l 181 485 q 80 514 117 485 q 43 592 43 543 q 93 680 43 646 q 222 714 143 714 q 310 690 267 714 q 390 621 353 665 l 500 676 q 496 637 500 649 q 481 619 492 625 l 415 588 m 276 18 q 352 69 324 18 q 381 203 381 121 q 351 344 381 290 q 275 399 322 399 q 198 347 226 399 q 169 207 169 294 q 199 70 169 122 q 276 18 228 18 z "},"ñ":{"ha":613,"x_min":35,"x_max":604,"o":"m 515 79 q 542 38 515 38 q 593 58 568 38 l 604 44 q 483 -12 553 -12 q 412 13 433 -12 q 390 97 390 39 l 390 310 q 339 390 390 390 q 258 322 289 390 q 226 144 226 254 q 233 77 226 103 q 256 28 240 51 l 267 14 l 256 0 l 54 0 l 46 24 l 65 28 q 94 45 88 33 q 101 92 101 57 l 101 363 q 83 389 101 389 l 39 389 l 35 404 q 104 443 63 428 q 188 458 146 458 q 216 450 206 458 q 226 428 226 442 l 226 308 q 296 417 246 374 q 401 461 346 461 q 488 422 461 461 q 515 299 515 383 l 515 79 m 450 632 q 394 560 421 585 q 340 535 368 535 q 315 539 325 535 q 289 553 304 543 q 269 565 279 560 q 247 569 260 569 q 181 535 219 569 l 158 556 q 214 628 188 603 q 268 653 240 653 q 294 648 283 653 q 318 633 304 643 q 361 617 343 617 q 426 653 389 617 l 450 632 z "},"ò":{"ha":535,"x_min":32,"x_max":503,"o":"m 32 224 q 95 397 32 333 q 267 461 158 461 q 439 397 375 461 q 503 224 503 332 q 439 51 503 115 q 267 -12 375 -12 q 95 51 158 -12 q 32 224 32 115 m 363 221 q 336 373 363 314 q 269 432 310 432 q 197 374 225 432 q 169 224 169 317 q 195 74 169 129 q 264 18 221 18 q 335 74 307 18 q 363 221 363 131 m 326 513 l 211 554 q 151 624 151 575 q 203 686 151 667 l 344 535 l 326 513 z "},"ó":{"ha":535,"x_min":32,"x_max":503,"o":"m 32 224 q 95 397 32 333 q 267 461 158 461 q 439 397 375 461 q 503 224 503 332 q 439 51 503 115 q 267 -12 375 -12 q 95 51 158 -12 q 32 224 32 115 m 363 221 q 336 373 363 314 q 269 432 310 432 q 197 374 225 432 q 169 224 169 317 q 195 74 169 129 q 264 18 221 18 q 335 74 307 18 q 363 221 363 131 m 329 686 q 381 624 381 665 q 319 554 381 575 l 206 513 l 188 535 l 329 686 z "},"ô":{"ha":535,"x_min":32,"x_max":503,"o":"m 32 224 q 95 397 32 333 q 267 461 158 461 q 439 397 375 461 q 503 224 503 332 q 439 51 503 115 q 267 -12 375 -12 q 95 51 158 -12 q 32 224 32 115 m 363 221 q 336 373 363 314 q 269 432 310 432 q 197 374 225 432 q 169 224 169 317 q 195 74 169 129 q 264 18 221 18 q 335 74 307 18 q 363 221 363 131 m 381 513 l 267 590 l 153 513 l 132 531 q 189 622 158 581 q 243 682 219 663 l 290 682 q 401 531 336 646 l 381 513 z "},"õ":{"ha":535,"x_min":32,"x_max":503,"o":"m 32 224 q 95 397 32 333 q 267 461 158 461 q 439 397 375 461 q 503 224 503 332 q 439 51 503 115 q 267 -12 375 -12 q 95 51 158 -12 q 32 224 32 115 m 363 221 q 336 373 363 314 q 269 432 310 432 q 197 374 225 432 q 169 224 169 317 q 195 74 169 129 q 264 18 221 18 q 335 74 307 18 q 363 221 363 131 m 411 632 q 356 560 382 585 q 301 535 329 535 q 276 539 286 535 q 250 553 265 543 q 231 565 240 560 q 208 569 221 569 q 142 535 181 569 l 119 556 q 175 628 149 603 q 229 653 201 653 q 255 648 244 653 q 279 633 265 643 q 322 617 304 617 q 388 653 350 617 l 411 632 z "},"ö":{"ha":535,"x_min":32,"x_max":503,"o":"m 32 224 q 95 397 32 333 q 267 461 158 461 q 439 397 375 461 q 503 224 503 332 q 439 51 503 115 q 267 -12 375 -12 q 95 51 158 -12 q 32 224 32 115 m 363 221 q 336 373 363 314 q 269 432 310 432 q 197 374 225 432 q 169 224 169 317 q 195 74 169 129 q 264 18 221 18 q 335 74 307 18 q 363 221 363 131 m 104 588 q 128 635 104 608 q 172 661 153 661 q 217 635 193 661 q 242 588 242 608 q 217 540 242 565 q 172 515 193 515 q 128 540 153 515 q 104 588 104 565 m 290 588 q 315 635 290 608 q 358 661 339 661 q 404 635 379 661 q 429 588 429 608 q 404 540 429 565 q 358 515 379 515 q 315 541 339 515 q 290 588 290 567 z "},"÷":{"ha":563,"x_min":90,"x_max":472,"o":"m 217 482 q 240 526 217 501 q 282 551 263 551 q 324 526 300 551 q 347 482 347 501 q 324 437 347 461 q 282 413 301 413 q 240 437 263 413 q 217 482 217 461 m 472 357 l 472 288 l 90 288 l 90 357 l 472 357 m 217 163 q 240 207 217 182 q 282 232 263 232 q 324 207 300 232 q 347 163 347 182 q 324 117 347 142 q 282 93 301 93 q 240 117 263 93 q 217 163 217 142 z "},"ø":{"ha":535,"x_min":32,"x_max":503,"o":"m 389 433 q 473 351 443 406 q 503 224 503 297 q 439 51 503 115 q 267 -12 375 -12 q 189 -3 222 -12 l 163 -60 l 108 -60 l 143 17 q 60 98 89 44 q 32 224 32 151 q 95 397 32 333 q 267 461 158 461 q 340 453 307 461 l 368 513 l 425 513 l 389 433 m 169 224 q 183 106 169 151 l 318 404 q 269 432 297 432 q 197 374 225 432 q 169 224 169 317 m 264 18 q 335 74 307 18 q 363 221 363 131 q 347 343 363 290 l 211 46 q 264 18 232 18 z "},"ù":{"ha":596,"x_min":18,"x_max":586,"o":"m 372 126 q 305 26 353 65 q 203 -12 257 -12 q 113 26 142 -12 q 83 146 83 65 l 83 372 q 65 392 83 392 l 22 392 l 18 407 q 88 446 46 431 q 169 461 129 461 q 198 453 188 461 q 208 431 208 444 l 208 153 q 222 80 208 106 q 261 54 236 54 q 344 117 313 54 q 375 282 375 181 q 367 366 375 336 q 340 418 360 396 l 328 433 l 339 446 l 499 458 l 499 79 q 524 38 499 38 q 575 58 550 38 l 586 44 q 465 -12 538 -12 q 392 18 413 -12 q 372 126 372 49 m 357 513 l 242 554 q 182 624 182 575 q 233 686 182 667 l 375 535 l 357 513 z "},"ú":{"ha":596,"x_min":18,"x_max":586,"o":"m 372 126 q 305 26 353 65 q 203 -12 257 -12 q 113 26 142 -12 q 83 146 83 65 l 83 372 q 65 392 83 392 l 22 392 l 18 407 q 88 446 46 431 q 169 461 129 461 q 198 453 188 461 q 208 431 208 444 l 208 153 q 222 80 208 106 q 261 54 236 54 q 344 117 313 54 q 375 282 375 181 q 367 366 375 336 q 340 418 360 396 l 328 433 l 339 446 l 499 458 l 499 79 q 524 38 499 38 q 575 58 550 38 l 586 44 q 465 -12 538 -12 q 392 18 413 -12 q 372 126 372 49 m 360 686 q 411 624 411 665 q 350 554 411 575 l 236 513 l 218 535 l 360 686 z "},"û":{"ha":596,"x_min":18,"x_max":586,"o":"m 372 126 q 305 26 353 65 q 203 -12 257 -12 q 113 26 142 -12 q 83 146 83 65 l 83 372 q 65 392 83 392 l 22 392 l 18 407 q 88 446 46 431 q 169 461 129 461 q 198 453 188 461 q 208 431 208 444 l 208 153 q 222 80 208 106 q 261 54 236 54 q 344 117 313 54 q 375 282 375 181 q 367 366 375 336 q 340 418 360 396 l 328 433 l 339 446 l 499 458 l 499 79 q 524 38 499 38 q 575 58 550 38 l 586 44 q 465 -12 538 -12 q 392 18 413 -12 q 372 126 372 49 m 411 513 l 297 590 l 183 513 l 163 531 q 219 622 189 581 q 274 682 250 663 l 321 682 q 432 531 367 646 l 411 513 z "},"ü":{"ha":596,"x_min":18,"x_max":586,"o":"m 372 126 q 305 26 353 65 q 203 -12 257 -12 q 113 26 142 -12 q 83 146 83 65 l 83 372 q 65 392 83 392 l 22 392 l 18 407 q 88 446 46 431 q 169 461 129 461 q 198 453 188 461 q 208 431 208 444 l 208 153 q 222 80 208 106 q 261 54 236 54 q 344 117 313 54 q 375 282 375 181 q 367 366 375 336 q 340 418 360 396 l 328 433 l 339 446 l 499 458 l 499 79 q 524 38 499 38 q 575 58 550 38 l 586 44 q 465 -12 538 -12 q 392 18 413 -12 q 372 126 372 49 m 135 588 q 159 635 135 608 q 203 661 183 661 q 248 635 224 661 q 272 588 272 608 q 248 540 272 565 q 203 515 224 515 q 159 540 183 515 q 135 588 135 565 m 321 588 q 345 635 321 608 q 389 661 369 661 q 435 635 410 661 q 460 588 460 608 q 435 540 460 565 q 389 515 410 515 q 345 541 369 515 q 321 588 321 567 z "},"ý":{"ha":564,"x_min":18,"x_max":486,"o":"m 486 458 l 486 0 q 423 -170 486 -110 q 247 -231 360 -231 q 135 -204 178 -231 q 92 -135 92 -178 q 114 -74 92 -97 q 172 -51 136 -51 q 224 -62 199 -51 q 199 -131 199 -87 q 217 -181 199 -161 q 265 -200 236 -200 q 363 -42 363 -200 l 363 135 q 299 48 344 82 q 203 14 254 14 q 113 51 142 14 q 83 165 83 89 l 83 372 q 65 392 83 392 l 22 392 l 18 407 q 88 446 44 431 q 169 461 131 461 q 198 453 188 461 q 208 431 208 444 l 208 150 q 257 72 208 72 q 333 129 304 72 q 363 281 363 186 q 354 363 363 331 q 328 418 346 394 l 317 433 l 326 446 l 486 458 m 344 686 q 396 624 396 665 q 335 554 396 575 l 221 513 l 203 535 l 344 686 z "},"þ":{"ha":554,"x_min":15,"x_max":522,"o":"m 364 461 q 478 399 435 461 q 522 238 522 338 q 497 110 522 167 q 424 23 471 54 q 319 -8 378 -8 q 256 2 286 -8 q 206 31 226 13 l 206 -126 q 215 -172 206 -160 q 257 -190 224 -183 l 275 -194 l 267 -218 l 51 -218 l 40 -204 l 51 -190 q 74 -142 68 -168 q 81 -74 81 -117 l 81 588 q 76 606 81 599 q 63 613 71 613 l 19 613 l 15 626 q 83 666 40 651 q 167 681 125 681 q 195 673 185 681 q 206 651 206 665 l 206 365 q 278 438 240 415 q 364 461 317 461 m 267 32 q 353 81 324 32 q 383 224 383 129 q 361 349 383 306 q 297 393 339 393 q 206 319 242 393 l 206 50 q 267 32 232 32 z "},"ÿ":{"ha":564,"x_min":18,"x_max":486,"o":"m 486 458 l 486 0 q 423 -170 486 -110 q 247 -231 360 -231 q 135 -204 178 -231 q 92 -135 92 -178 q 114 -74 92 -97 q 172 -51 136 -51 q 224 -62 199 -51 q 199 -131 199 -87 q 217 -181 199 -161 q 265 -200 236 -200 q 363 -42 363 -200 l 363 135 q 299 48 344 82 q 203 14 254 14 q 113 51 142 14 q 83 165 83 89 l 83 372 q 65 392 83 392 l 22 392 l 18 407 q 88 446 44 431 q 169 461 131 461 q 198 453 188 461 q 208 431 208 444 l 208 150 q 257 72 208 72 q 333 129 304 72 q 363 281 363 186 q 354 363 363 331 q 328 418 346 394 l 317 433 l 326 446 l 486 458 m 119 588 q 144 635 119 608 q 188 661 168 661 q 233 635 208 661 q 257 588 257 608 q 233 540 257 565 q 188 515 208 515 q 144 540 168 515 q 119 588 119 565 m 306 588 q 330 635 306 608 q 374 661 354 661 q 419 635 394 661 q 444 588 444 608 q 419 540 444 565 q 374 515 394 515 q 330 541 354 515 q 306 588 306 567 z "},"؀":{"ha":700,"x_min":-167,"x_max":1244,"o":"m 983 -1 q 1108 15 1040 1 q 1244 50 1165 28 l 1179 -103 q 988 -153 1049 -139 q 760 -181 861 -181 l -75 -181 l -167 -26 q 118 -33 -67 -33 l 750 -33 q 813 -28 792 -33 q 787 26 799 -12 q 775 103 775 65 q 818 215 790 172 q 975 311 878 311 q 1086 275 1035 311 q 1164 179 1131 243 l 1124 126 q 1049 169 1081 156 q 982 182 1018 182 q 897 162 931 182 q 847 122 863 142 q 919 40 879 72 q 983 -1 954 13 z "},"؁":{"ha":851,"x_min":-854,"x_max":1615,"o":"m 1615 21 q 1606 -54 1615 -15 q 1590 -85 1603 -62 q 1563 -129 1578 -108 q 1499 -186 1524 -186 q 1404 -158 1442 -186 q 1354 -90 1375 -136 q 1304 -161 1344 -135 q 1206 -187 1265 -187 q 1104 -150 1142 -187 q 1068 -89 1083 -129 q 1053 -124 1065 -106 q 1025 -157 1042 -143 q 925 -194 985 -194 l -69 -194 q -162 -165 -126 -194 q -197 -118 -186 -144 q -206 -137 -199 -125 q -228 -161 -214 -150 q -343 -194 -267 -194 l -433 -194 q -565 -144 -521 -194 q -599 -74 -585 -121 q -611 -37 -610 -42 q -694 22 -639 25 q -744 8 -719 22 q -789 -29 -769 -6 q -808 -58 -797 -39 q -776 -99 -793 -79 q -703 -156 -756 -119 l -669 -179 q -610 -239 -631 -208 q -589 -310 -589 -269 l -589 -421 l -596 -421 q -629 -372 -607 -393 q -674 -334 -651 -350 q -704 -312 -697 -318 q -739 -288 -708 -310 q -787 -251 -769 -267 q -843 -176 -826 -218 q -854 -125 -851 -157 l -854 -21 q -808 107 -854 51 q -753 155 -783 138 q -694 172 -722 172 q -625 133 -653 172 q -606 97 -612 118 q -599 71 -600 75 q -575 13 -587 29 q -433 -47 -533 -47 l -317 -47 q -228 -18 -260 -47 q -202 18 -210 -1 q -190 61 -194 38 l -169 50 q -146 -24 -174 0 q -64 -47 -121 -47 l 918 -47 q 1031 1 992 -47 q 1056 53 1049 25 q 1063 103 1063 81 l 1083 93 q 1104 10 1083 43 q 1211 -40 1139 -40 q 1308 0 1274 -40 q 1344 103 1340 36 l 1365 93 q 1424 -21 1369 10 q 1500 -36 1453 -36 q 1516 -35 1510 -36 q 1524 -35 1522 -35 q 1500 81 1525 4 l 1574 176 q 1604 114 1593 157 q 1615 21 1615 71 z "},"؂":{"ha":833,"x_min":-321,"x_max":1008,"o":"m 724 -47 q 1008 -40 908 -47 l 917 -194 l -53 -194 q -319 38 -319 -194 l -321 94 q -226 251 -321 251 q -171 238 -197 251 q -126 207 -144 225 q -74 54 -71 151 l -75 17 q -79 -15 -75 3 q -90 -47 -83 -33 l 724 -47 m -167 -12 q -133 8 -147 -6 q -110 32 -118 21 q -101 46 -103 43 q -151 92 -122 76 q -210 107 -179 107 q -248 101 -231 107 q -275 90 -265 96 q -287 81 -285 83 q -238 25 -268 47 q -167 -12 -208 3 z "},"؃":{"ha":833,"x_min":-144,"x_max":1617,"o":"m 1558 151 q 1617 50 1592 118 q 1578 -49 1599 -12 q 1517 -121 1557 -86 q 1403 -184 1471 -160 q 1250 -208 1336 -208 q 1088 -194 1189 -208 l 1057 -249 l 1028 -218 l 1047 -178 q 1015 -152 1025 -164 q 992 -118 1004 -140 q 951 -169 982 -144 q 846 -194 919 -194 l -53 -194 l -144 -40 q 140 -47 -44 -47 l 871 -47 q 968 -10 936 -47 q 988 24 982 7 q 999 61 994 40 l 1019 50 q 1033 -15 1019 4 q 1066 -39 1044 -31 q 1110 -47 1088 -47 q 1218 89 1158 31 q 1323 168 1268 138 q 1429 199 1378 199 q 1558 151 1508 199 m 1435 -35 q 1485 -14 1471 -24 q 1513 10 1499 -4 q 1503 27 1513 13 q 1476 54 1493 42 q 1393 82 1442 82 q 1236 22 1310 82 q 1188 -24 1208 1 q 1168 -53 1168 -50 l 1285 -53 q 1435 -35 1372 -53 z "},"؄":{"ha":1192,"x_min":-208,"x_max":2094,"o":"m 2094 150 q 2085 75 2094 114 q 2069 44 2082 67 q 2042 0 2057 21 q 1978 -57 2003 -57 q 1883 -29 1921 -57 q 1833 39 1854 -7 q 1797 -28 1828 3 q 1715 -58 1764 -58 q 1638 -37 1668 -58 q 1586 19 1607 -15 q 1556 68 1568 51 q 1524 97 1544 85 q 1472 110 1503 110 q 1422 89 1447 110 q 1382 42 1397 68 q 1410 8 1393 18 q 1456 -12 1428 -3 q 1477 -19 1460 -14 q 1509 -33 1494 -25 q 1533 -50 1524 -40 l 1508 -224 q 1388 -182 1454 -182 q 1329 -186 1358 -182 q 1297 -188 1318 -186 q 1260 -190 1276 -190 l -114 -190 l -208 -37 q 28 -43 -111 -43 l 89 -43 l 1217 -43 q 1299 -15 1264 -43 q 1310 65 1299 24 q 1360 158 1325 113 q 1420 219 1388 196 q 1486 242 1453 242 q 1536 226 1517 242 q 1571 183 1556 211 q 1602 135 1590 151 q 1628 108 1614 119 q 1704 89 1656 89 q 1797 142 1765 89 q 1824 232 1819 178 l 1844 222 q 1903 108 1849 139 q 1979 93 1932 93 q 1995 94 1989 93 q 2003 94 2001 94 q 1979 210 2004 133 l 2053 306 q 2083 243 2072 286 q 2094 150 2094 200 z "},"؆":{"ha":897,"x_min":69,"x_max":828,"o":"m 828 508 l 806 450 l 711 450 l 489 0 l 471 0 l 69 929 l 89 947 l 164 947 l 469 235 l 606 508 l 828 508 m 610 815 q 608 779 610 794 q 592 735 603 749 q 557 717 576 717 q 525 729 538 717 q 518 722 524 728 q 504 711 513 715 q 471 704 494 704 q 479 638 472 696 q 483 563 483 603 q 476 526 483 544 q 467 503 469 508 l 463 503 q 442 642 454 590 q 425 694 435 668 q 411 732 415 719 q 407 756 407 747 q 413 779 407 768 l 433 821 q 439 808 433 821 q 453 789 444 799 q 494 767 472 767 q 522 783 515 767 q 531 821 528 799 l 543 815 q 547 789 543 800 q 571 775 553 775 q 591 791 585 775 q 597 821 597 807 l 610 815 z "},"؇":{"ha":897,"x_min":69,"x_max":828,"o":"m 828 508 l 806 450 l 711 450 l 489 0 l 471 0 l 69 929 l 89 947 l 164 947 l 469 235 l 606 508 l 828 508 m 556 547 q 518 529 533 535 q 481 524 503 524 q 428 547 444 524 q 411 603 411 569 q 422 649 411 629 q 446 679 432 668 q 415 699 426 689 q 403 731 403 708 q 433 803 403 775 q 477 826 453 819 q 507 835 501 833 l 500 783 q 469 769 493 781 q 429 744 446 758 q 439 736 431 743 q 464 725 447 729 q 507 719 486 719 q 529 721 521 719 l 522 679 q 466 646 488 663 q 433 606 444 629 q 481 582 446 582 q 556 604 518 582 l 556 547 z "},"؈":{"ha":972,"x_min":97,"x_max":903,"o":"m 715 147 q 903 218 804 153 l 903 71 q 828 24 876 43 q 735 0 779 4 q 736 -39 736 -12 q 708 -167 736 -110 q 636 -260 679 -224 q 426 -332 551 -332 q 312 -312 363 -332 q 226 -261 261 -293 q 166 -168 183 -221 q 149 -68 149 -115 q 171 78 149 11 l 176 94 q 97 26 135 68 l 97 99 l 228 181 l 250 158 q 217 100 232 138 q 203 22 203 63 q 219 -53 203 -14 q 276 -121 235 -92 q 449 -168 343 -168 q 598 -132 543 -168 q 672 -47 653 -96 l 658 0 l 567 0 q 465 29 504 0 q 433 76 442 49 q 428 128 425 104 l 440 250 q 476 319 444 286 q 554 353 507 353 q 661 292 618 353 q 715 147 700 238 m 617 147 q 590 204 608 178 q 542 231 572 231 q 508 220 522 231 q 485 199 493 210 q 476 183 478 188 q 485 161 476 175 q 524 147 494 147 l 617 147 z "},"؉":{"ha":833,"x_min":0,"x_max":0,"o":""},"؊":{"ha":833,"x_min":0,"x_max":0,"o":""},"؋":{"ha":617,"x_min":49,"x_max":533,"o":"m 361 656 q 410 621 385 643 q 449 579 436 599 q 419 540 436 561 q 376 494 403 519 q 288 569 319 551 q 361 656 346 635 m 533 253 q 494 107 533 175 q 496 74 496 96 q 492 26 496 47 q 488 0 489 6 q 467 69 483 42 q 389 17 436 35 q 299 0 342 0 l 49 0 l 104 147 l 318 147 q 371 151 347 149 q 403 154 394 153 q 331 203 381 183 q 276 217 307 213 q 236 224 246 222 l 236 317 q 273 412 236 378 q 369 446 310 446 q 482 401 440 446 q 519 338 506 376 q 533 253 533 299 m 469 190 q 478 233 478 207 q 471 272 478 257 q 450 301 464 288 q 397 322 429 322 q 322 300 360 322 q 390 272 358 292 q 469 190 446 238 m 350 -300 q 357 -254 357 -286 q 351 -203 357 -231 q 319 -133 344 -165 l 356 -72 q 393 -149 385 -112 q 399 -201 399 -174 q 382 -300 399 -250 l 350 -300 z "},"،":{"ha":200,"x_min":24,"x_max":186,"o":"m 167 13 q 97 -3 138 -3 q 44 15 64 -3 q 24 69 24 32 q 43 135 24 103 q 106 218 63 168 l 149 265 l 186 240 l 146 150 q 133 103 133 125 q 157 56 133 75 l 174 44 l 178 18 l 167 13 z "},"؎":{"ha":890,"x_min":56,"x_max":835,"o":"m 104 181 q 129 190 118 190 l 135 189 q 144 226 135 211 q 165 244 153 240 q 163 257 163 253 q 164 269 163 264 q 167 275 165 274 q 175 265 167 272 q 200 257 183 257 q 221 253 210 257 q 230 267 224 261 q 244 272 236 272 q 264 263 257 272 l 264 261 q 267 258 267 261 q 269 246 269 254 q 260 224 269 232 l 267 217 l 282 257 q 279 268 279 261 q 286 287 279 279 q 303 294 293 294 l 311 293 q 364 313 335 313 l 367 313 q 421 294 389 313 q 444 306 428 306 q 469 294 463 306 q 524 313 501 313 l 526 313 q 579 293 553 313 l 588 294 q 604 287 597 294 q 611 268 611 279 q 608 257 611 261 l 624 217 l 631 224 q 621 246 621 232 q 624 258 621 254 q 626 261 624 261 l 626 263 q 644 272 633 272 q 660 267 654 272 q 669 253 667 261 q 690 257 681 257 q 716 265 708 257 q 724 275 724 272 q 726 269 725 274 q 728 258 728 265 q 724 244 728 251 q 746 226 736 240 q 756 189 756 211 l 761 190 q 786 181 771 190 l 835 146 l 786 111 q 761 101 771 101 l 756 103 q 746 67 756 82 q 724 47 736 51 q 728 33 728 42 q 726 22 728 26 q 724 17 725 18 q 716 27 724 19 q 690 35 708 35 q 669 39 681 35 q 660 25 667 31 q 644 19 654 19 q 626 29 633 19 l 626 31 q 624 33 624 31 q 621 46 621 38 q 631 68 621 60 l 624 75 l 608 35 q 611 24 611 31 q 604 5 611 13 q 588 -3 597 -3 l 579 -1 q 526 -21 553 -21 l 524 -21 q 469 -3 501 -21 q 444 -14 463 -14 q 421 -3 428 -14 q 367 -21 389 -21 l 364 -21 q 311 -1 335 -21 l 303 -3 q 286 5 293 -3 q 279 24 279 13 q 282 35 279 31 l 267 75 l 260 68 q 269 46 269 60 q 267 33 269 38 q 264 31 267 31 l 264 29 q 244 19 257 19 q 230 25 236 19 q 221 39 224 31 q 200 35 211 35 q 175 27 183 35 q 167 17 167 19 q 164 23 165 18 q 163 35 163 28 q 165 47 163 39 q 144 67 153 51 q 135 103 135 82 l 129 101 q 104 111 118 101 l 56 146 l 104 181 m 444 213 q 458 268 458 244 q 444 289 458 289 q 432 267 432 289 q 444 213 432 249 m 336 276 q 346 257 340 271 q 358 261 353 261 q 371 258 365 261 q 378 253 376 254 q 374 249 376 253 q 371 242 371 246 q 382 226 374 233 q 403 196 403 213 q 393 176 403 186 q 415 165 399 175 q 428 188 424 174 q 432 218 432 203 q 421 214 428 214 q 406 221 413 214 q 393 242 400 228 q 374 269 383 260 q 349 278 365 278 l 336 276 m 458 218 q 463 188 458 203 q 475 165 467 174 q 496 176 489 175 q 488 196 488 185 q 508 226 488 213 q 518 242 518 235 q 516 249 518 246 q 513 253 514 253 q 519 258 514 254 q 532 261 525 261 q 544 257 539 261 q 554 276 550 271 l 540 278 q 516 269 525 278 q 496 242 507 261 q 468 214 483 214 q 458 218 463 214 m 300 179 q 311 192 301 185 q 331 201 321 200 q 324 231 325 211 q 322 251 324 246 q 304 242 315 242 l 303 242 l 303 239 q 308 230 303 233 q 317 226 314 226 q 312 205 317 217 q 289 193 307 193 l 300 179 m 560 201 q 578 192 569 200 q 590 179 588 185 l 601 193 q 578 205 583 193 q 574 226 574 217 q 583 230 576 226 q 588 242 589 233 l 586 242 q 568 251 574 242 q 565 231 565 240 q 560 201 565 213 m 156 182 q 157 169 156 175 q 197 183 176 183 q 242 167 222 183 l 253 189 q 200 229 229 229 q 183 226 192 229 q 175 217 175 222 q 189 206 175 206 q 181 194 189 203 q 164 186 174 185 l 156 188 l 156 182 m 649 167 q 693 183 665 183 q 733 169 714 183 q 734 181 735 175 q 733 188 733 186 q 726 186 731 186 q 709 194 717 186 q 701 206 701 203 q 715 217 715 206 q 706 226 714 222 q 690 229 699 229 q 638 189 661 229 l 649 167 m 418 146 q 428 131 421 143 q 444 103 436 119 q 461 131 453 119 q 472 146 469 143 q 461 160 469 149 q 444 189 453 172 q 428 160 436 172 q 418 146 421 149 m 250 146 q 258 134 253 143 q 268 117 264 125 l 288 146 l 268 176 q 258 158 264 167 q 250 146 253 149 m 622 117 q 632 134 626 125 q 640 146 638 143 q 632 158 638 149 q 622 176 626 167 l 603 146 l 622 117 m 163 146 q 176 138 165 143 q 199 132 186 132 q 226 138 215 132 q 236 146 236 144 q 226 153 236 147 q 199 160 215 160 q 176 154 186 160 q 163 146 165 149 m 308 146 q 326 138 313 143 q 356 132 340 132 q 391 138 376 132 q 406 146 406 144 q 391 153 406 147 q 356 160 376 160 q 326 154 340 160 q 308 146 313 149 m 483 146 q 499 138 483 144 q 535 132 514 132 q 564 138 550 132 q 582 146 578 143 q 564 154 578 149 q 535 160 550 160 q 499 153 514 160 q 483 146 483 147 m 654 146 q 665 138 654 144 q 692 132 675 132 q 714 138 704 132 q 726 146 724 143 q 714 154 724 149 q 692 160 704 160 q 665 153 675 160 q 654 146 654 147 m 89 146 q 100 140 92 144 q 121 135 108 135 q 139 140 132 135 q 147 146 146 144 q 139 152 146 147 q 121 157 132 157 q 100 152 108 157 q 89 146 92 147 m 743 146 q 751 140 744 144 q 768 135 758 135 q 790 140 781 135 q 801 146 799 144 q 790 152 799 147 q 768 157 781 157 q 751 152 758 157 q 743 146 744 147 m 349 14 q 374 23 365 14 q 393 50 383 32 q 406 71 400 64 q 421 78 413 78 q 432 74 428 78 q 428 103 432 89 q 415 126 424 118 q 393 115 399 117 q 403 96 403 106 q 393 74 403 82 q 382 65 383 67 q 371 50 374 58 q 374 42 371 46 q 378 39 376 39 q 371 34 376 38 q 358 31 365 31 q 346 35 353 31 q 336 15 340 21 l 349 14 m 458 74 q 468 78 463 78 q 496 50 483 78 q 516 22 507 31 q 540 14 525 14 l 554 15 q 544 35 550 21 q 532 31 539 31 q 519 34 525 31 q 513 39 514 38 q 516 42 514 39 q 518 50 518 46 q 508 65 518 57 q 497 74 507 67 q 488 96 488 82 q 496 115 488 107 q 475 126 489 117 q 463 103 467 118 q 458 74 458 89 m 164 106 l 165 106 q 189 86 179 106 q 175 75 175 86 q 183 66 175 69 q 200 63 192 63 q 253 103 229 63 l 242 125 q 197 108 224 108 q 157 122 176 108 q 156 111 156 115 l 156 104 l 164 106 m 638 103 q 690 63 661 63 q 706 66 699 63 q 715 75 714 69 q 701 86 715 86 q 709 98 701 89 q 726 106 717 107 q 733 104 731 106 q 734 111 733 106 q 733 122 735 117 q 693 108 714 108 q 649 125 665 108 l 638 103 m 289 99 q 312 87 307 99 q 317 65 317 75 q 308 62 314 65 q 303 50 301 58 l 304 50 q 322 40 315 50 q 324 61 324 47 q 331 90 325 81 q 311 99 321 92 q 300 113 301 107 l 289 99 m 560 90 q 565 61 565 79 q 568 40 565 54 q 586 50 574 50 l 588 50 l 588 53 q 582 62 588 58 q 574 65 576 65 q 578 87 574 75 q 601 99 583 99 l 590 113 q 578 99 588 107 q 560 90 569 92 m 444 72 q 432 17 432 38 q 444 -4 432 -4 q 458 18 458 -4 q 444 72 458 40 z "},"؏":{"ha":793,"x_min":96,"x_max":724,"o":"m 546 -47 q 676 -105 629 -47 q 724 -243 724 -162 q 698 -358 724 -301 q 624 -454 672 -415 q 443 -514 554 -514 q 365 -507 411 -514 l 360 -579 l 296 -543 l 297 -489 q 160 -392 215 -464 q 113 -299 129 -350 q 96 -193 96 -247 q 144 -7 96 -90 q 246 113 182 58 q 174 208 196 157 q 154 307 154 251 q 197 415 169 369 q 354 507 257 507 q 465 472 415 507 q 507 433 489 454 q 543 381 525 413 l 503 329 q 431 371 461 358 q 361 383 400 383 q 277 364 310 383 q 226 325 244 344 q 299 247 257 281 q 336 221 313 236 q 378 196 360 206 l 624 256 l 560 113 q 500 97 549 110 q 399 63 451 83 q 307 18 347 43 q 179 -176 179 -60 q 210 -272 179 -228 q 308 -333 240 -317 q 387 -133 326 -218 q 546 -47 447 -47 m 546 -115 q 446 -169 483 -115 q 394 -282 408 -222 q 379 -357 379 -342 q 461 -365 421 -365 q 590 -328 544 -365 q 631 -275 618 -306 q 642 -214 644 -244 q 615 -144 640 -172 q 546 -115 589 -115 z "},"ؐ":{"ha":0,"x_min":-117,"x_max":124,"o":"m 58 1169 q 99 1157 83 1169 q 124 1118 114 1144 q 110 1085 117 1097 q 89 1060 103 1072 q -3 1029 53 1029 q -58 1035 -19 1029 q -54 1001 -54 1021 q -56 982 -54 989 l -68 975 q -103 1049 -78 1008 q -114 1074 -111 1061 q -116 1097 -117 1088 q -115 1108 -115 1106 l -104 1119 q -86 1094 -97 1100 q -53 1085 -78 1088 q -15 1129 -39 1107 q 21 1158 1 1147 q 58 1169 40 1169 m 13 1083 q 82 1092 61 1083 q 106 1110 103 1101 q 101 1117 104 1111 q 90 1129 97 1124 q 57 1139 71 1139 q -14 1111 22 1139 q -30 1093 -24 1100 q -37 1083 -36 1086 l 13 1083 z "},"ؑ":{"ha":0,"x_min":-100,"x_max":103,"o":"m 103 1126 l 81 1076 q 37 1059 72 1074 q -29 1044 1 1044 q -44 1046 -39 1044 q -37 1003 -37 1025 q -39 983 -37 989 l -51 976 q -86 1050 -61 1010 q -97 1076 -94 1063 q -99 1098 -100 1089 q -99 1110 -99 1107 l -87 1121 q -69 1096 -81 1101 q -36 1086 -58 1089 q -51 1110 -46 1096 q -58 1143 -58 1124 q -43 1181 -54 1161 q 11 1213 -25 1213 q 49 1200 31 1213 q 75 1169 64 1190 l 61 1151 q 13 1169 38 1169 q -33 1150 -14 1169 q -8 1124 -24 1135 q 18 1106 1 1114 l 103 1126 z "},"ؒ":{"ha":0,"x_min":-154,"x_max":157,"o":"m 36 1157 q 13 1155 31 1157 q -26 1147 -6 1153 q -90 1114 -61 1138 l -89 1106 q -90 1097 -89 1100 q -92 1093 -92 1094 l -99 1106 q -119 1074 -111 1093 q -128 1036 -128 1056 q -124 1008 -128 1021 l -151 989 q -154 1021 -154 1008 q -114 1124 -154 1083 q -135 1142 -124 1133 q -150 1153 -146 1150 l -150 1175 q -139 1210 -150 1194 q -99 1229 -122 1229 q -44 1219 -81 1229 q 0 1209 -19 1213 q 36 1206 19 1206 l 54 1204 l 36 1157 m 157 1110 q 144 1054 157 1082 q 115 1017 133 1029 q 81 1003 100 1007 q 24 999 63 999 l 24 1049 q 53 1050 28 1049 q 96 1063 78 1051 q 131 1118 125 1079 q 93 1149 121 1129 q 88 1167 83 1156 l 103 1206 q 143 1166 129 1192 q 157 1110 157 1140 m -99 1138 q -36 1175 -71 1164 l -67 1181 q -101 1186 -94 1186 q -122 1182 -114 1186 q -132 1172 -129 1178 q -99 1138 -108 1153 z "},"ؓ":{"ha":0,"x_min":-175,"x_max":172,"o":"m 17 1257 q -8 1228 6 1240 q -37 1253 -24 1244 q -12 1282 -17 1278 q 17 1257 7 1272 m -3 1203 q 38 1190 22 1203 q 61 1153 53 1178 q 49 1119 56 1132 q 28 1094 42 1106 q -64 1065 -7 1065 q -118 1069 -89 1065 q -114 1036 -114 1056 q -115 1017 -114 1024 l -126 1010 q -161 1083 -136 1043 q -172 1109 -169 1096 q -174 1131 -175 1122 q -174 1142 -174 1139 l -162 1153 q -146 1128 -157 1138 q -112 1119 -137 1122 q -76 1163 -99 1142 q -3 1203 -36 1203 m 172 1108 q 161 1054 172 1083 q 131 1018 150 1031 q 99 1004 117 1008 q 40 1000 81 1000 l 40 1049 q 69 1050 44 1049 q 113 1063 94 1051 q 146 1117 142 1081 q 110 1147 139 1125 q 104 1164 100 1154 l 119 1203 q 158 1164 144 1189 q 172 1108 172 1139 m -51 1117 q 3 1124 -12 1117 q 26 1139 18 1131 q 22 1145 25 1140 q 13 1154 18 1150 q -15 1163 3 1163 q -72 1139 -46 1163 q -86 1125 -81 1132 q -93 1117 -92 1118 l -51 1117 z "},"ؔ":{"ha":0,"x_min":-143,"x_max":149,"o":"m 149 1064 q 144 1021 149 1033 q 130 992 143 1013 q 108 972 117 972 q 73 981 88 972 q 54 1001 58 989 q -4 972 43 972 l -143 972 l -122 1029 l -7 1029 q 27 1036 15 1029 q 43 1058 39 1043 q 57 1064 46 1058 q 78 1032 60 1042 q 103 1025 94 1025 q 128 1035 118 1025 q 138 1060 138 1046 l 149 1064 z "},"ؕ":{"ha":0,"x_min":-131,"x_max":118,"o":"m -131 1028 q -110 1026 -125 1028 q -81 1025 -96 1025 l -50 1026 q -29 1054 -36 1047 q -35 1147 -29 1110 q -56 1222 -42 1193 l -62 1229 l -62 1235 q -60 1254 -62 1247 q -53 1268 -58 1261 q -37 1275 -47 1275 q -8 1236 -28 1251 q -18 1218 -18 1231 q -17 1207 -18 1211 q -4 1144 -7 1163 q -3 1122 -3 1138 q -10 1076 -3 1100 q 57 1108 28 1108 q 100 1090 82 1108 q 118 1058 110 1078 q 114 1045 117 1056 q 104 1025 111 1035 q 74 996 93 1008 q -1 978 49 978 l -100 976 l -131 1028 m 11 1021 q 100 1046 71 1021 q 94 1055 97 1049 q 86 1063 90 1061 q 53 1074 75 1074 q -10 1050 19 1074 q -28 1033 -19 1042 q -37 1021 -36 1024 l 11 1021 z "},"ؖ":{"ha":0,"x_min":-156,"x_max":119,"o":"m 50 1194 q 51 1178 50 1192 q 53 1140 53 1165 l 53 1124 q 51 1104 53 1108 q 18 1081 44 1081 l -33 1081 l -85 1082 q -126 1078 -114 1082 q -143 1065 -140 1074 q -115 1054 -142 1054 l -60 1054 q -36 1043 -43 1054 q -31 1030 -33 1038 q -26 1018 -29 1022 q 3 1010 -18 1010 l 17 1010 q 50 1013 28 1010 l 28 974 l -3 974 q -17 978 -12 974 q -26 996 -21 983 q -58 1017 -35 1015 l -126 1017 q -146 1022 -135 1017 q -156 1040 -156 1029 l -153 1072 q -149 1086 -153 1078 q -140 1103 -146 1094 q -106 1118 -125 1118 l 13 1117 q 26 1120 21 1117 q 33 1125 32 1124 q 26 1199 33 1136 q 14 1278 21 1250 l 10 1283 l 10 1289 q 11 1301 10 1297 q 29 1318 17 1317 q 50 1288 36 1297 q 43 1278 44 1282 q 43 1265 42 1274 q 46 1239 43 1263 q 50 1194 49 1215 m 118 1163 q 119 1139 119 1156 q 118 1114 119 1122 q 113 1094 118 1106 q 107 1085 110 1089 q 103 1081 104 1082 l 100 1081 l 97 1139 q 92 1207 94 1186 l 85 1264 l 85 1271 q 90 1294 85 1286 l 108 1318 l 119 1282 l 111 1283 l 115 1218 l 118 1163 z "},"ؗ":{"ha":0,"x_min":-67,"x_max":67,"o":"m 36 1257 q 11 1228 15 1232 q -19 1253 -7 1246 q 6 1283 -6 1267 q 22 1272 14 1279 q 36 1257 31 1264 m 65 1117 q 54 1056 67 1086 q 25 1018 43 1032 q -10 1004 10 1008 q -67 1000 -31 1000 l -67 1050 q 6 1064 -15 1050 q 39 1118 33 1078 q 3 1147 35 1122 q -3 1164 -7 1154 l 13 1203 q 65 1117 58 1176 z "},"؛":{"ha":215,"x_min":32,"x_max":200,"o":"m 181 263 q 111 247 151 247 q 58 265 78 247 q 38 319 38 282 q 57 385 38 353 q 119 468 76 418 l 163 515 l 200 490 l 160 400 q 147 353 147 375 q 171 306 147 325 l 188 294 l 192 268 l 181 263 m 185 79 q 158 27 185 56 q 108 0 131 -1 q 60 28 88 0 q 32 81 32 57 q 60 132 32 104 q 108 160 88 160 q 158 132 131 160 q 185 79 185 104 z "},"؟":{"ha":458,"x_min":25,"x_max":438,"o":"m 243 686 q 383 651 328 686 q 438 563 438 617 q 391 482 438 514 q 268 447 344 450 l 265 457 q 299 499 288 472 q 311 560 311 526 q 292 631 311 604 q 242 658 272 658 q 183 622 204 658 q 163 522 163 586 q 199 380 163 451 q 311 231 235 308 l 269 188 l 251 188 l 247 204 q 215 263 239 236 q 147 331 192 290 q 56 431 86 389 q 25 529 25 474 q 85 642 25 599 q 243 686 146 686 m 332 65 q 307 16 332 43 q 261 -11 282 -11 q 213 15 239 -11 q 188 65 188 42 q 213 115 188 88 q 261 142 239 142 q 307 115 282 142 q 332 65 332 88 z "},"ؠ":{"ha":829,"x_min":97,"x_max":760,"o":"m 600 161 q 669 146 646 154 q 711 124 693 138 q 744 57 744 99 q 743 33 744 40 q 718 -86 733 -31 q 676 -148 710 -117 q 593 -206 643 -179 q 490 -249 544 -233 q 386 -265 435 -265 q 256 -244 313 -265 q 168 -189 200 -224 q 113 -93 129 -146 q 97 10 97 -40 q 101 62 97 26 q 121 143 106 97 q 176 246 142 208 l 199 238 q 183 203 196 231 q 162 144 171 176 q 153 79 153 111 q 228 -62 153 -11 q 390 -108 294 -108 q 550 -86 482 -108 q 619 -54 590 -72 q 668 -6 649 -36 q 644 9 667 4 q 581 18 621 14 l 549 22 q 447 63 479 32 q 419 144 419 90 q 437 238 419 188 q 485 333 454 289 q 563 415 519 385 q 653 446 607 446 q 731 410 703 446 q 760 321 760 374 q 739 236 760 272 l 706 225 q 693 294 707 274 q 646 314 679 314 q 573 290 606 314 q 496 214 540 265 q 519 178 496 188 q 600 161 543 169 m 461 -444 q 440 -492 461 -475 q 394 -510 419 -510 q 349 -492 369 -510 q 328 -444 328 -475 l 328 -400 q 348 -349 328 -367 q 394 -331 368 -331 q 442 -348 422 -331 q 461 -400 461 -365 l 461 -444 m 394 -449 q 442 -425 426 -449 q 428 -387 442 -400 q 394 -375 415 -375 q 360 -387 374 -375 q 347 -425 347 -400 q 394 -449 363 -449 z "},"ء":{"ha":458,"x_min":68,"x_max":418,"o":"m 304 122 q 418 144 357 135 l 390 68 q 82 -28 219 42 l 68 -18 l 124 67 q 154 76 140 74 q 172 83 163 79 q 190 90 182 86 q 174 99 190 89 q 145 129 158 110 q 132 178 132 149 q 138 199 132 189 q 167 237 143 210 q 224 287 192 264 q 288 310 257 310 q 332 292 315 310 q 356 256 349 275 q 363 232 363 236 l 317 192 q 292 221 307 211 q 269 231 278 231 q 228 218 251 231 q 199 199 206 206 q 238 156 213 178 q 304 122 263 133 z "},"آ":{"ha":236,"x_min":-117,"x_max":325,"o":"m 179 706 l 149 713 l 157 614 q 178 325 174 431 q 179 231 179 297 q 175 133 179 163 q 156 58 169 85 q 133 23 146 40 q 115 0 119 6 l 100 0 q 101 19 100 4 q 101 58 101 33 q 93 233 101 140 q 60 507 85 340 q 47 598 53 554 q 42 668 42 642 q 48 718 42 700 q 67 753 54 736 l 133 849 l 179 706 m 325 1075 q 235 958 290 1001 q 94 911 169 911 q -11 933 42 911 l -36 876 l -40 878 q -117 996 -40 953 l -81 1081 q 4 1033 -57 1057 q 125 1013 67 1013 q 213 1029 171 1013 q 311 1088 261 1046 l 325 1075 z "},"أ":{"ha":235,"x_min":-18,"x_max":226,"o":"m 179 706 l 149 713 l 157 614 q 178 325 174 431 q 179 231 179 297 q 175 133 179 163 q 156 58 169 85 q 133 23 146 40 q 115 0 119 6 l 100 0 q 101 19 100 4 q 101 58 101 33 q 93 233 101 140 q 60 507 85 340 q 47 598 53 554 q 42 668 42 642 q 48 718 42 700 q 67 753 54 736 l 133 849 l 179 706 m 147 956 q 226 971 188 965 l 206 917 q -8 850 81 896 l -18 857 l 21 915 q 45 924 32 921 q 67 932 58 928 q 54 940 64 933 q 35 960 44 946 q 26 993 26 974 q 31 1008 26 1000 q 76 1058 49 1032 q 136 1085 104 1085 q 166 1073 154 1085 q 183 1049 178 1061 q 188 1032 188 1036 l 156 1003 q 139 1023 149 1017 q 122 1029 129 1029 q 89 1019 104 1029 q 72 1008 74 1008 q 147 956 99 965 z "},"ؤ":{"ha":435,"x_min":0,"x_max":353,"o":"m 182 353 q 300 271 254 353 q 338 169 325 228 q 351 46 351 110 q 322 -128 353 -57 q 239 -229 292 -192 q 165 -264 203 -254 q 103 -274 128 -274 l 103 -353 l 99 -354 q 65 -303 89 -325 q 0 -282 40 -281 l 0 -136 q 99 -128 56 -135 q 182 -97 142 -121 q 274 24 249 -58 q 260 72 269 44 l 217 0 l 194 0 q 88 35 125 0 q 60 79 67 54 q 54 128 53 104 l 67 249 q 102 319 71 286 q 182 353 133 353 m 244 147 q 217 205 233 181 q 172 229 201 229 q 136 219 151 229 q 113 198 121 208 q 103 183 104 188 q 113 161 103 175 q 151 147 122 147 l 244 147 m 225 501 q 304 517 265 511 l 283 463 q 69 396 158 442 l 60 403 l 99 461 q 123 470 110 467 q 144 478 136 474 q 132 485 142 479 q 113 506 122 492 q 104 539 104 519 q 108 554 104 546 q 154 604 126 578 q 214 631 182 631 q 244 619 232 631 q 260 594 256 607 q 265 578 265 582 l 233 549 q 217 569 226 563 q 200 575 207 575 q 167 565 182 575 q 150 554 151 554 q 225 501 176 511 z "},"إ":{"ha":235,"x_min":-10,"x_max":235,"o":"m 179 803 l 149 810 q 165 549 154 747 q 176 325 175 413 q 179 231 179 269 q 175 133 179 178 q 154 58 169 86 q 132 24 146 42 q 114 0 118 6 l 100 0 q 93 233 100 126 q 68 504 86 353 q 63 558 65 519 q 43 733 47 678 q 42 765 42 746 q 48 815 42 797 q 65 850 54 833 l 133 946 l 179 803 m 156 -185 q 235 -169 196 -175 l 214 -224 q 0 -290 89 -244 l -10 -283 l 29 -225 q 53 -216 40 -219 q 75 -208 67 -212 q 63 -201 72 -207 q 44 -181 53 -194 q 35 -147 35 -167 q 39 -132 35 -140 q 85 -82 57 -108 q 144 -56 113 -56 q 174 -67 163 -56 q 191 -92 186 -79 q 196 -108 196 -104 l 164 -137 q 147 -117 157 -124 q 131 -111 138 -111 q 97 -122 113 -111 q 81 -132 82 -132 q 156 -185 107 -175 z "},"ئ":{"ha":829,"x_min":97,"x_max":760,"o":"m 600 161 q 669 146 646 154 q 711 124 693 138 q 744 57 744 99 q 743 33 744 40 q 718 -86 733 -31 q 676 -148 710 -117 q 593 -206 643 -179 q 490 -249 544 -233 q 386 -265 435 -265 q 256 -244 313 -265 q 168 -189 200 -224 q 113 -93 129 -146 q 97 10 97 -40 q 101 62 97 26 q 121 143 106 97 q 176 246 142 208 l 199 238 q 183 203 196 231 q 162 144 171 176 q 153 79 153 111 q 228 -62 153 -11 q 390 -108 294 -108 q 550 -86 482 -108 q 619 -54 590 -72 q 668 -6 649 -36 q 644 9 667 4 q 581 18 621 14 l 549 22 q 447 63 479 32 q 419 144 419 90 q 437 238 419 188 q 485 333 454 289 q 563 415 519 385 q 653 446 607 446 q 731 410 703 446 q 760 321 760 374 q 739 236 760 272 l 706 225 q 693 294 707 274 q 646 314 679 314 q 573 290 606 314 q 496 214 540 265 q 519 178 496 188 q 600 161 543 169 m 357 392 q 436 407 397 401 l 415 353 q 201 286 290 332 l 192 293 l 231 351 q 255 360 242 357 q 276 368 268 364 q 264 376 274 369 q 245 396 254 382 q 236 429 236 410 q 240 444 236 436 q 286 494 258 468 q 346 521 314 521 q 376 509 364 521 q 392 485 388 497 q 397 468 397 472 l 365 439 q 349 459 358 453 q 332 465 339 465 q 299 455 314 465 q 282 444 283 444 q 357 392 308 401 z "},"ا":{"ha":235,"x_min":42,"x_max":179,"o":"m 179 803 l 149 810 q 165 549 154 747 q 176 325 175 413 q 179 231 179 269 q 175 133 179 178 q 154 58 169 86 q 132 24 146 42 q 114 0 118 6 l 100 0 q 93 233 100 126 q 68 504 86 353 q 63 558 65 519 q 43 733 47 678 q 42 765 42 746 q 48 815 42 797 q 65 850 54 833 l 133 946 l 179 803 z "},"ب":{"ha":1165,"x_min":97,"x_max":1082,"o":"m 1082 225 q 1077 156 1082 188 q 1071 115 1072 124 q 1052 97 1071 113 q 984 58 1033 81 q 850 13 935 35 q 501 -35 668 -35 q 193 40 299 -35 q 119 125 142 76 q 97 224 97 174 q 122 349 97 282 q 175 446 146 417 l 197 425 q 175 369 186 403 q 164 301 164 336 q 281 153 164 199 q 557 118 374 118 q 846 139 717 118 q 1033 192 958 157 q 999 266 1024 235 q 949 317 975 297 q 922 333 922 336 l 961 481 q 1039 401 1008 450 q 1082 225 1082 331 m 593 -117 q 642 -151 617 -129 q 681 -193 668 -174 q 651 -232 668 -211 q 608 -278 635 -253 q 519 -203 551 -221 q 593 -117 578 -136 z "},"ة":{"ha":460,"x_min":33,"x_max":376,"o":"m 376 133 q 360 67 376 97 q 313 17 343 36 q 231 -6 278 -6 q 146 18 185 -6 q 97 108 97 49 l 97 240 q 117 315 97 283 q 165 357 135 344 l 136 375 l 136 500 l 161 488 q 247 441 217 458 q 306 400 278 424 q 375 271 375 340 l 376 133 m 140 186 q 182 156 157 165 q 235 147 207 146 q 297 162 267 147 q 344 204 326 176 q 281 279 332 233 q 238 313 260 297 q 211 333 217 329 l 211 249 q 140 186 154 240 m 33 644 q 107 731 92 710 q 183 669 150 708 q 235 731 221 710 q 285 696 260 718 q 324 654 311 674 q 250 569 290 608 q 179 633 214 607 q 122 569 156 603 q 33 644 65 626 z "},"ت":{"ha":1165,"x_min":97,"x_max":1082,"o":"m 1082 225 q 1077 156 1082 188 q 1071 115 1072 124 q 1052 97 1071 113 q 984 58 1033 81 q 850 13 935 35 q 501 -35 668 -35 q 193 40 299 -35 q 119 125 142 76 q 97 224 97 174 q 122 349 97 282 q 175 446 146 417 l 197 425 q 175 369 186 403 q 164 301 164 336 q 281 153 164 199 q 557 118 374 118 q 846 139 717 118 q 1033 192 958 157 q 999 266 1024 235 q 949 317 975 297 q 922 333 922 336 l 961 481 q 1039 401 1008 450 q 1082 225 1082 331 m 439 407 q 513 493 497 472 q 589 432 556 471 q 640 493 626 472 q 691 458 665 481 q 729 417 717 436 q 656 332 696 371 q 585 396 619 369 q 528 332 561 365 q 439 407 471 389 z "},"ث":{"ha":1165,"x_min":97,"x_max":1082,"o":"m 1082 225 q 1077 156 1082 188 q 1071 115 1072 124 q 1052 97 1071 113 q 984 58 1033 81 q 850 13 935 35 q 501 -35 668 -35 q 193 40 299 -35 q 119 125 142 76 q 97 224 97 174 q 122 349 97 282 q 175 446 146 417 l 197 425 q 175 369 186 403 q 164 301 164 336 q 281 153 164 199 q 557 118 374 118 q 846 139 717 118 q 1033 192 958 157 q 999 266 1024 235 q 949 317 975 297 q 922 333 922 336 l 961 481 q 1039 401 1008 450 q 1082 225 1082 331 m 499 557 q 572 643 540 601 q 622 608 596 631 q 661 567 649 586 q 588 482 628 521 q 499 557 540 531 m 438 407 q 511 493 483 460 q 553 465 531 482 q 589 432 575 449 l 640 493 q 691 458 665 481 q 729 417 717 436 q 656 332 696 371 q 585 396 614 376 q 526 332 567 372 q 438 407 475 386 z "},"ج":{"ha":799,"x_min":97,"x_max":699,"o":"m 688 -374 l 565 -514 l 485 -512 q 324 -491 390 -511 q 207 -424 257 -471 q 126 -299 154 -374 q 97 -137 97 -224 q 129 31 97 -44 q 211 158 161 107 q 156 208 192 179 q 108 244 119 236 l 108 310 q 142 408 108 365 q 256 465 186 465 q 415 436 299 465 q 552 405 508 413 q 647 396 596 397 l 699 394 l 646 256 q 614 255 639 256 q 549 248 589 254 q 465 228 508 242 q 281 133 363 196 q 283 110 283 117 q 280 85 283 94 q 275 72 276 75 q 268 89 274 76 q 256 108 263 101 q 197 19 221 74 q 172 -93 172 -35 q 206 -215 172 -160 q 301 -310 240 -271 q 554 -374 403 -374 l 688 -374 m 163 300 q 256 199 226 251 q 438 310 331 269 q 343 326 411 313 q 250 340 283 340 q 191 328 214 340 q 163 300 168 315 m 453 46 q 502 11 476 33 q 540 -31 528 -11 q 511 -69 528 -49 q 468 -115 494 -90 q 379 -40 411 -58 q 453 46 438 25 z "},"ح":{"ha":799,"x_min":97,"x_max":699,"o":"m 688 -374 l 565 -514 l 485 -512 q 324 -491 390 -511 q 207 -424 257 -471 q 126 -299 154 -374 q 97 -137 97 -224 q 129 31 97 -44 q 211 158 161 107 q 156 208 192 179 q 108 244 119 236 l 108 310 q 142 408 108 365 q 256 465 186 465 q 415 436 299 465 q 552 405 508 413 q 647 396 596 397 l 699 394 l 646 256 q 614 255 639 256 q 549 248 589 254 q 465 228 508 242 q 281 133 363 196 q 283 110 283 117 q 280 85 283 94 q 275 72 276 75 q 268 89 274 76 q 256 108 263 101 q 197 19 221 74 q 172 -93 172 -35 q 206 -215 172 -160 q 301 -310 240 -271 q 554 -374 403 -374 l 688 -374 m 163 300 q 256 199 226 251 q 438 310 331 269 q 343 326 411 313 q 250 340 283 340 q 191 328 214 340 q 163 300 168 315 z "},"خ":{"ha":799,"x_min":97,"x_max":699,"o":"m 688 -374 l 565 -514 l 485 -512 q 324 -491 390 -511 q 207 -424 257 -471 q 126 -299 154 -374 q 97 -137 97 -224 q 129 31 97 -44 q 211 158 161 107 q 156 208 192 179 q 108 244 119 236 l 108 310 q 142 408 108 365 q 256 465 186 465 q 415 436 299 465 q 552 405 508 413 q 647 396 596 397 l 699 394 l 646 256 q 614 255 639 256 q 549 248 589 254 q 465 228 508 242 q 281 133 363 196 q 283 110 283 117 q 280 85 283 94 q 275 72 276 75 q 268 89 274 76 q 256 108 263 101 q 197 19 221 74 q 172 -93 172 -35 q 206 -215 172 -160 q 301 -310 240 -271 q 554 -374 403 -374 l 688 -374 m 163 300 q 256 199 226 251 q 438 310 331 269 q 343 326 411 313 q 250 340 283 340 q 191 328 214 340 q 163 300 168 315 m 361 689 q 410 654 385 676 q 449 613 436 632 q 419 574 436 594 q 376 528 403 553 q 288 603 319 585 q 361 689 346 669 z "},"د":{"ha":540,"x_min":69,"x_max":457,"o":"m 339 389 q 424 303 390 354 q 457 185 457 251 q 386 38 457 90 q 315 2 357 15 q 222 -11 272 -11 q 69 118 69 -11 q 71 162 69 139 q 72 193 72 185 q 138 147 94 160 q 244 133 182 133 q 331 137 283 133 q 406 146 378 140 q 338 227 375 192 q 267 281 300 263 q 215 301 233 300 l 200 276 l 165 293 q 137 319 149 301 q 131 351 125 338 l 183 468 q 208 453 190 461 q 233 443 226 446 q 339 389 300 415 z "},"ذ":{"ha":540,"x_min":69,"x_max":457,"o":"m 339 389 q 424 303 390 354 q 457 185 457 251 q 386 38 457 90 q 315 2 357 15 q 222 -11 272 -11 q 69 118 69 -11 q 71 162 69 139 q 72 193 72 185 q 138 147 94 160 q 244 133 182 133 q 331 137 283 133 q 406 146 378 140 q 338 227 375 192 q 267 281 300 263 q 215 301 233 300 l 200 276 l 165 293 q 137 319 149 301 q 131 351 125 338 l 183 468 q 208 453 190 461 q 233 443 226 446 q 339 389 300 415 m 186 690 q 235 656 210 678 q 274 614 261 633 q 244 575 261 596 q 201 529 228 554 q 113 604 144 586 q 186 690 171 671 z "},"ر":{"ha":415,"x_min":-56,"x_max":332,"o":"m 297 -121 q 211 -229 264 -193 q 126 -265 175 -254 q 47 -275 76 -275 l 47 -354 l 43 -354 q 10 -303 33 -325 q -56 -283 -14 -281 l -56 -137 q 60 -128 6 -136 q 154 -97 115 -121 q 222 -36 196 -74 q 254 64 247 1 q 193 119 228 94 q 149 151 158 144 q 129 188 129 167 q 132 203 129 197 l 176 315 q 292 198 253 274 q 332 32 332 122 q 297 -121 332 -50 z "},"ز":{"ha":415,"x_min":-56,"x_max":332,"o":"m 297 -121 q 211 -229 264 -193 q 126 -265 175 -254 q 47 -275 76 -275 l 47 -354 l 43 -354 q 10 -303 33 -325 q -56 -283 -14 -281 l -56 -137 q 60 -128 6 -136 q 154 -97 115 -121 q 222 -36 196 -74 q 254 64 247 1 q 193 119 228 94 q 149 151 158 144 q 129 188 129 167 q 132 203 129 197 l 176 315 q 292 198 253 274 q 332 32 332 122 q 297 -121 332 -50 m 164 544 q 213 510 188 532 q 251 468 239 488 q 222 429 239 450 q 179 383 206 408 q 90 458 122 440 q 164 544 149 525 z "},"س":{"ha":1203,"x_min":97,"x_max":1119,"o":"m 1078 371 q 1108 313 1097 353 q 1119 221 1119 272 q 1110 142 1119 169 q 1063 56 1096 103 q 983 8 1029 8 q 903 43 947 8 q 877 69 886 56 q 858 104 868 83 q 837 60 854 82 q 794 26 819 39 q 696 7 758 10 q 699 -50 699 -29 q 674 -169 699 -117 q 610 -256 649 -221 q 383 -331 525 -331 q 175 -260 251 -331 q 115 -167 132 -219 q 97 -67 97 -114 q 119 79 97 13 q 176 182 140 140 l 199 160 q 166 101 181 138 q 151 19 151 65 q 228 -119 151 -67 q 396 -168 299 -168 q 518 -149 457 -168 q 609 -99 581 -129 q 650 -35 638 -68 q 624 -4 646 -29 q 578 57 603 21 q 544 118 551 96 q 536 179 536 140 q 542 225 536 207 l 564 247 q 585 205 574 221 q 614 178 596 189 q 701 156 650 156 q 799 185 760 156 q 835 231 825 206 q 849 299 844 256 l 869 288 q 885 222 871 254 q 928 175 899 190 q 1004 160 957 160 q 1020 160 1014 160 q 1028 161 1026 161 q 1004 275 1029 208 l 1078 371 z "},"ش":{"ha":1203,"x_min":97,"x_max":1119,"o":"m 1078 371 q 1108 313 1097 353 q 1119 221 1119 272 q 1110 142 1119 169 q 1063 56 1096 103 q 983 8 1029 8 q 903 43 947 8 q 877 69 886 56 q 858 104 868 83 q 837 60 854 82 q 794 26 819 39 q 696 7 758 10 q 699 -50 699 -29 q 674 -169 699 -117 q 610 -256 649 -221 q 383 -331 525 -331 q 175 -260 251 -331 q 115 -167 132 -219 q 97 -67 97 -114 q 119 79 97 13 q 176 182 140 140 l 199 160 q 166 101 181 138 q 151 19 151 65 q 228 -119 151 -67 q 396 -168 299 -168 q 518 -149 457 -168 q 609 -99 581 -129 q 650 -35 638 -68 q 624 -4 646 -29 q 578 57 603 21 q 544 118 551 96 q 536 179 536 140 q 542 225 536 207 l 564 247 q 585 205 574 221 q 614 178 596 189 q 701 156 650 156 q 799 185 760 156 q 835 231 825 206 q 849 299 844 256 l 869 288 q 885 222 871 254 q 928 175 899 190 q 1004 160 957 160 q 1020 160 1014 160 q 1028 161 1026 161 q 1004 275 1029 208 l 1078 371 m 761 601 q 835 688 803 646 q 885 653 858 675 q 924 611 911 631 q 850 526 890 565 q 761 601 803 575 m 700 451 q 774 538 746 504 q 815 510 793 526 q 851 476 838 493 l 903 538 q 953 503 928 525 q 992 461 979 481 q 918 376 958 415 q 847 440 876 421 q 789 376 829 417 q 700 451 738 431 z "},"ص":{"ha":1310,"x_min":97,"x_max":1226,"o":"m 1038 393 q 1155 356 1111 393 q 1226 244 1199 319 q 1187 145 1208 182 q 1125 74 1165 108 q 1011 10 1078 33 q 858 -14 944 -14 q 696 0 790 -14 q 699 -44 699 -31 q 610 -257 697 -179 q 506 -312 565 -294 q 383 -331 447 -331 q 175 -260 251 -331 q 115 -167 132 -219 q 97 -71 97 -115 q 119 79 97 10 q 176 182 140 142 l 199 160 q 165 98 178 132 q 151 13 151 64 q 167 -52 151 -15 q 226 -119 183 -89 q 397 -167 290 -167 q 518 -150 465 -167 q 611 -96 581 -129 q 650 -35 642 -62 l 583 47 q 536 179 536 107 q 538 210 536 197 q 542 225 540 222 l 564 247 q 615 172 581 196 q 654 156 632 161 q 714 147 676 151 q 821 276 749 206 q 928 361 872 329 q 1038 393 985 393 m 896 142 q 1124 204 1074 142 q 1113 223 1124 207 q 1085 251 1103 239 q 1004 276 1050 276 q 835 207 915 276 q 794 166 810 185 q 775 142 778 147 l 896 142 z "},"ض":{"ha":1310,"x_min":97,"x_max":1226,"o":"m 1038 393 q 1155 356 1111 393 q 1226 244 1199 319 q 1187 145 1208 182 q 1125 74 1165 108 q 1011 10 1078 33 q 858 -14 944 -14 q 696 0 790 -14 q 699 -44 699 -31 q 610 -257 697 -179 q 506 -312 565 -294 q 383 -331 447 -331 q 175 -260 251 -331 q 115 -167 132 -219 q 97 -71 97 -115 q 119 79 97 10 q 176 182 140 142 l 199 160 q 165 98 178 132 q 151 13 151 64 q 167 -52 151 -15 q 226 -119 183 -89 q 397 -167 290 -167 q 518 -150 465 -167 q 611 -96 581 -129 q 650 -35 642 -62 l 583 47 q 536 179 536 107 q 538 210 536 197 q 542 225 540 222 l 564 247 q 615 172 581 196 q 654 156 632 161 q 714 147 676 151 q 821 276 749 206 q 928 361 872 329 q 1038 393 985 393 m 896 142 q 1124 204 1074 142 q 1113 223 1124 207 q 1085 251 1103 239 q 1004 276 1050 276 q 835 207 915 276 q 794 166 810 185 q 775 142 778 147 l 896 142 m 1006 619 q 1055 585 1029 607 q 1093 543 1081 563 q 1064 504 1081 525 q 1021 458 1047 483 q 932 533 964 515 q 1006 619 990 600 z "},"ط":{"ha":935,"x_min":97,"x_max":851,"o":"m 668 396 q 796 343 747 396 q 851 247 824 311 q 841 211 850 242 q 810 144 832 181 q 721 56 775 89 q 493 3 638 4 l 319 -1 l 290 -51 l 261 -21 l 271 -3 l 189 -4 l 97 154 q 165 150 114 153 q 249 147 215 147 q 306 149 278 147 q 343 150 333 150 q 406 235 368 190 q 386 544 406 404 q 328 788 365 693 l 306 807 q 306 838 306 814 q 313 882 307 861 q 335 925 319 906 q 379 949 351 944 q 471 828 413 871 q 447 802 454 815 q 439 771 439 789 q 442 742 439 753 q 474 540 465 619 q 481 422 481 488 q 468 300 481 344 q 668 396 571 396 m 521 147 q 657 161 604 147 q 749 210 710 175 q 713 254 732 238 q 628 282 681 282 q 474 222 546 282 q 425 175 446 200 q 404 147 404 150 l 521 147 z "},"ظ":{"ha":935,"x_min":97,"x_max":851,"o":"m 668 396 q 796 343 747 396 q 851 247 824 311 q 841 211 850 242 q 810 144 832 181 q 721 56 775 89 q 493 3 638 4 l 319 -1 l 290 -51 l 261 -21 l 271 -3 l 189 -4 l 97 154 q 165 150 114 153 q 249 147 215 147 q 306 149 278 147 q 343 150 333 150 q 406 235 368 190 q 386 544 406 404 q 328 788 365 693 l 306 807 q 306 838 306 814 q 313 882 307 861 q 335 925 319 906 q 379 949 351 944 q 471 828 413 871 q 447 802 454 815 q 439 771 439 789 q 442 742 439 753 q 474 540 465 619 q 481 422 481 488 q 468 300 481 344 q 668 396 571 396 m 521 147 q 657 161 604 147 q 749 210 710 175 q 713 254 732 238 q 628 282 681 282 q 474 222 546 282 q 425 175 446 200 q 404 147 404 150 l 521 147 m 663 621 q 712 586 686 608 q 750 544 738 564 q 721 506 738 526 q 678 460 704 485 q 589 535 621 517 q 663 621 647 601 z "},"ع":{"ha":715,"x_min":97,"x_max":674,"o":"m 674 -374 l 553 -514 l 485 -514 q 207 -437 297 -514 q 126 -333 156 -394 q 97 -192 97 -271 q 146 -6 97 -89 q 247 114 183 60 q 175 210 197 158 q 156 308 156 253 q 199 417 171 371 q 356 508 258 508 q 467 474 417 508 q 508 435 490 456 q 544 382 526 414 l 504 331 q 432 372 463 360 q 363 385 401 385 q 278 365 311 385 q 228 326 246 346 q 300 249 258 282 q 338 222 314 238 q 379 197 361 207 l 625 257 l 561 114 q 501 98 550 111 q 401 65 453 85 q 308 19 349 44 q 181 -175 181 -58 q 209 -257 181 -218 q 292 -324 238 -296 q 554 -374 389 -374 l 674 -374 z "},"غ":{"ha":715,"x_min":97,"x_max":674,"o":"m 674 -374 l 553 -514 l 485 -514 q 207 -437 297 -514 q 126 -333 156 -394 q 97 -192 97 -271 q 146 -6 97 -89 q 247 114 183 60 q 175 210 197 158 q 156 308 156 253 q 199 417 171 371 q 356 508 258 508 q 467 474 417 508 q 508 435 490 456 q 544 382 526 414 l 504 331 q 432 372 463 360 q 363 385 401 385 q 278 365 311 385 q 228 326 246 346 q 300 249 258 282 q 338 222 314 238 q 379 197 361 207 l 625 257 l 561 114 q 501 98 550 111 q 401 65 453 85 q 308 19 349 44 q 181 -175 181 -58 q 209 -257 181 -218 q 292 -324 238 -296 q 554 -374 389 -374 l 674 -374 m 343 743 q 392 708 367 731 q 431 667 418 686 q 401 628 418 649 q 358 582 385 607 q 269 657 301 639 q 343 743 328 724 z "},"ػ":{"ha":1297,"x_min":97,"x_max":1283,"o":"m 1249 756 q 1044 653 1207 728 q 882 576 903 592 q 1007 443 938 539 q 1072 330 1047 385 q 1097 236 1097 275 q 1089 156 1097 186 q 1013 60 1058 93 q 883 3 968 26 q 741 -24 817 -15 q 486 -32 665 -32 q 175 54 275 -32 q 97 224 97 121 q 121 351 97 283 q 175 446 144 418 l 197 425 q 175 372 186 407 q 164 306 164 338 q 191 215 164 253 q 279 153 218 176 q 546 118 372 118 q 826 134 681 118 q 1028 186 971 150 q 956 311 1003 249 q 869 401 910 374 l 869 354 q 812 416 824 389 q 800 507 800 443 q 804 604 800 576 q 835 663 808 639 q 908 714 863 688 q 1063 793 982 754 q 1283 913 1210 864 l 1249 756 m 864 911 q 938 997 922 976 q 1014 936 981 975 q 1065 997 1051 976 q 1116 963 1090 985 q 1154 921 1142 940 q 1081 836 1121 875 q 1010 900 1044 874 q 953 836 986 869 q 864 911 896 893 z "},"ؼ":{"ha":1297,"x_min":97,"x_max":1283,"o":"m 1249 756 q 1044 653 1207 728 q 882 576 903 592 q 1007 443 938 539 q 1072 330 1047 385 q 1097 236 1097 275 q 1089 156 1097 186 q 1013 60 1058 93 q 883 3 968 26 q 741 -24 817 -15 q 486 -32 665 -32 q 175 54 275 -32 q 97 224 97 121 q 121 351 97 283 q 175 446 144 418 l 197 425 q 175 372 186 407 q 164 306 164 338 q 191 215 164 253 q 279 153 218 176 q 546 118 372 118 q 826 134 681 118 q 1028 186 971 150 q 956 311 1003 249 q 869 401 910 374 l 869 354 q 812 416 824 389 q 800 507 800 443 q 804 604 800 576 q 835 663 808 639 q 908 714 863 688 q 1063 793 982 754 q 1283 913 1210 864 l 1249 756 m 433 -203 q 507 -117 492 -137 q 583 -178 550 -139 q 635 -117 621 -137 q 685 -151 660 -129 q 724 -193 711 -174 q 650 -278 690 -239 q 579 -214 614 -240 q 522 -278 556 -244 q 433 -203 465 -221 m 507 -351 q 581 -264 567 -285 q 631 -300 606 -278 q 669 -342 657 -322 q 596 -426 640 -382 q 507 -351 544 -372 z "},"ؽ":{"ha":829,"x_min":97,"x_max":760,"o":"m 600 161 q 669 146 646 154 q 711 124 693 138 q 744 57 744 99 q 743 33 744 40 q 718 -86 733 -31 q 676 -148 710 -117 q 593 -206 643 -179 q 490 -249 544 -233 q 386 -265 435 -265 q 256 -244 313 -265 q 168 -189 200 -224 q 113 -93 129 -146 q 97 10 97 -40 q 101 62 97 26 q 121 143 106 97 q 176 246 142 208 l 199 238 q 183 203 196 231 q 162 144 171 176 q 153 79 153 111 q 228 -62 153 -11 q 390 -108 294 -108 q 550 -86 482 -108 q 619 -54 590 -72 q 668 -6 649 -36 q 644 9 667 4 q 581 18 621 14 l 549 22 q 447 63 479 32 q 419 144 419 90 q 437 238 419 188 q 485 333 454 289 q 563 415 519 385 q 653 446 607 446 q 731 410 703 446 q 760 321 760 374 q 739 236 760 272 l 706 225 q 693 294 707 274 q 646 314 679 314 q 573 290 606 314 q 496 214 540 265 q 519 178 496 188 q 600 161 543 169 m 392 313 q 347 372 371 329 q 323 423 332 397 q 314 464 314 449 q 285 376 306 417 q 236 313 261 332 l 215 363 q 272 447 244 388 q 301 536 296 499 l 326 536 q 361 439 336 488 q 413 363 388 383 l 392 313 z "},"ؾ":{"ha":829,"x_min":97,"x_max":760,"o":"m 600 161 q 669 146 646 154 q 711 124 693 138 q 744 57 744 99 q 743 33 744 40 q 718 -86 733 -31 q 676 -148 710 -117 q 593 -206 643 -179 q 490 -249 544 -233 q 386 -265 435 -265 q 256 -244 313 -265 q 168 -189 200 -224 q 113 -93 129 -146 q 97 10 97 -40 q 101 62 97 26 q 121 143 106 97 q 176 246 142 208 l 199 238 q 183 203 196 231 q 162 144 171 176 q 153 79 153 111 q 228 -62 153 -11 q 390 -108 294 -108 q 550 -86 482 -108 q 619 -54 590 -72 q 668 -6 649 -36 q 644 9 667 4 q 581 18 621 14 l 549 22 q 447 63 479 32 q 419 144 419 90 q 437 238 419 188 q 485 333 454 289 q 563 415 519 385 q 653 446 607 446 q 731 410 703 446 q 760 321 760 374 q 739 236 760 272 l 706 225 q 693 294 707 274 q 646 314 679 314 q 573 290 606 314 q 496 214 540 265 q 519 178 496 188 q 600 161 543 169 m 169 388 q 243 474 228 453 q 319 413 286 451 q 371 474 357 453 q 422 439 396 461 q 460 397 447 417 q 386 313 426 351 q 315 376 350 350 q 258 313 292 346 q 169 388 201 369 z "},"ؿ":{"ha":829,"x_min":97,"x_max":760,"o":"m 600 161 q 669 146 646 154 q 711 124 693 138 q 744 57 744 99 q 743 33 744 40 q 718 -86 733 -31 q 676 -148 710 -117 q 593 -206 643 -179 q 490 -249 544 -233 q 386 -265 435 -265 q 256 -244 313 -265 q 168 -189 200 -224 q 113 -93 129 -146 q 97 10 97 -40 q 101 62 97 26 q 121 143 106 97 q 176 246 142 208 l 199 238 q 183 203 196 231 q 162 144 171 176 q 153 79 153 111 q 228 -62 153 -11 q 390 -108 294 -108 q 550 -86 482 -108 q 619 -54 590 -72 q 668 -6 649 -36 q 644 9 667 4 q 581 18 621 14 l 549 22 q 447 63 479 32 q 419 144 419 90 q 437 238 419 188 q 485 333 454 289 q 563 415 519 385 q 653 446 607 446 q 731 410 703 446 q 760 321 760 374 q 739 236 760 272 l 706 225 q 693 294 707 274 q 646 314 679 314 q 573 290 606 314 q 496 214 540 265 q 519 178 496 188 q 600 161 543 169 m 229 538 q 303 624 271 582 q 353 589 326 611 q 392 547 379 567 q 318 463 358 501 q 229 538 271 511 m 168 388 q 242 474 214 440 q 283 446 261 463 q 319 413 306 429 l 371 474 q 422 439 396 461 q 460 397 447 417 q 386 313 426 351 q 315 376 344 357 q 257 313 297 353 q 168 388 206 367 z "},"ـ":{"ha":194,"x_min":-97,"x_max":194,"o":"m 194 0 l -24 0 q -76 22 -54 0 q -97 74 -97 43 q -76 126 -97 104 q -24 147 -54 147 l 194 147 l 194 0 z "},"ف":{"ha":1278,"x_min":97,"x_max":1194,"o":"m 1194 303 q 1185 231 1194 264 q 1165 177 1175 197 q 1150 151 1154 157 q 1153 114 1153 126 q 1149 69 1153 89 q 1144 44 1146 50 q 1136 83 1142 67 q 1118 117 1131 99 q 850 0 1010 36 q 547 -33 703 -33 q 214 44 329 -33 q 128 138 158 82 q 97 265 97 194 q 121 399 97 331 q 175 494 144 467 l 197 474 q 164 347 164 415 q 190 244 164 288 q 254 178 215 201 q 374 135 293 156 q 590 115 456 115 q 881 144 738 115 q 1058 199 993 168 q 986 247 1032 231 q 929 263 958 257 q 892 268 900 268 l 892 367 q 928 462 892 428 q 1025 496 965 496 q 1106 478 1072 496 q 1161 428 1140 460 q 1194 303 1194 378 m 1053 372 q 978 344 1017 372 q 1065 306 1029 332 q 1125 235 1107 276 q 1139 290 1139 263 q 1111 353 1139 329 q 1053 372 1089 372 m 1000 706 q 1049 671 1024 693 q 1088 629 1075 649 q 1058 590 1075 611 q 1015 544 1042 569 q 926 619 958 601 q 1000 706 985 686 z "},"ق":{"ha":788,"x_min":97,"x_max":704,"o":"m 511 392 q 594 356 557 392 q 657 254 631 319 q 691 135 678 201 q 704 8 704 68 q 604 -233 704 -151 q 505 -286 563 -268 q 382 -304 447 -304 q 175 -233 251 -304 q 115 -140 132 -193 q 97 -40 97 -87 q 119 106 97 39 q 176 208 140 167 l 199 186 q 166 128 181 165 q 151 51 151 90 q 167 -23 151 18 q 226 -94 182 -64 q 401 -140 292 -140 q 565 -103 507 -140 q 640 -19 622 -65 q 617 60 635 1 l 604 99 l 567 28 q 444 54 488 28 q 392 153 396 86 l 392 275 q 427 356 392 321 q 511 392 463 392 m 582 175 q 573 201 582 179 q 546 241 564 222 q 503 260 528 260 q 467 248 482 260 q 444 223 453 236 q 435 206 436 210 q 447 188 435 200 q 489 175 458 175 l 582 175 m 363 515 q 436 601 421 581 q 513 540 479 579 q 564 601 550 581 q 615 567 589 589 q 653 525 640 544 q 579 440 619 479 q 508 504 543 478 q 451 440 485 474 q 363 515 394 497 z "},"ك":{"ha":1151,"x_min":97,"x_max":1068,"o":"m 1068 210 q 1043 86 1068 138 q 942 19 1018 35 q 765 -1 879 7 q 532 -10 650 -10 q 200 49 313 -10 q 122 116 147 78 q 97 197 97 154 q 115 278 97 238 q 157 342 133 318 l 179 319 q 157 258 157 288 q 262 164 157 192 q 532 136 367 136 q 790 143 688 136 q 986 175 892 150 q 978 308 986 215 q 964 471 971 401 q 914 788 942 682 l 892 807 q 893 838 892 814 q 903 885 894 861 q 971 947 924 940 q 1008 874 988 903 q 1058 824 1028 846 q 1048 815 1056 822 q 1033 794 1040 808 q 1026 757 1026 779 q 1028 738 1026 744 q 1056 454 1047 578 q 1068 210 1068 307 m 647 258 q 585 240 624 240 q 546 243 574 240 q 506 251 528 246 q 472 261 485 257 l 483 283 q 529 285 494 282 q 597 296 564 288 q 640 319 629 304 q 633 325 640 321 q 610 329 626 329 q 560 344 576 329 q 543 392 543 364 q 590 471 543 436 q 683 513 629 500 l 661 438 q 640 435 656 438 q 608 426 624 433 q 593 408 593 419 q 607 398 593 406 q 654 390 621 390 q 687 376 678 390 q 692 346 696 363 q 647 258 678 285 z "},"ل":{"ha":782,"x_min":97,"x_max":703,"o":"m 653 738 q 699 101 664 596 q 677 -19 703 40 q 604 -119 651 -79 q 382 -192 519 -192 q 175 -121 250 -192 q 115 -28 132 -81 q 97 76 97 24 q 121 218 97 144 q 176 321 140 276 l 199 299 q 166 240 181 278 q 151 164 151 203 q 167 90 151 131 q 226 18 182 49 q 401 -28 292 -28 q 538 -3 485 -28 q 619 57 592 21 q 589 471 606 301 q 539 788 568 678 l 518 807 q 519 836 518 814 q 529 885 521 858 q 596 947 549 940 q 634 872 618 896 q 683 822 650 847 q 658 789 664 800 q 651 758 651 778 q 653 738 651 746 z "},"م":{"ha":703,"x_min":97,"x_max":619,"o":"m 447 432 q 565 383 513 418 q 619 306 619 349 l 618 190 q 597 127 618 150 q 538 103 576 104 l 453 103 q 467 54 467 81 q 462 20 467 36 q 454 0 457 4 q 381 101 428 63 q 260 83 317 100 q 183 31 203 67 q 181 -10 181 3 q 197 -139 181 -56 l 206 -182 q 228 -312 221 -261 q 236 -410 236 -364 q 233 -460 236 -443 q 220 -548 228 -510 q 189 -635 213 -586 l 165 -646 q 167 -594 167 -629 q 156 -460 167 -522 q 121 -285 146 -397 q 103 -196 108 -233 q 97 -118 97 -158 q 104 -31 97 -72 q 133 64 111 14 q 197 169 157 124 q 297 229 238 215 l 297 368 q 297 389 297 372 q 303 416 296 406 q 329 432 311 426 q 393 439 354 439 q 447 432 419 439 m 557 243 q 477 298 524 279 q 386 317 431 317 q 342 311 358 317 q 382 249 364 272 q 456 253 417 253 q 557 243 518 253 z "},"ن":{"ha":789,"x_min":97,"x_max":706,"o":"m 665 138 q 676 109 668 132 q 691 51 683 86 q 699 -21 699 15 q 673 -140 699 -85 q 604 -231 647 -194 q 383 -303 519 -303 q 175 -232 251 -303 q 115 -139 132 -192 q 97 -39 97 -86 q 119 107 97 40 q 176 210 140 168 l 199 188 q 166 129 181 167 q 151 53 151 92 q 167 -22 151 19 q 226 -93 182 -62 q 401 -139 292 -139 q 565 -101 507 -139 q 640 -18 622 -64 q 595 47 629 -3 q 532 142 561 96 l 585 278 l 706 138 l 665 138 m 354 186 q 403 151 378 174 q 442 110 429 129 q 413 71 429 92 q 369 25 396 50 q 281 100 313 82 q 354 186 339 167 z "},"ه":{"ha":460,"x_min":97,"x_max":376,"o":"m 376 133 q 360 67 376 97 q 313 17 343 36 q 231 -6 278 -6 q 146 18 185 -6 q 97 108 97 49 l 97 240 q 117 315 97 283 q 165 357 135 344 l 136 375 l 136 500 l 161 488 q 247 441 217 458 q 306 400 278 424 q 375 271 375 340 l 376 133 m 140 186 q 182 156 157 165 q 235 147 207 146 q 297 162 267 147 q 344 204 326 176 q 281 279 332 233 q 238 313 260 297 q 211 333 217 329 l 211 249 q 140 186 154 240 z "},"و":{"ha":435,"x_min":0,"x_max":353,"o":"m 182 353 q 300 271 254 353 q 338 169 325 228 q 351 46 351 110 q 322 -128 353 -57 q 239 -229 292 -192 q 165 -264 203 -254 q 103 -274 128 -274 l 103 -353 l 99 -354 q 65 -303 89 -325 q 0 -282 40 -281 l 0 -136 q 99 -128 56 -135 q 182 -97 142 -121 q 274 24 249 -58 q 260 72 269 44 l 217 0 l 194 0 q 88 35 125 0 q 60 79 67 54 q 54 128 53 104 l 67 249 q 102 319 71 286 q 182 353 133 353 m 244 147 q 217 205 233 181 q 172 229 201 229 q 136 219 151 229 q 113 198 121 208 q 103 183 104 188 q 113 161 103 175 q 151 147 122 147 l 244 147 z "},"ى":{"ha":829,"x_min":97,"x_max":760,"o":"m 600 161 q 669 146 646 154 q 711 124 693 138 q 744 57 744 99 q 743 33 744 40 q 718 -86 733 -31 q 676 -148 710 -117 q 593 -206 643 -179 q 490 -249 544 -233 q 386 -265 435 -265 q 256 -244 313 -265 q 168 -189 200 -224 q 113 -93 129 -146 q 97 10 97 -40 q 101 62 97 26 q 121 143 106 97 q 176 246 142 208 l 199 238 q 183 203 196 231 q 162 144 171 176 q 153 79 153 111 q 228 -62 153 -11 q 390 -108 294 -108 q 550 -86 482 -108 q 619 -54 590 -72 q 668 -6 649 -36 q 644 9 667 4 q 581 18 621 14 l 549 22 q 447 63 479 32 q 419 144 419 90 q 437 238 419 188 q 485 333 454 289 q 563 415 519 385 q 653 446 607 446 q 731 410 703 446 q 760 321 760 374 q 739 236 760 272 l 706 225 q 693 294 707 274 q 646 314 679 314 q 573 290 606 314 q 496 214 540 265 q 519 178 496 188 q 600 161 543 169 z "},"ي":{"ha":829,"x_min":97,"x_max":760,"o":"m 600 161 q 669 146 646 154 q 711 124 693 138 q 744 57 744 99 q 743 33 744 40 q 718 -86 733 -31 q 676 -148 710 -117 q 593 -206 643 -179 q 490 -249 544 -233 q 386 -265 435 -265 q 256 -244 313 -265 q 168 -189 200 -224 q 113 -93 129 -146 q 97 10 97 -40 q 101 62 97 26 q 121 143 106 97 q 176 246 142 208 l 199 238 q 183 203 196 231 q 162 144 171 176 q 153 79 153 111 q 228 -62 153 -11 q 390 -108 294 -108 q 550 -86 482 -108 q 619 -54 590 -72 q 668 -6 649 -36 q 644 9 667 4 q 581 18 621 14 l 549 22 q 447 63 479 32 q 419 144 419 90 q 437 238 419 188 q 485 333 454 289 q 563 415 519 385 q 653 446 607 446 q 731 410 703 446 q 760 321 760 374 q 739 236 760 272 l 706 225 q 693 294 707 274 q 646 314 679 314 q 573 290 606 314 q 496 214 540 265 q 519 178 496 188 q 600 161 543 169 m 250 -417 q 324 -331 308 -351 q 400 -392 367 -353 q 451 -331 438 -351 q 502 -365 476 -343 q 540 -407 528 -387 q 467 -492 507 -453 q 396 -428 431 -454 q 339 -492 372 -458 q 250 -417 282 -435 z "},"ً":{"ha":0,"x_min":-122,"x_max":118,"o":"m -83 1128 l 118 1207 l 82 1139 l -112 1063 l -122 1069 l -83 1128 m -83 1024 l 118 1103 l 82 1035 l -112 958 l -122 965 l -83 1024 z "},"ٌ":{"ha":0,"x_min":-122,"x_max":118,"o":"m 118 1131 l 106 1075 l 68 1093 q 1 1029 51 1058 q -75 999 -31 1010 q -71 1022 -74 1004 q -65 1064 -68 1040 l -65 1067 q -78 1081 -65 1081 q -106 1076 -93 1081 q -122 1069 -118 1071 l -111 1117 q -67 1129 -89 1129 q -44 1119 -54 1129 q -36 1088 -35 1108 l -39 1067 q 1 1081 -19 1068 q 36 1110 21 1093 l 11 1124 q -25 1171 -25 1142 q -17 1199 -25 1188 l 10 1235 q 53 1256 25 1256 q 90 1239 78 1256 q 103 1194 103 1222 q 93 1143 103 1168 l 118 1131 m 63 1175 q 47 1203 63 1196 l 36 1206 q 22 1203 28 1206 q 14 1199 15 1200 q 14 1197 14 1199 q 13 1192 13 1194 q 25 1175 13 1182 l 61 1156 l 63 1175 z "},"ٍ":{"ha":0,"x_min":-122,"x_max":118,"o":"m -83 -224 l 118 -144 l 82 -214 l -112 -290 l -122 -283 l -83 -224 m -83 -336 l 118 -257 l 82 -326 l -112 -403 l -122 -396 l -83 -336 z "},"َ":{"ha":0,"x_min":-122,"x_max":118,"o":"m 118 1132 l 82 1063 l -112 986 l -122 993 l -83 1053 l 118 1132 z "},"ُ":{"ha":0,"x_min":-121,"x_max":119,"o":"m 119 1140 l 103 1078 l 68 1094 q -6 1033 43 1057 q -110 999 -54 1008 l -121 1006 l -81 1065 q -28 1077 -53 1067 q 14 1098 -3 1088 q 35 1111 31 1108 l 10 1125 q -25 1171 -25 1143 q -17 1200 -25 1189 l 13 1244 q 54 1265 28 1265 q 76 1260 67 1265 q 104 1200 104 1244 q 96 1151 104 1176 l 119 1140 m 63 1164 l 64 1182 q 50 1210 64 1203 q 38 1213 46 1213 q 24 1210 31 1213 q 17 1206 18 1207 q 17 1203 17 1206 q 15 1199 15 1201 q 28 1183 15 1189 l 63 1164 z "},"ِ":{"ha":0,"x_min":-122,"x_max":118,"o":"m 118 -133 l 82 -203 l -112 -279 l -122 -272 l -83 -212 l 118 -133 z "},"ّ":{"ha":0,"x_min":-131,"x_max":115,"o":"m 115 1121 q 111 1083 115 1100 q 92 1049 107 1072 q 67 1026 76 1026 q 1 1061 17 1026 q -17 1015 -1 1035 q -72 992 -37 992 q -106 1007 -92 992 q -122 1047 -121 1022 q -110 1096 -122 1064 l -107 1104 q -121 1113 -107 1113 l -131 1110 l -125 1136 q -110 1138 -119 1138 q -90 1131 -97 1138 q -87 1119 -87 1125 q -90 1100 -87 1114 q -93 1085 -93 1089 q -85 1064 -93 1072 q -62 1056 -78 1056 q -18 1083 -31 1056 q -12 1110 -12 1096 q -11 1129 -11 1125 l 6 1136 q 12 1115 7 1124 q 31 1097 17 1106 q 56 1092 40 1092 l 76 1092 q 67 1142 78 1108 l 97 1183 q 115 1121 113 1168 z "},"ْ":{"ha":0,"x_min":-68,"x_max":72,"o":"m 72 1058 q 40 1004 72 1024 q -1 994 18 994 q -43 1006 -24 994 q -68 1047 -68 1017 l -68 1106 q -60 1138 -68 1124 q -35 1158 -51 1153 l -35 1218 q 5 1199 -28 1214 q 54 1165 38 1185 q 71 1119 71 1144 l 72 1058 m -47 1082 q -26 1067 -39 1072 q 0 1064 -12 1063 q 56 1090 38 1064 q 31 1119 49 1106 q -11 1149 14 1132 l -11 1110 q -47 1082 -40 1107 z "},"ٓ":{"ha":0,"x_min":-221,"x_max":221,"o":"m 221 1167 q 131 1050 186 1093 q -10 1003 65 1003 q -115 1025 -62 1003 l -140 968 l -144 969 q -221 1088 -144 1044 l -185 1172 q -100 1125 -161 1149 q 21 1104 -37 1104 q 108 1121 67 1104 q 207 1179 157 1138 l 221 1167 z "},"ٔ":{"ha":0,"x_min":-125,"x_max":119,"o":"m 40 1079 q 119 1094 81 1089 l 99 1040 q -115 974 -26 1019 l -125 981 l -86 1039 q -62 1048 -75 1044 q -40 1056 -49 1051 q -53 1063 -43 1057 q -72 1083 -62 1069 q -81 1117 -81 1097 q -76 1132 -81 1124 q -31 1182 -58 1156 q 29 1208 -3 1208 q 59 1197 47 1208 q 76 1172 71 1185 q 81 1156 81 1160 l 49 1126 q 32 1147 42 1140 q 15 1153 22 1153 q -18 1142 -3 1153 q -35 1132 -33 1132 q 40 1079 -8 1089 z "},"ٕ":{"ha":0,"x_min":-125,"x_max":119,"o":"m 40 -247 q 119 -232 81 -237 l 99 -286 q -115 -353 -26 -307 l -125 -346 l -86 -287 q -62 -278 -75 -282 q -40 -271 -49 -275 q -53 -263 -43 -269 q -72 -243 -62 -257 q -81 -210 -81 -229 q -76 -194 -81 -203 q -31 -144 -58 -171 q 29 -118 -3 -118 q 59 -130 47 -118 q 76 -154 71 -142 q 81 -171 81 -167 l 49 -200 q 32 -180 42 -186 q 15 -174 22 -174 q -18 -184 -3 -174 q -35 -194 -33 -194 q 40 -247 -8 -237 z "},"ٖ":{"ha":0,"x_min":-36,"x_max":28,"o":"m -11 -314 q -6 -276 -6 -297 q -10 -236 -6 -260 q -36 -181 -17 -203 l -7 -132 q 24 -193 17 -165 q 28 -233 28 -208 q 14 -314 28 -276 l -11 -314 z "},"٘":{"ha":0,"x_min":-117,"x_max":125,"o":"m 108 1163 q 117 1138 111 1157 q 122 1100 122 1119 q 85 1017 122 1051 q -3 989 50 989 q -85 1017 -57 989 q -117 1093 -117 1046 q -107 1150 -117 1122 q -85 1190 -99 1175 l -76 1182 q -94 1128 -94 1157 q -88 1099 -94 1115 q -65 1072 -82 1083 q 4 1053 -39 1053 q 69 1067 46 1053 q 99 1100 92 1082 q 82 1124 94 1106 q 57 1164 69 1142 l 78 1218 l 125 1163 l 108 1163 z "},"ٙ":{"ha":0,"x_min":-131,"x_max":132,"o":"m 132 1029 l 86 972 l -124 972 l -131 982 l -78 1029 l 132 1029 z "},"ٚ":{"ha":0,"x_min":-99,"x_max":99,"o":"m 99 1146 q 47 1069 74 1125 q 13 972 22 1021 l -12 972 q -42 1061 -18 1010 q -99 1146 -69 1121 l -78 1196 q -29 1132 -53 1176 q 0 1044 -8 1092 q 9 1085 0 1060 q 33 1136 18 1111 q 78 1196 57 1179 l 99 1146 z "},"ٛ":{"ha":0,"x_min":-99,"x_max":99,"o":"m 78 972 q 33 1032 57 989 q 9 1083 18 1057 q 0 1124 0 1108 q -29 1036 -8 1076 q -78 972 -53 992 l -99 1022 q -42 1107 -69 1047 q -12 1196 -18 1158 l 13 1196 q 47 1099 22 1147 q 99 1022 74 1043 l 78 972 z "},"ٜ":{"ha":0,"x_min":-64,"x_max":65,"o":"m 0 -397 q -45 -378 -26 -397 q -64 -333 -64 -360 q -45 -288 -64 -307 q 0 -269 -26 -269 q 46 -288 26 -269 q 65 -333 65 -307 q 46 -378 65 -360 q 0 -397 26 -397 z "},"ٝ":{"ha":0,"x_min":-121,"x_max":119,"o":"m -121 1124 l -104 1186 l -69 1169 q 4 1231 -44 1207 q 108 1265 53 1256 l 119 1258 l 79 1199 q 26 1187 51 1197 q -15 1166 1 1176 q -36 1153 -32 1156 l -11 1139 q 24 1093 24 1122 q 15 1064 24 1075 l -14 1019 q -56 999 -29 999 q -78 1004 -68 999 q -106 1064 -106 1019 q -97 1113 -106 1088 l -121 1124 m -64 1100 l -65 1082 q -51 1054 -65 1061 q -39 1051 -43 1051 q -26 1054 -32 1051 q -18 1058 -19 1057 q -17 1061 -18 1058 q -17 1065 -17 1063 q -29 1081 -17 1075 l -64 1100 z "},"ٞ":{"ha":0,"x_min":-121,"x_max":117,"o":"m -117 1185 q -75 1235 -96 1207 q -46 1215 -61 1228 q -24 1190 -31 1201 q -67 1142 -40 1167 q -117 1185 -92 1169 m 117 1206 l 101 1139 l -110 1017 l -121 1021 l -100 1079 l 117 1206 m 7 1015 q 49 1065 28 1038 q 78 1045 63 1058 q 100 1021 93 1032 q 57 972 83 997 q 7 1015 32 1000 z "},"ٟ":{"ha":0,"x_min":-121,"x_max":119,"o":"m 119 -367 l 99 -418 q 40 -457 65 -426 q 27 -469 38 -460 q 5 -484 17 -479 q -21 -489 -7 -489 q -47 -482 -36 -489 q -60 -474 -58 -475 q -87 -461 -78 -461 q -111 -471 -101 -461 l -121 -464 q -103 -432 -115 -447 q -62 -412 -87 -412 q -39 -420 -54 -412 q -7 -428 -24 -428 q 17 -418 7 -428 q -27 -392 -14 -408 q -40 -361 -40 -376 q -39 -354 -40 -357 l -36 -349 q 3 -305 -21 -328 q 54 -282 28 -282 q 81 -292 71 -282 q 96 -314 92 -303 q 100 -328 100 -325 l 72 -353 q 58 -335 67 -342 q 44 -329 50 -329 q 19 -337 33 -329 q 1 -349 6 -344 q 21 -369 7 -358 q 57 -379 35 -379 q 76 -376 63 -379 l 119 -367 z "},"٠":{"ha":358,"x_min":56,"x_max":289,"o":"m 186 179 q 56 290 108 260 q 158 413 128 369 q 232 359 193 393 q 289 299 271 325 q 186 179 247 239 z "},"١":{"ha":376,"x_min":83,"x_max":279,"o":"m 206 679 q 258 450 238 582 q 279 154 278 324 q 270 86 279 121 q 251 28 261 51 q 239 0 242 6 l 225 0 q 169 361 207 218 q 117 526 154 422 l 94 586 q 83 644 83 618 q 88 674 83 663 q 101 706 92 686 l 153 810 l 238 671 l 206 679 z "},"٢":{"ha":579,"x_min":83,"x_max":482,"o":"m 479 797 q 482 732 482 753 q 450 609 482 656 q 368 540 418 563 q 267 518 322 518 l 247 519 q 278 154 278 350 q 269 86 278 121 q 251 28 261 51 q 239 0 242 6 l 225 0 q 178 326 210 190 q 114 531 156 424 q 94 586 97 578 q 83 644 83 618 q 88 674 83 663 q 101 706 92 686 l 153 810 q 166 785 156 804 q 192 744 176 765 q 311 674 249 674 q 394 698 365 674 q 433 747 424 722 q 449 810 442 772 l 479 797 z "},"٣":{"ha":699,"x_min":83,"x_max":601,"o":"m 601 765 q 597 704 601 738 q 556 592 586 629 q 467 549 522 549 q 417 557 435 549 q 385 579 399 565 q 370 560 385 576 q 332 531 356 543 q 247 514 297 513 q 269 344 261 443 q 278 154 278 257 q 269 86 278 121 q 251 28 261 51 q 239 0 242 6 l 225 0 q 171 353 208 210 q 117 524 153 426 l 94 586 q 83 644 83 618 q 88 674 83 663 q 101 706 92 686 l 153 810 q 169 778 156 803 q 201 731 182 754 q 307 674 249 674 q 366 698 346 674 q 392 749 386 722 q 400 810 397 775 l 431 797 q 442 733 431 756 q 503 696 457 696 q 554 734 540 696 q 568 810 568 772 l 600 797 l 601 765 z "},"٤":{"ha":572,"x_min":83,"x_max":475,"o":"m 475 78 q 376 32 414 46 q 283 18 338 18 q 149 76 190 18 q 107 218 107 135 q 193 417 107 344 q 163 429 192 418 q 109 473 135 440 q 83 547 83 506 q 164 729 83 661 q 248 778 204 763 q 351 810 292 794 l 331 681 l 306 669 q 215 626 250 644 q 150 582 181 608 q 190 552 172 564 q 240 532 208 540 q 343 518 285 518 q 406 522 371 518 l 388 414 q 245 331 300 375 q 161 228 190 288 q 278 167 197 167 q 378 180 335 167 q 475 222 422 193 l 475 78 z "},"٥":{"ha":504,"x_min":72,"x_max":438,"o":"m 438 199 q 413 128 438 169 q 345 67 389 89 q 253 44 301 44 q 139 81 188 44 q 89 143 106 106 q 72 222 72 181 l 72 304 q 99 469 72 406 q 188 585 125 533 q 161 607 163 606 l 161 753 q 272 673 229 706 q 351 596 315 640 q 438 364 438 490 l 438 199 m 251 190 q 403 289 358 190 q 225 553 386 410 l 225 475 q 118 292 133 417 q 126 266 118 290 q 167 216 133 242 q 251 190 201 190 z "},"٦":{"ha":611,"x_min":83,"x_max":514,"o":"m 457 717 q 447 511 447 626 q 451 393 447 451 q 514 188 467 243 l 469 0 q 382 103 411 19 q 351 329 351 183 l 353 376 q 363 522 354 446 l 365 565 q 285 557 321 557 q 114 622 163 557 q 83 728 83 664 q 87 773 83 753 q 90 797 90 793 l 121 810 q 132 772 126 786 q 151 743 138 757 q 258 713 185 713 q 442 739 346 713 l 457 717 z "},"٧":{"ha":760,"x_min":83,"x_max":663,"o":"m 663 628 q 600 546 635 599 q 532 422 565 493 q 424 0 444 231 l 379 0 q 328 191 364 92 q 246 382 293 290 q 160 530 204 464 q 83 626 117 596 l 140 801 q 297 561 225 722 q 394 250 360 413 q 475 571 418 424 q 614 801 536 721 l 663 628 z "},"٨":{"ha":760,"x_min":83,"x_max":663,"o":"m 83 175 q 165 285 119 211 q 247 463 210 360 q 324 801 307 622 l 367 801 q 482 457 394 639 q 577 285 528 361 q 663 175 626 210 l 607 0 q 458 222 529 69 q 353 553 393 367 q 271 231 329 375 q 132 0 214 83 l 83 175 z "},"٩":{"ha":567,"x_min":79,"x_max":469,"o":"m 425 0 q 310 250 324 35 q 308 319 308 274 q 317 503 308 374 l 282 443 l 231 443 q 118 481 157 443 q 83 579 79 519 l 97 700 q 138 774 101 739 q 232 810 175 810 q 360 728 313 810 q 408 496 408 646 q 425 306 408 385 q 469 188 442 228 l 425 0 m 306 590 q 273 649 296 619 q 218 678 250 678 q 180 667 196 678 q 156 644 164 656 q 146 628 147 632 q 156 605 146 619 q 197 590 165 590 l 306 590 z "},"٪":{"ha":833,"x_min":0,"x_max":0,"o":""},"٫":{"ha":242,"x_min":0,"x_max":242,"o":"m 74 -278 l 0 -278 l 168 135 l 242 135 l 74 -278 z "},"٬":{"ha":181,"x_min":0,"x_max":181,"o":"m 74 -114 l 0 -114 l 107 149 l 181 149 l 74 -114 z "},"٭":{"ha":496,"x_min":56,"x_max":440,"o":"m 388 700 q 436 669 421 696 q 440 650 440 660 q 435 626 440 636 q 401 603 422 604 q 397 601 400 601 q 347 628 371 601 q 282 688 326 649 q 269 679 281 685 q 289 596 278 633 q 294 568 294 585 q 286 538 294 550 q 249 518 274 518 q 211 535 224 518 q 201 568 201 550 q 206 593 201 581 q 225 679 218 632 l 214 686 q 149 628 181 660 q 101 600 128 600 l 99 600 q 63 625 76 603 q 56 651 56 639 q 58 665 56 657 q 107 699 69 690 q 192 725 139 704 l 192 732 l 192 739 q 107 765 140 758 q 60 796 71 772 q 58 804 60 799 q 56 814 56 810 q 63 839 56 822 q 97 864 75 861 q 147 838 124 867 q 214 778 168 815 l 225 783 q 206 871 215 842 q 201 897 201 886 q 210 928 201 915 q 247 946 219 946 q 286 929 274 946 q 294 900 294 919 q 289 871 294 890 q 269 785 283 854 l 282 778 q 346 836 329 818 q 369 856 356 849 q 397 863 383 864 q 433 840 419 863 q 440 814 440 828 q 438 800 440 808 q 389 765 429 776 q 304 739 358 758 l 304 732 l 304 725 q 388 700 358 706 z "},"ٮ":{"ha":1165,"x_min":97,"x_max":1082,"o":"m 1082 225 q 1077 156 1082 188 q 1071 115 1072 124 q 1052 97 1071 113 q 984 58 1033 81 q 850 13 935 35 q 501 -35 668 -35 q 193 40 299 -35 q 119 125 142 76 q 97 224 97 174 q 122 349 97 282 q 175 446 146 417 l 197 425 q 175 369 186 403 q 164 301 164 336 q 281 153 164 199 q 557 118 374 118 q 846 139 717 118 q 1033 192 958 157 q 999 266 1024 235 q 949 317 975 297 q 922 333 922 336 l 961 481 q 1039 401 1008 450 q 1082 225 1082 331 z "},"ٯ":{"ha":788,"x_min":97,"x_max":704,"o":"m 511 392 q 594 356 557 392 q 657 254 631 319 q 691 135 678 201 q 704 8 704 68 q 604 -233 704 -151 q 505 -286 563 -268 q 382 -304 447 -304 q 175 -233 251 -304 q 115 -140 132 -193 q 97 -40 97 -87 q 119 106 97 39 q 176 208 140 167 l 199 186 q 166 128 181 165 q 151 51 151 90 q 167 -23 151 18 q 226 -94 182 -64 q 401 -140 292 -140 q 565 -103 507 -140 q 640 -19 622 -65 q 617 60 635 1 l 604 99 l 567 28 q 444 54 488 28 q 392 153 396 86 l 392 275 q 427 356 392 321 q 511 392 463 392 m 582 175 q 573 201 582 179 q 546 241 564 222 q 503 260 528 260 q 467 248 482 260 q 444 223 453 236 q 435 206 436 210 q 447 188 435 200 q 489 175 458 175 l 582 175 z "},"ٰ":{"ha":0,"x_min":-36,"x_max":28,"o":"m -11 1011 q -6 1047 -6 1028 q -10 1086 -6 1064 q -36 1143 -17 1121 l -7 1193 q 24 1131 17 1157 q 28 1090 28 1117 q 14 1011 28 1050 l -11 1011 z "},"ٱ":{"ha":235,"x_min":-17,"x_max":225,"o":"m 179 706 l 149 713 l 157 614 q 178 325 174 431 q 179 231 179 297 q 175 133 179 163 q 156 58 169 85 q 133 23 146 40 q 115 0 119 6 l 100 0 q 101 19 100 4 q 101 58 101 33 q 93 233 101 140 q 60 507 85 340 q 47 598 53 554 q 42 668 42 642 q 48 718 42 700 q 67 753 54 736 l 133 849 l 179 706 m 158 1043 q 203 1028 185 1043 q 219 1006 214 1018 q 225 989 225 993 q 210 953 218 967 q 189 926 203 939 q 93 896 153 896 q 42 899 64 896 q 28 901 33 900 q 15 903 22 903 q 6 899 8 903 q 2 888 4 896 q -1 876 0 881 l -17 886 l -17 951 q -15 963 -17 954 q -4 971 -12 971 q 18 963 1 971 q 31 958 18 963 q 44 956 39 956 q 88 1010 60 982 q 158 1043 129 1043 m 157 957 q 179 967 172 961 q 188 974 186 972 q 184 981 188 975 q 174 990 181 986 q 144 1000 164 1000 q 94 983 115 1000 q 73 965 82 975 q 63 953 64 956 q 67 951 63 953 q 82 951 71 951 l 106 951 q 157 957 132 951 z "},"ٲ":{"ha":235,"x_min":-17,"x_max":224,"o":"m 179 706 l 149 713 l 157 614 q 178 325 174 431 q 179 231 179 297 q 175 133 179 163 q 156 58 169 85 q 133 23 146 40 q 115 0 119 6 l 100 0 q 101 19 100 4 q 101 58 101 33 q 93 233 101 140 q 60 507 85 340 q 47 598 53 554 q 42 668 42 642 q 48 718 42 700 q 67 753 54 736 l 133 849 l 179 706 m 224 999 l 203 947 q 144 908 169 939 q 131 896 142 906 q 109 881 121 886 q 83 876 97 876 q 57 883 68 876 q 44 892 46 890 q 17 904 26 904 q -7 894 3 904 l -17 901 q 1 933 -11 918 q 42 953 17 953 q 65 945 50 953 q 97 938 81 938 q 121 947 111 938 q 77 973 90 957 q 64 1004 64 989 q 65 1011 64 1008 l 68 1017 q 108 1060 83 1038 q 158 1083 132 1083 q 185 1073 175 1083 q 200 1051 196 1063 q 204 1038 204 1040 l 176 1013 q 163 1030 171 1024 q 149 1036 154 1036 q 124 1028 138 1036 q 106 1017 110 1021 q 125 997 111 1007 q 161 986 139 986 q 181 989 167 986 l 224 999 z "},"ٳ":{"ha":235,"x_min":-1,"x_max":239,"o":"m 179 706 l 149 713 l 157 614 q 178 325 174 431 q 179 231 179 297 q 175 133 179 163 q 156 58 169 85 q 133 23 146 40 q 115 0 119 6 l 100 0 q 101 19 100 4 q 101 58 101 33 q 93 233 101 140 q 60 507 85 340 q 47 598 53 554 q 42 668 42 642 q 48 718 42 700 q 67 753 54 736 l 133 849 l 179 706 m 239 -132 l 218 -183 q 160 -222 185 -192 q 147 -235 157 -225 q 124 -249 136 -244 q 99 -254 113 -254 q 72 -247 83 -254 q 60 -239 61 -240 q 32 -226 42 -226 q 8 -236 18 -226 l -1 -229 q 17 -197 4 -212 q 57 -178 32 -178 q 81 -185 65 -178 q 113 -193 96 -193 q 136 -183 126 -193 q 92 -158 106 -174 q 79 -126 79 -142 q 81 -119 79 -122 l 83 -114 q 123 -70 99 -93 q 174 -47 147 -47 q 201 -58 190 -47 q 215 -79 211 -68 q 219 -93 219 -90 l 192 -118 q 178 -101 186 -107 q 164 -94 169 -94 q 139 -102 153 -94 q 121 -114 125 -110 q 140 -134 126 -124 q 176 -144 154 -144 q 196 -142 182 -144 l 239 -132 z "},"ٵ":{"ha":235,"x_min":42,"x_max":411,"o":"m 179 706 l 149 713 l 157 614 q 178 325 174 431 q 179 231 179 297 q 175 133 179 163 q 156 58 169 85 q 133 23 146 40 q 115 0 119 6 l 100 0 q 101 19 100 4 q 101 58 101 33 q 93 233 101 140 q 60 507 85 340 q 47 598 53 554 q 42 668 42 642 q 48 718 42 700 q 67 753 54 736 l 133 849 l 179 706 m 332 982 q 411 997 372 992 l 390 943 q 176 876 265 922 l 167 883 l 206 942 q 230 951 217 947 q 251 958 243 954 q 239 966 249 960 q 220 986 229 972 q 211 1019 211 1000 q 215 1035 211 1026 q 261 1085 233 1058 q 321 1111 289 1111 q 351 1099 339 1111 q 367 1075 363 1088 q 372 1058 372 1063 l 340 1029 q 324 1049 333 1043 q 307 1056 314 1056 q 274 1045 289 1056 q 257 1035 258 1035 q 332 982 283 992 z "},"ٶ":{"ha":535,"x_min":0,"x_max":465,"o":"m 182 353 q 300 271 254 353 q 338 169 325 228 q 351 46 351 110 q 322 -128 353 -57 q 239 -229 292 -192 q 165 -264 203 -254 q 103 -274 128 -274 l 103 -353 l 99 -354 q 65 -303 89 -325 q 0 -282 40 -281 l 0 -136 q 99 -128 56 -135 q 182 -97 142 -121 q 274 24 249 -58 q 260 72 269 44 l 217 0 l 194 0 q 88 35 125 0 q 60 79 67 54 q 54 128 53 104 l 67 249 q 102 319 71 286 q 182 353 133 353 m 244 147 q 217 205 233 181 q 172 229 201 229 q 136 219 151 229 q 113 198 121 208 q 103 183 104 188 q 113 161 103 175 q 151 147 122 147 l 244 147 m 386 515 q 465 531 426 525 l 444 476 q 231 410 319 456 l 221 417 l 260 475 q 284 484 271 481 q 306 492 297 488 q 293 499 303 493 q 274 519 283 506 q 265 553 265 533 q 269 568 265 560 q 315 618 288 592 q 375 644 343 644 q 405 633 393 644 q 422 608 417 621 q 426 592 426 596 l 394 563 q 378 583 388 576 q 361 589 368 589 q 328 578 343 589 q 311 568 313 568 q 386 515 338 525 z "},"ٷ":{"ha":472,"x_min":0,"x_max":389,"o":"m 210 510 l 197 458 l 167 472 q 107 420 147 440 q 21 392 67 400 l 10 397 l 43 447 q 88 458 67 449 q 123 475 110 467 q 139 486 136 483 l 118 497 q 90 538 90 511 q 97 560 90 553 l 122 597 q 136 609 126 604 q 156 614 146 614 q 174 610 165 614 q 199 561 199 597 q 190 519 199 540 l 210 510 m 340 479 q 372 485 357 485 q 389 478 386 485 l 388 447 q 210 392 283 431 l 201 397 l 233 446 q 254 454 243 450 q 274 460 265 458 q 263 467 271 461 q 248 483 256 472 q 240 511 240 494 q 242 525 240 519 q 269 557 243 526 q 329 588 294 588 q 356 578 346 588 q 369 557 365 568 q 374 543 374 546 l 346 519 q 332 536 340 531 q 318 542 324 542 q 292 534 306 542 q 276 525 279 526 q 299 499 283 513 q 340 479 315 485 m 164 529 l 164 542 q 151 568 164 564 q 142 571 146 571 q 131 568 136 571 q 124 564 125 565 q 122 563 124 564 q 122 560 122 561 q 133 546 122 551 l 164 529 m 300 271 q 338 169 325 228 q 351 46 351 110 q 322 -128 353 -57 q 239 -229 292 -192 q 165 -264 203 -254 q 103 -274 128 -274 l 103 -353 l 99 -354 q 65 -303 89 -325 q 0 -282 40 -281 l 0 -136 q 99 -128 56 -135 q 182 -97 142 -121 q 274 24 249 -58 q 260 72 269 44 l 217 0 l 194 0 q 88 35 125 0 q 60 79 67 54 q 54 128 53 104 l 67 249 q 102 319 71 286 q 182 353 133 353 q 300 271 254 353 m 244 147 q 217 205 233 181 q 172 229 201 229 q 136 219 151 229 q 113 198 121 208 q 103 183 104 188 q 113 161 103 175 q 151 147 122 147 l 244 147 z "},"ٸ":{"ha":1049,"x_min":97,"x_max":965,"o":"m 600 161 q 669 146 646 154 q 711 124 693 138 q 744 57 744 99 q 743 33 744 40 q 718 -86 733 -31 q 676 -148 710 -117 q 593 -206 643 -179 q 490 -249 544 -233 q 386 -265 435 -265 q 256 -244 313 -265 q 168 -189 200 -224 q 113 -93 129 -146 q 97 10 97 -40 q 101 62 97 26 q 121 143 106 97 q 176 246 142 208 l 199 238 q 183 203 196 231 q 162 144 171 176 q 153 79 153 111 q 228 -62 153 -11 q 390 -108 294 -108 q 550 -86 482 -108 q 619 -54 590 -72 q 668 -6 649 -36 q 644 9 667 4 q 581 18 621 14 l 549 22 q 447 63 479 32 q 419 144 419 90 q 437 238 419 188 q 485 333 454 289 q 563 415 519 385 q 653 446 607 446 q 731 410 703 446 q 760 321 760 374 q 739 236 760 272 l 706 225 q 693 294 707 274 q 646 314 679 314 q 573 290 606 314 q 496 214 540 265 q 519 178 496 188 q 600 161 543 169 m 886 610 q 965 625 926 619 l 944 571 q 731 504 819 550 l 721 511 l 760 569 q 784 578 771 575 q 806 586 797 582 q 793 594 803 588 q 774 614 783 600 q 765 647 765 628 q 769 663 765 654 q 815 713 788 686 q 875 739 843 739 q 905 727 893 739 q 922 703 917 715 q 926 686 926 690 l 894 657 q 878 677 888 671 q 861 683 868 683 q 828 673 843 683 q 811 663 813 663 q 886 610 838 619 z "},"ٹ":{"ha":1165,"x_min":97,"x_max":1082,"o":"m 1082 225 q 1077 156 1082 188 q 1071 115 1072 124 q 1052 97 1071 113 q 984 58 1033 81 q 850 13 935 35 q 501 -35 668 -35 q 193 40 299 -35 q 119 125 142 76 q 97 224 97 174 q 122 349 97 282 q 175 446 146 417 l 197 425 q 175 369 186 403 q 164 301 164 336 q 281 153 164 199 q 557 118 374 118 q 846 139 717 118 q 1033 192 958 157 q 999 266 1024 235 q 949 317 975 297 q 922 333 922 336 l 961 481 q 1039 401 1008 450 q 1082 225 1082 331 m 460 383 q 480 382 465 383 q 510 381 494 381 l 540 382 q 561 410 554 403 q 556 503 561 465 q 535 578 549 549 l 528 585 l 528 590 q 531 610 528 603 q 538 624 532 617 q 553 631 543 631 q 582 592 563 607 q 572 574 572 586 q 574 563 572 567 q 586 500 583 518 q 588 478 588 493 q 581 432 588 456 q 647 464 618 464 q 690 446 672 464 q 708 414 700 433 q 704 401 707 411 q 694 381 701 390 q 664 351 683 364 q 589 333 639 333 l 490 332 l 460 383 m 601 376 q 690 401 661 376 q 684 410 688 404 q 676 418 681 417 q 643 429 665 429 q 581 406 610 429 q 563 388 571 397 q 553 376 554 379 l 601 376 z "},"ٺ":{"ha":1165,"x_min":97,"x_max":1082,"o":"m 1082 225 q 1077 156 1082 188 q 1071 115 1072 124 q 1052 97 1071 113 q 984 58 1033 81 q 850 13 935 35 q 501 -35 668 -35 q 193 40 299 -35 q 119 125 142 76 q 97 224 97 174 q 122 349 97 282 q 175 446 146 417 l 197 425 q 175 369 186 403 q 164 301 164 336 q 281 153 164 199 q 557 118 374 118 q 846 139 717 118 q 1033 192 958 157 q 999 266 1024 235 q 949 317 975 297 q 922 333 922 336 l 961 481 q 1039 401 1008 450 q 1082 225 1082 331 m 597 481 q 665 417 644 449 q 592 332 632 371 q 503 407 540 386 q 576 492 550 458 q 503 551 539 529 q 576 638 546 594 q 627 601 601 624 q 665 561 653 579 q 597 481 640 524 z "},"ٻ":{"ha":1165,"x_min":97,"x_max":1082,"o":"m 1082 225 q 1077 156 1082 188 q 1071 115 1072 124 q 1052 97 1071 113 q 984 58 1033 81 q 850 13 935 35 q 501 -35 668 -35 q 193 40 299 -35 q 119 125 142 76 q 97 224 97 174 q 122 349 97 282 q 175 446 146 417 l 197 425 q 175 369 186 403 q 164 301 164 336 q 281 153 164 199 q 557 118 374 118 q 846 139 717 118 q 1033 192 958 157 q 999 266 1024 235 q 949 317 975 297 q 922 333 922 336 l 961 481 q 1039 401 1008 450 q 1082 225 1082 331 m 613 -274 q 681 -337 660 -306 q 607 -422 647 -383 q 518 -347 556 -368 q 592 -262 565 -296 q 518 -203 554 -225 q 592 -117 561 -160 q 642 -153 617 -131 q 681 -193 668 -175 q 613 -274 656 -231 z "},"ټ":{"ha":1165,"x_min":97,"x_max":1082,"o":"m 585 396 q 528 332 561 365 q 439 407 471 389 q 513 493 497 474 q 589 432 556 471 q 640 493 626 472 q 691 458 665 481 q 729 417 717 436 q 656 332 696 371 q 585 396 619 369 m 1082 225 q 1077 156 1082 188 q 1071 115 1072 124 q 1052 97 1071 113 q 984 58 1033 81 q 850 13 935 35 q 660 -24 760 -11 q 667 -57 667 -40 l 667 -101 q 646 -149 667 -132 q 600 -167 625 -167 q 554 -149 575 -167 q 533 -101 533 -132 l 533 -57 q 536 -35 533 -46 l 501 -35 q 193 40 299 -35 q 119 125 142 76 q 97 224 97 174 q 122 349 97 282 q 175 446 146 417 l 197 425 q 175 369 186 403 q 164 301 164 336 q 281 153 164 199 q 557 118 374 118 q 846 139 717 118 q 1033 192 958 157 q 999 266 1024 235 q 949 317 975 297 q 922 333 922 336 l 961 481 q 1039 401 1008 450 q 1082 225 1082 331 m 600 -106 q 647 -82 632 -106 q 634 -44 647 -57 q 600 -32 621 -32 q 566 -44 579 -32 q 553 -82 553 -57 q 600 -106 568 -106 z "},"ٽ":{"ha":1165,"x_min":97,"x_max":1082,"o":"m 1082 225 q 1077 156 1082 188 q 1071 115 1072 124 q 1052 97 1071 113 q 984 58 1033 81 q 850 13 935 35 q 501 -35 668 -35 q 193 40 299 -35 q 119 125 142 76 q 97 224 97 174 q 122 349 97 282 q 175 446 146 417 l 197 425 q 175 369 186 403 q 164 301 164 336 q 281 153 164 199 q 557 118 374 118 q 846 139 717 118 q 1033 192 958 157 q 999 266 1024 235 q 949 317 975 297 q 922 333 922 336 l 961 481 q 1039 401 1008 450 q 1082 225 1082 331 m 439 556 q 513 642 497 621 q 589 581 556 619 q 640 642 626 621 q 691 607 665 629 q 729 565 717 585 q 656 481 696 519 q 585 544 619 518 q 528 481 561 514 q 439 556 471 538 m 513 407 q 586 494 572 474 q 637 458 611 481 q 675 417 663 436 q 601 332 646 376 q 513 407 550 386 z "},"پ":{"ha":1165,"x_min":97,"x_max":1082,"o":"m 1082 225 q 1077 156 1082 188 q 1071 115 1072 124 q 1052 97 1071 113 q 984 58 1033 81 q 850 13 935 35 q 501 -35 668 -35 q 193 40 299 -35 q 119 125 142 76 q 97 224 97 174 q 122 349 97 282 q 175 446 146 417 l 197 425 q 175 369 186 403 q 164 301 164 336 q 281 153 164 199 q 557 118 374 118 q 846 139 717 118 q 1033 192 958 157 q 999 266 1024 235 q 949 317 975 297 q 922 333 922 336 l 961 481 q 1039 401 1008 450 q 1082 225 1082 331 m 456 -203 q 529 -117 514 -137 q 606 -178 572 -139 q 657 -117 643 -137 q 708 -151 682 -129 q 746 -193 733 -174 q 672 -278 713 -239 q 601 -214 636 -240 q 544 -278 578 -244 q 456 -203 488 -221 m 529 -351 q 603 -264 589 -285 q 653 -300 628 -278 q 692 -342 679 -322 q 618 -426 663 -382 q 529 -351 567 -372 z "},"ٿ":{"ha":1165,"x_min":97,"x_max":1082,"o":"m 1082 225 q 1077 156 1082 188 q 1071 115 1072 124 q 1052 97 1071 113 q 984 58 1033 81 q 850 13 935 35 q 501 -35 668 -35 q 193 40 299 -35 q 119 125 142 76 q 97 224 97 174 q 122 349 97 282 q 175 446 146 417 l 197 425 q 175 369 186 403 q 164 301 164 336 q 281 153 164 199 q 557 118 374 118 q 846 139 717 118 q 1033 192 958 157 q 999 266 1024 235 q 949 317 975 297 q 922 333 922 336 l 961 481 q 1039 401 1008 450 q 1082 225 1082 331 m 438 407 q 511 493 496 472 q 438 551 467 535 q 511 638 483 604 q 553 610 531 626 q 589 576 575 593 l 640 638 q 691 603 665 625 q 729 561 717 581 q 660 481 699 518 q 699 451 681 468 q 729 417 718 433 q 656 332 696 371 q 585 396 614 376 q 526 332 567 372 q 438 407 475 386 m 531 481 q 589 432 563 460 l 640 493 q 585 540 604 526 q 531 481 575 528 z "},"ڀ":{"ha":1165,"x_min":97,"x_max":1082,"o":"m 1082 225 q 1077 156 1082 188 q 1071 115 1072 124 q 1052 97 1071 113 q 984 58 1033 81 q 850 13 935 35 q 501 -35 668 -35 q 193 40 299 -35 q 119 125 142 76 q 97 224 97 174 q 122 349 97 282 q 175 446 146 417 l 197 425 q 175 369 186 403 q 164 301 164 336 q 281 153 164 199 q 557 118 374 118 q 846 139 717 118 q 1033 192 958 157 q 999 266 1024 235 q 949 317 975 297 q 922 333 922 336 l 961 481 q 1039 401 1008 450 q 1082 225 1082 331 m 454 -347 q 528 -261 500 -294 q 454 -203 489 -222 q 528 -117 500 -150 q 569 -144 547 -128 q 606 -178 592 -161 l 657 -117 q 708 -151 682 -129 q 746 -193 733 -174 q 676 -272 718 -232 q 746 -337 725 -304 q 672 -422 713 -383 q 601 -358 631 -378 q 543 -422 583 -382 q 454 -347 492 -368 m 547 -272 q 606 -322 581 -293 l 657 -261 q 601 -214 615 -222 q 547 -272 589 -231 z "},"ځ":{"ha":799,"x_min":97,"x_max":699,"o":"m 688 -374 l 565 -514 l 485 -512 q 324 -491 390 -511 q 207 -424 257 -471 q 126 -299 154 -374 q 97 -137 97 -224 q 129 31 97 -44 q 211 158 161 107 q 156 208 192 179 q 108 244 119 236 l 108 310 q 142 408 108 365 q 256 465 186 465 q 415 436 299 465 q 552 405 508 413 q 647 396 596 397 l 699 394 l 646 256 q 614 255 639 256 q 549 248 589 254 q 465 228 508 242 q 281 133 363 196 q 283 110 283 117 q 280 85 283 94 q 275 72 276 75 q 268 89 274 76 q 256 108 263 101 q 197 19 221 74 q 172 -93 172 -35 q 206 -215 172 -160 q 301 -310 240 -271 q 554 -374 403 -374 l 688 -374 m 163 300 q 256 199 226 251 q 438 310 331 269 q 343 326 411 313 q 250 340 283 340 q 191 328 214 340 q 163 300 168 315 m 411 607 q 490 622 451 617 l 469 568 q 256 501 344 547 l 246 508 l 285 567 q 309 576 296 572 q 331 583 322 579 q 318 591 328 585 q 299 611 308 597 q 290 644 290 625 q 294 660 290 651 q 340 710 313 683 q 400 736 368 736 q 430 724 418 736 q 447 700 442 713 q 451 683 451 688 l 419 654 q 403 674 413 668 q 386 681 393 681 q 353 670 368 681 q 336 660 338 660 q 411 607 363 617 z "},"ڂ":{"ha":799,"x_min":97,"x_max":699,"o":"m 688 -374 l 565 -514 l 485 -512 q 324 -491 390 -511 q 207 -424 257 -471 q 126 -299 154 -374 q 97 -137 97 -224 q 129 31 97 -44 q 211 158 161 107 q 156 208 192 179 q 108 244 119 236 l 108 310 q 142 408 108 365 q 256 465 186 465 q 415 436 299 465 q 552 405 508 413 q 647 396 596 397 l 699 394 l 646 256 q 614 255 639 256 q 549 248 589 254 q 465 228 508 242 q 281 133 363 196 q 283 110 283 117 q 280 85 283 94 q 275 72 276 75 q 268 89 274 76 q 256 108 263 101 q 197 19 221 74 q 172 -93 172 -35 q 206 -215 172 -160 q 301 -310 240 -271 q 554 -374 403 -374 l 688 -374 m 163 300 q 256 199 226 251 q 438 310 331 269 q 343 326 411 313 q 250 340 283 340 q 191 328 214 340 q 163 300 168 315 m 382 676 q 450 613 429 644 q 376 528 417 567 q 288 603 325 582 q 361 688 335 654 q 288 747 324 725 q 361 833 331 790 q 412 797 386 819 q 450 757 438 775 q 382 676 425 719 z "},"ڃ":{"ha":799,"x_min":97,"x_max":699,"o":"m 688 -374 l 565 -514 l 485 -512 q 324 -491 390 -511 q 207 -424 257 -471 q 126 -299 154 -374 q 97 -137 97 -224 q 129 31 97 -44 q 211 158 161 107 q 156 208 192 179 q 108 244 119 236 l 108 310 q 142 408 108 365 q 256 465 186 465 q 415 436 299 465 q 552 405 508 413 q 647 396 596 397 l 699 394 l 646 256 q 614 255 639 256 q 549 248 589 254 q 465 228 508 242 q 281 133 363 196 q 283 110 283 117 q 280 85 283 94 q 275 72 276 75 q 268 89 274 76 q 256 108 263 101 q 197 19 221 74 q 172 -93 172 -35 q 206 -215 172 -160 q 301 -310 240 -271 q 554 -374 403 -374 l 688 -374 m 163 300 q 256 199 226 251 q 438 310 331 269 q 343 326 411 313 q 250 340 283 340 q 191 328 214 340 q 163 300 168 315 m 315 -79 q 389 7 374 -14 q 465 -54 432 -15 q 517 7 503 -14 q 567 -28 542 -6 q 606 -69 593 -50 q 532 -154 572 -115 q 461 -90 496 -117 q 404 -154 438 -121 q 315 -79 347 -97 z "},"ڄ":{"ha":799,"x_min":97,"x_max":699,"o":"m 688 -374 l 565 -514 l 485 -512 q 324 -491 390 -511 q 207 -424 257 -471 q 126 -299 154 -374 q 97 -137 97 -224 q 129 31 97 -44 q 211 158 161 107 q 156 208 192 179 q 108 244 119 236 l 108 310 q 142 408 108 365 q 256 465 186 465 q 415 436 299 465 q 552 405 508 413 q 647 396 596 397 l 699 394 l 646 256 q 614 255 639 256 q 549 248 589 254 q 465 228 508 242 q 281 133 363 196 q 283 110 283 117 q 280 85 283 94 q 275 72 276 75 q 268 89 274 76 q 256 108 263 101 q 197 19 221 74 q 172 -93 172 -35 q 206 -215 172 -160 q 301 -310 240 -271 q 554 -374 403 -374 l 688 -374 m 163 300 q 256 199 226 251 q 438 310 331 269 q 343 326 411 313 q 250 340 283 340 q 191 328 214 340 q 163 300 168 315 m 474 -72 q 542 -136 521 -104 q 468 -221 508 -182 q 379 -146 417 -167 q 453 -61 426 -94 q 379 -1 415 -24 q 453 85 422 42 q 503 49 478 71 q 542 8 529 26 q 474 -72 517 -29 z "},"څ":{"ha":799,"x_min":97,"x_max":699,"o":"m 688 -374 l 565 -514 l 485 -512 q 324 -491 390 -511 q 207 -424 257 -471 q 126 -299 154 -374 q 97 -137 97 -224 q 129 31 97 -44 q 211 158 161 107 q 156 208 192 179 q 108 244 119 236 l 108 310 q 142 408 108 365 q 256 465 186 465 q 415 436 299 465 q 552 405 508 413 q 647 396 596 397 l 699 394 l 646 256 q 614 255 639 256 q 549 248 589 254 q 465 228 508 242 q 281 133 363 196 q 283 110 283 117 q 280 85 283 94 q 275 72 276 75 q 268 89 274 76 q 256 108 263 101 q 197 19 221 74 q 172 -93 172 -35 q 206 -215 172 -160 q 301 -310 240 -271 q 554 -374 403 -374 l 688 -374 m 163 300 q 256 199 226 251 q 438 310 331 269 q 343 326 411 313 q 250 340 283 340 q 191 328 214 340 q 163 300 168 315 m 283 753 q 357 839 325 797 q 407 804 381 826 q 446 763 433 782 q 372 678 413 717 q 283 753 325 726 m 222 603 q 296 689 268 656 q 338 661 315 678 q 374 628 360 644 l 425 689 q 476 654 450 676 q 514 613 501 632 q 440 528 481 567 q 369 592 399 572 q 311 528 351 568 q 222 603 260 582 z "},"چ":{"ha":799,"x_min":97,"x_max":699,"o":"m 688 -374 l 565 -514 l 485 -512 q 324 -491 390 -511 q 207 -424 257 -471 q 126 -299 154 -374 q 97 -137 97 -224 q 129 31 97 -44 q 211 158 161 107 q 156 208 192 179 q 108 244 119 236 l 108 310 q 142 408 108 365 q 256 465 186 465 q 415 436 299 465 q 552 405 508 413 q 647 396 596 397 l 699 394 l 646 256 q 614 255 639 256 q 549 248 589 254 q 465 228 508 242 q 281 133 363 196 q 283 110 283 117 q 280 85 283 94 q 275 72 276 75 q 268 89 274 76 q 256 108 263 101 q 197 19 221 74 q 172 -93 172 -35 q 206 -215 172 -160 q 301 -310 240 -271 q 554 -374 403 -374 l 688 -374 m 163 300 q 256 199 226 251 q 438 310 331 269 q 343 326 411 313 q 250 340 283 340 q 191 328 214 340 q 163 300 168 315 m 315 -19 q 389 67 374 46 q 465 6 432 44 q 517 67 503 46 q 567 32 542 54 q 606 -10 593 10 q 532 -94 572 -56 q 461 -31 496 -57 q 404 -94 438 -61 q 315 -19 347 -37 m 389 -168 q 463 -81 449 -101 q 513 -117 488 -94 q 551 -158 539 -139 q 478 -243 522 -199 q 389 -168 426 -189 z "},"ڇ":{"ha":799,"x_min":97,"x_max":699,"o":"m 688 -374 l 565 -514 l 485 -512 q 324 -491 390 -511 q 207 -424 257 -471 q 126 -299 154 -374 q 97 -137 97 -224 q 129 31 97 -44 q 211 158 161 107 q 156 208 192 179 q 108 244 119 236 l 108 310 q 142 408 108 365 q 256 465 186 465 q 415 436 299 465 q 552 405 508 413 q 647 396 596 397 l 699 394 l 646 256 q 614 255 639 256 q 549 248 589 254 q 465 228 508 242 q 281 133 363 196 q 283 110 283 117 q 280 85 283 94 q 275 72 276 75 q 268 89 274 76 q 256 108 263 101 q 197 19 221 74 q 172 -93 172 -35 q 206 -215 172 -160 q 301 -310 240 -271 q 554 -374 403 -374 l 688 -374 m 163 300 q 256 199 226 251 q 438 310 331 269 q 343 326 411 313 q 250 340 283 340 q 191 328 214 340 q 163 300 168 315 m 314 -161 q 388 -75 360 -108 q 314 -17 349 -36 q 388 69 360 36 q 429 42 407 58 q 465 8 451 25 l 517 69 q 567 35 542 57 q 606 -7 593 13 q 536 -86 578 -46 q 606 -151 585 -118 q 532 -236 572 -197 q 461 -172 490 -192 q 403 -236 443 -196 q 314 -161 351 -182 m 407 -86 q 465 -136 440 -107 l 517 -75 q 461 -28 475 -36 q 407 -86 449 -44 z "},"ڈ":{"ha":540,"x_min":69,"x_max":457,"o":"m 339 389 q 424 303 390 354 q 457 185 457 251 q 386 38 457 90 q 315 2 357 15 q 222 -11 272 -11 q 69 118 69 -11 q 71 162 69 139 q 72 193 72 185 q 138 147 94 160 q 244 133 182 133 q 331 137 283 133 q 406 146 378 140 q 338 227 375 192 q 267 281 300 263 q 215 301 233 300 l 200 276 l 165 293 q 137 319 149 301 q 131 351 125 338 l 183 468 q 208 453 190 461 q 233 443 226 446 q 339 389 300 415 m 69 581 q 90 579 75 581 q 119 578 104 578 l 150 579 q 171 607 164 600 q 165 700 171 663 q 144 775 158 746 l 138 782 l 138 788 q 140 807 138 800 q 147 821 142 814 q 163 828 153 828 q 192 789 172 804 q 182 771 182 783 q 183 760 182 764 q 196 697 193 715 q 197 675 197 690 q 190 629 197 653 q 257 661 228 661 q 300 643 282 661 q 318 611 310 631 q 314 598 317 608 q 304 578 311 588 q 274 549 293 561 q 199 531 249 531 l 100 529 l 69 581 m 211 574 q 300 599 271 574 q 294 608 297 601 q 286 615 290 614 q 253 626 275 626 q 190 603 219 626 q 172 585 181 594 q 163 574 164 576 l 211 574 z "},"ډ":{"ha":540,"x_min":69,"x_max":457,"o":"m 339 389 q 424 303 390 354 q 457 185 457 251 q 386 38 457 90 q 296 -3 346 8 q 303 -36 303 -19 l 303 -81 q 282 -128 303 -111 q 236 -146 261 -146 q 190 -128 211 -146 q 169 -81 169 -111 l 169 -36 q 175 -7 169 -18 q 69 118 69 13 q 71 162 69 139 q 72 193 72 185 q 138 147 94 160 q 244 133 182 133 q 331 137 283 133 q 406 146 378 140 q 338 227 375 192 q 267 281 300 263 q 215 301 233 300 l 200 276 l 165 293 q 137 319 149 301 q 131 351 125 338 l 183 468 q 208 453 190 461 q 233 443 226 446 q 339 389 300 415 m 236 -85 q 283 -61 268 -85 q 270 -24 283 -36 q 236 -11 257 -11 q 202 -24 215 -11 q 189 -61 189 -36 q 236 -85 204 -85 z "},"ڊ":{"ha":540,"x_min":69,"x_max":457,"o":"m 339 389 q 424 303 390 354 q 457 185 457 251 q 386 38 457 90 q 315 2 357 15 q 222 -11 272 -11 q 69 118 69 -11 q 71 162 69 139 q 72 193 72 185 q 138 147 94 160 q 244 133 182 133 q 331 137 283 133 q 406 146 378 140 q 338 227 375 192 q 267 281 300 263 q 215 301 233 300 l 200 276 l 165 293 q 137 319 149 301 q 131 351 125 338 l 183 468 q 208 453 190 461 q 233 443 226 446 q 339 389 300 415 m 243 -76 q 292 -111 267 -89 q 331 -153 318 -133 q 301 -192 318 -171 q 258 -237 285 -212 q 169 -162 201 -181 q 243 -76 228 -96 z "},"ڋ":{"ha":540,"x_min":69,"x_max":457,"o":"m 339 389 q 424 303 390 354 q 457 185 457 251 q 386 38 457 90 q 315 2 357 15 q 222 -11 272 -11 q 69 118 69 -11 q 71 162 69 139 q 72 193 72 185 q 138 147 94 160 q 244 133 182 133 q 331 137 283 133 q 406 146 378 140 q 338 227 375 192 q 267 281 300 263 q 215 301 233 300 l 200 276 l 165 293 q 137 319 149 301 q 131 351 125 338 l 183 468 q 208 453 190 461 q 233 443 226 446 q 339 389 300 415 m 69 581 q 90 579 75 581 q 119 578 104 578 l 150 579 q 171 607 164 600 q 165 700 171 663 q 144 775 158 746 l 138 782 l 138 788 q 140 807 138 800 q 147 821 142 814 q 163 828 153 828 q 192 789 172 804 q 182 771 182 783 q 183 760 182 764 q 196 697 193 715 q 197 675 197 690 q 190 629 197 653 q 257 661 228 661 q 300 643 282 661 q 318 611 310 631 q 314 598 317 608 q 304 578 311 588 q 274 549 293 561 q 199 531 249 531 l 100 529 l 69 581 m 211 574 q 300 599 271 574 q 294 608 297 601 q 286 615 290 614 q 253 626 275 626 q 190 603 219 626 q 172 585 181 594 q 163 574 164 576 l 211 574 m 243 -76 q 292 -111 267 -89 q 331 -153 318 -133 q 301 -192 318 -171 q 258 -237 285 -212 q 169 -162 201 -181 q 243 -76 228 -96 z "},"ڌ":{"ha":540,"x_min":49,"x_max":457,"o":"m 339 389 q 424 303 390 354 q 457 185 457 251 q 386 38 457 90 q 315 2 357 15 q 222 -11 272 -11 q 69 118 69 -11 q 71 162 69 139 q 72 193 72 185 q 138 147 94 160 q 244 133 182 133 q 331 137 283 133 q 406 146 378 140 q 338 227 375 192 q 267 281 300 263 q 215 301 233 300 l 200 276 l 165 293 q 137 319 149 301 q 131 351 125 338 l 183 468 q 208 453 190 461 q 233 443 226 446 q 339 389 300 415 m 49 604 q 122 690 107 669 q 199 629 165 668 q 250 690 236 669 q 301 656 275 678 q 339 614 326 633 q 265 529 306 568 q 194 593 229 567 q 138 529 171 563 q 49 604 81 586 z "},"ڍ":{"ha":540,"x_min":69,"x_max":457,"o":"m 339 389 q 424 303 390 354 q 457 185 457 251 q 386 38 457 90 q 315 2 357 15 q 222 -11 272 -11 q 69 118 69 -11 q 71 162 69 139 q 72 193 72 185 q 138 147 94 160 q 244 133 182 133 q 331 137 283 133 q 406 146 378 140 q 338 227 375 192 q 267 281 300 263 q 215 301 233 300 l 200 276 l 165 293 q 137 319 149 301 q 131 351 125 338 l 183 468 q 208 453 190 461 q 233 443 226 446 q 339 389 300 415 m 106 -162 q 179 -76 164 -97 q 256 -137 222 -99 q 307 -76 293 -97 q 358 -111 332 -89 q 396 -153 383 -133 q 322 -237 363 -199 q 251 -174 286 -200 q 194 -237 228 -204 q 106 -162 138 -181 z "},"ڎ":{"ha":540,"x_min":47,"x_max":457,"o":"m 339 389 q 424 303 390 354 q 457 185 457 251 q 386 38 457 90 q 315 2 357 15 q 222 -11 272 -11 q 69 118 69 -11 q 71 162 69 139 q 72 193 72 185 q 138 147 94 160 q 244 133 182 133 q 331 137 283 133 q 406 146 378 140 q 338 227 375 192 q 267 281 300 263 q 215 301 233 300 l 200 276 l 165 293 q 137 319 149 301 q 131 351 125 338 l 183 468 q 208 453 190 461 q 233 443 226 446 q 339 389 300 415 m 108 754 q 182 840 150 799 q 232 806 206 828 q 271 764 258 783 q 197 679 238 718 q 108 754 150 728 m 47 604 q 121 690 93 657 q 163 663 140 679 q 199 629 185 646 l 250 690 q 301 656 275 678 q 339 614 326 633 q 265 529 306 568 q 194 593 224 574 q 136 529 176 569 q 47 604 85 583 z "},"ڏ":{"ha":540,"x_min":49,"x_max":457,"o":"m 339 389 q 424 303 390 354 q 457 185 457 251 q 386 38 457 90 q 315 2 357 15 q 222 -11 272 -11 q 69 118 69 -11 q 71 162 69 139 q 72 193 72 185 q 138 147 94 160 q 244 133 182 133 q 331 137 283 133 q 406 146 378 140 q 338 227 375 192 q 267 281 300 263 q 215 301 233 300 l 200 276 l 165 293 q 137 319 149 301 q 131 351 125 338 l 183 468 q 208 453 190 461 q 233 443 226 446 q 339 389 300 415 m 49 753 q 122 839 107 818 q 199 778 165 817 q 250 839 236 818 q 301 804 275 826 q 339 763 326 782 q 265 678 306 717 q 194 742 229 715 q 138 678 171 711 q 49 753 81 735 m 122 604 q 196 692 182 671 q 247 656 221 678 q 285 614 272 633 q 211 529 256 574 q 122 604 160 583 z "},"ڐ":{"ha":540,"x_min":47,"x_max":457,"o":"m 339 389 q 424 303 390 354 q 457 185 457 251 q 386 38 457 90 q 315 2 357 15 q 222 -11 272 -11 q 69 118 69 -11 q 71 162 69 139 q 72 193 72 185 q 138 147 94 160 q 244 133 182 133 q 331 137 283 133 q 406 146 378 140 q 338 227 375 192 q 267 281 300 263 q 215 301 233 300 l 200 276 l 165 293 q 137 319 149 301 q 131 351 125 338 l 183 468 q 208 453 190 461 q 233 443 226 446 q 339 389 300 415 m 47 604 q 121 690 106 669 q 47 749 76 732 q 121 835 93 801 q 163 807 140 824 q 199 774 185 790 l 250 835 q 301 800 275 822 q 339 758 326 778 q 269 678 308 715 q 309 648 290 665 q 339 614 328 631 q 265 529 306 568 q 194 593 224 574 q 136 529 176 569 q 47 604 85 583 m 140 678 q 199 629 172 657 l 250 690 q 194 738 214 724 q 140 678 185 725 z "},"ڑ":{"ha":443,"x_min":-56,"x_max":332,"o":"m 297 -121 q 211 -229 264 -193 q 126 -265 175 -254 q 47 -275 76 -275 l 47 -354 l 43 -354 q 10 -303 33 -325 q -56 -283 -14 -281 l -56 -137 q 60 -128 6 -136 q 154 -97 115 -121 q 222 -36 196 -74 q 254 64 247 1 q 193 119 228 94 q 149 151 158 144 q 129 188 129 167 q 132 203 129 197 l 176 315 q 292 198 253 274 q 332 32 332 122 q 297 -121 332 -50 m 47 435 q 67 433 53 435 q 97 432 82 432 l 128 433 q 149 461 142 454 q 143 554 149 517 q 122 629 136 600 l 115 636 l 115 642 q 118 661 115 654 q 125 675 119 668 q 140 682 131 682 q 169 643 150 658 q 160 625 160 638 q 161 614 160 618 q 174 551 171 569 q 175 529 175 544 q 168 483 175 507 q 235 515 206 515 q 278 497 260 515 q 296 465 288 485 q 292 452 294 463 q 282 432 289 442 q 251 403 271 415 q 176 385 226 385 l 78 383 l 47 435 m 189 428 q 278 453 249 428 q 272 462 275 456 q 264 469 268 468 q 231 481 253 481 q 168 457 197 481 q 150 440 158 449 q 140 428 142 431 l 189 428 z "},"ڒ":{"ha":415,"x_min":-56,"x_max":332,"o":"m 297 -121 q 211 -229 264 -193 q 126 -265 175 -254 q 47 -275 76 -275 l 47 -354 l 43 -354 q 10 -303 33 -325 q -56 -283 -14 -281 l -56 -137 q 60 -128 6 -136 q 154 -97 115 -121 q 222 -36 196 -74 q 254 64 247 1 q 193 119 228 94 q 149 151 158 144 q 129 188 129 167 q 132 203 129 197 l 176 315 q 292 198 253 274 q 332 32 332 122 q 297 -121 332 -50 m 269 557 q 218 481 244 536 q 183 383 193 432 l 158 383 q 129 472 153 421 q 72 557 101 532 l 93 607 q 142 543 118 588 q 171 456 163 503 q 180 497 171 471 q 204 547 189 522 q 249 607 228 590 l 269 557 z "},"ړ":{"ha":415,"x_min":-56,"x_max":332,"o":"m 332 32 q 297 -121 332 -50 q 211 -229 264 -193 q 183 -244 197 -239 q 203 -296 203 -261 l 203 -340 q 182 -388 203 -371 q 136 -406 161 -406 q 90 -388 111 -406 q 69 -340 69 -371 l 69 -296 q 72 -274 69 -287 q 47 -275 61 -275 l 47 -354 l 43 -354 q 10 -303 33 -325 q -56 -283 -14 -281 l -56 -137 q 60 -128 6 -136 q 154 -97 115 -121 q 222 -36 196 -74 q 254 64 247 1 q 193 119 228 94 q 149 151 158 144 q 129 188 129 167 q 132 203 129 197 l 176 315 q 292 198 253 274 q 332 32 332 122 m 136 -344 q 183 -321 168 -344 q 170 -283 183 -296 q 136 -271 157 -271 q 102 -283 115 -271 q 89 -321 89 -296 q 136 -344 104 -344 z "},"ڔ":{"ha":415,"x_min":-56,"x_max":332,"o":"m 297 -121 q 211 -229 264 -193 q 126 -265 175 -254 q 47 -275 76 -275 l 47 -354 l 43 -354 q 10 -303 33 -325 q -56 -283 -14 -281 l -56 -137 q 60 -128 6 -136 q 154 -97 115 -121 q 222 -36 196 -74 q 254 64 247 1 q 193 119 228 94 q 149 151 158 144 q 129 188 129 167 q 132 203 129 197 l 176 315 q 292 198 253 274 q 332 32 332 122 q 297 -121 332 -50 m 68 -390 q 117 -425 92 -403 q 156 -467 143 -447 q 126 -506 143 -485 q 83 -551 110 -526 q -6 -476 26 -494 q 68 -390 53 -410 z "},"ڕ":{"ha":415,"x_min":-107,"x_max":332,"o":"m 297 -121 q 211 -229 264 -193 q 126 -265 175 -254 q 47 -275 76 -275 l 47 -354 l 43 -354 q 10 -303 33 -325 q -56 -283 -14 -281 l -56 -137 q 60 -128 6 -136 q 154 -97 115 -121 q 222 -36 196 -74 q 254 64 247 1 q 193 119 228 94 q 149 151 158 144 q 129 188 129 167 q 132 203 129 197 l 176 315 q 292 198 253 274 q 332 32 332 122 q 297 -121 332 -50 m 90 -468 q 39 -544 65 -489 q 4 -642 14 -593 l -21 -642 q -50 -553 -26 -604 q -107 -468 -78 -493 l -86 -418 q -37 -482 -61 -437 q -8 -569 -17 -522 q 1 -528 -8 -554 q 25 -478 10 -503 q 69 -418 49 -435 l 90 -468 z "},"ږ":{"ha":499,"x_min":0,"x_max":388,"o":"m 353 -121 q 267 -229 319 -193 q 181 -265 231 -254 q 103 -275 132 -275 l 103 -354 l 99 -354 q 65 -303 89 -325 q 0 -283 42 -281 l 0 -137 q 116 -128 61 -136 q 210 -97 171 -121 q 277 -36 251 -74 q 310 64 303 1 q 249 119 283 94 q 204 151 214 144 q 185 188 185 167 q 188 203 185 197 l 232 315 q 348 198 308 274 q 388 32 388 122 q 353 -121 388 -50 m 124 -390 q 173 -425 147 -403 q 211 -467 199 -447 q 182 -506 199 -485 q 139 -551 165 -526 q 50 -476 82 -494 q 124 -390 108 -410 m 86 114 q 135 79 110 101 q 174 38 161 57 q 144 -1 161 19 q 101 -47 128 -22 q 13 28 44 10 q 86 114 71 93 z "},"ڗ":{"ha":443,"x_min":-56,"x_max":332,"o":"m 297 -121 q 211 -229 264 -193 q 126 -265 175 -254 q 47 -275 76 -275 l 47 -354 l 43 -354 q 10 -303 33 -325 q -56 -283 -14 -281 l -56 -137 q 60 -128 6 -136 q 154 -97 115 -121 q 222 -36 196 -74 q 254 64 247 1 q 193 119 228 94 q 149 151 158 144 q 129 188 129 167 q 132 203 129 197 l 176 315 q 292 198 253 274 q 332 32 332 122 q 297 -121 332 -50 m 26 458 q 100 544 85 524 q 176 483 143 522 q 228 544 214 524 q 278 510 253 532 q 317 468 304 488 q 243 383 283 422 q 172 447 207 421 q 115 383 149 417 q 26 458 58 440 z "},"ژ":{"ha":415,"x_min":-56,"x_max":332,"o":"m 297 -121 q 211 -229 264 -193 q 126 -265 175 -254 q 47 -275 76 -275 l 47 -354 l 43 -354 q 10 -303 33 -325 q -56 -283 -14 -281 l -56 -137 q 60 -128 6 -136 q 154 -97 115 -121 q 222 -36 196 -74 q 254 64 247 1 q 193 119 228 94 q 149 151 158 144 q 129 188 129 167 q 132 203 129 197 l 176 315 q 292 198 253 274 q 332 32 332 122 q 297 -121 332 -50 m 86 608 q 160 694 128 653 q 210 660 183 682 q 249 618 236 638 q 175 533 215 572 q 86 608 128 582 m 25 458 q 99 544 71 511 q 140 517 118 533 q 176 483 163 500 l 228 544 q 278 510 253 532 q 317 468 304 488 q 243 383 283 422 q 172 447 201 428 q 114 383 154 424 q 25 458 63 438 z "},"ڙ":{"ha":499,"x_min":0,"x_max":388,"o":"m 353 -121 q 267 -229 319 -193 q 181 -265 231 -254 q 103 -275 132 -275 l 103 -354 l 99 -354 q 65 -303 89 -325 q 0 -283 42 -281 l 0 -137 q 116 -128 61 -136 q 210 -97 171 -121 q 277 -36 251 -74 q 310 64 303 1 q 249 119 283 94 q 204 151 214 144 q 185 188 185 167 q 188 203 185 197 l 232 315 q 348 198 308 274 q 388 32 388 122 q 353 -121 388 -50 m 81 458 q 154 544 139 524 q 81 603 110 586 q 154 689 126 656 q 196 661 174 678 q 232 628 218 644 l 283 689 q 334 654 308 676 q 372 613 360 632 q 303 532 342 569 q 342 502 324 519 q 372 468 361 485 q 299 383 339 422 q 228 447 257 428 q 169 383 210 424 q 81 458 118 438 m 174 532 q 232 483 206 511 l 283 544 q 228 592 247 578 q 174 532 218 579 z "},"ښ":{"ha":1203,"x_min":97,"x_max":1119,"o":"m 1078 371 q 1108 313 1097 353 q 1119 221 1119 272 q 1110 142 1119 169 q 1063 56 1096 103 q 983 8 1029 8 q 903 43 947 8 q 877 69 886 56 q 858 104 868 83 q 837 60 854 82 q 794 26 819 39 q 696 7 758 10 q 699 -50 699 -29 q 674 -169 699 -117 q 610 -256 649 -221 q 383 -331 525 -331 q 175 -260 251 -331 q 115 -167 132 -219 q 97 -67 97 -114 q 119 79 97 13 q 176 182 140 140 l 199 160 q 166 101 181 138 q 151 19 151 65 q 228 -119 151 -67 q 396 -168 299 -168 q 518 -149 457 -168 q 609 -99 581 -129 q 650 -35 638 -68 q 624 -4 646 -29 q 578 57 603 21 q 544 118 551 96 q 536 179 536 140 q 542 225 536 207 l 564 247 q 585 205 574 221 q 614 178 596 189 q 701 156 650 156 q 799 185 760 156 q 835 231 825 206 q 849 299 844 256 l 869 288 q 885 222 871 254 q 928 175 899 190 q 1004 160 957 160 q 1020 160 1014 160 q 1028 161 1026 161 q 1004 275 1029 208 l 1078 371 m 839 538 q 888 503 863 525 q 926 461 914 481 q 897 422 914 443 q 854 376 881 401 q 765 451 797 433 q 839 538 824 518 m 839 -75 q 888 -110 863 -87 q 926 -151 914 -132 q 897 -190 914 -169 q 854 -236 881 -211 q 765 -161 797 -179 q 839 -75 824 -96 z "},"ڛ":{"ha":1203,"x_min":97,"x_max":1119,"o":"m 1078 371 q 1108 313 1097 353 q 1119 221 1119 272 q 1110 142 1119 169 q 1063 56 1096 103 q 983 8 1029 8 q 903 43 947 8 q 877 69 886 56 q 858 104 868 83 q 837 60 854 82 q 794 26 819 39 q 696 7 758 10 q 699 -50 699 -29 q 674 -169 699 -117 q 610 -256 649 -221 q 383 -331 525 -331 q 175 -260 251 -331 q 115 -167 132 -219 q 97 -67 97 -114 q 119 79 97 13 q 176 182 140 140 l 199 160 q 166 101 181 138 q 151 19 151 65 q 228 -119 151 -67 q 396 -168 299 -168 q 518 -149 457 -168 q 609 -99 581 -129 q 650 -35 638 -68 q 624 -4 646 -29 q 578 57 603 21 q 544 118 551 96 q 536 179 536 140 q 542 225 536 207 l 564 247 q 585 205 574 221 q 614 178 596 189 q 701 156 650 156 q 799 185 760 156 q 835 231 825 206 q 849 299 844 256 l 869 288 q 885 222 871 254 q 928 175 899 190 q 1004 160 957 160 q 1020 160 1014 160 q 1028 161 1026 161 q 1004 275 1029 208 l 1078 371 m 743 -140 q 817 -54 801 -74 q 893 -115 860 -76 q 944 -54 931 -75 q 995 -89 969 -67 q 1033 -131 1021 -111 q 960 -215 1000 -176 q 889 -151 924 -178 q 832 -215 865 -182 q 743 -140 775 -158 m 817 -289 q 890 -201 876 -222 q 941 -237 915 -215 q 979 -279 967 -260 q 906 -364 950 -319 q 817 -289 854 -310 z "},"ڜ":{"ha":1203,"x_min":97,"x_max":1119,"o":"m 1078 371 q 1108 313 1097 353 q 1119 221 1119 272 q 1110 142 1119 169 q 1063 56 1096 103 q 983 8 1029 8 q 903 43 947 8 q 877 69 886 56 q 858 104 868 83 q 837 60 854 82 q 794 26 819 39 q 696 7 758 10 q 699 -50 699 -29 q 674 -169 699 -117 q 610 -256 649 -221 q 383 -331 525 -331 q 175 -260 251 -331 q 115 -167 132 -219 q 97 -67 97 -114 q 119 79 97 13 q 176 182 140 140 l 199 160 q 166 101 181 138 q 151 19 151 65 q 228 -119 151 -67 q 396 -168 299 -168 q 518 -149 457 -168 q 609 -99 581 -129 q 650 -35 638 -68 q 624 -4 646 -29 q 578 57 603 21 q 544 118 551 96 q 536 179 536 140 q 542 225 536 207 l 564 247 q 585 205 574 221 q 614 178 596 189 q 701 156 650 156 q 799 185 760 156 q 835 231 825 206 q 849 299 844 256 l 869 288 q 885 222 871 254 q 928 175 899 190 q 1004 160 957 160 q 1020 160 1014 160 q 1028 161 1026 161 q 1004 275 1029 208 l 1078 371 m 761 601 q 835 688 803 646 q 885 653 858 675 q 924 611 911 631 q 850 526 890 565 q 761 601 803 575 m 700 451 q 774 538 746 504 q 815 510 793 526 q 851 476 838 493 l 903 538 q 953 503 928 525 q 992 461 979 481 q 918 376 958 415 q 847 440 876 421 q 789 376 829 417 q 700 451 738 431 m 743 -140 q 817 -54 801 -74 q 893 -115 860 -76 q 944 -54 931 -75 q 995 -89 969 -67 q 1033 -131 1021 -111 q 960 -215 1000 -176 q 889 -151 924 -178 q 832 -215 865 -182 q 743 -140 775 -158 m 817 -289 q 890 -201 876 -222 q 941 -237 915 -215 q 979 -279 967 -260 q 906 -364 950 -319 q 817 -289 854 -310 z "},"ڝ":{"ha":1310,"x_min":97,"x_max":1226,"o":"m 1038 393 q 1155 356 1111 393 q 1226 244 1199 319 q 1187 145 1208 182 q 1125 74 1165 108 q 1011 10 1078 33 q 858 -14 944 -14 q 696 0 790 -14 q 699 -44 699 -31 q 610 -257 697 -179 q 506 -312 565 -294 q 383 -331 447 -331 q 175 -260 251 -331 q 115 -167 132 -219 q 97 -71 97 -115 q 119 79 97 10 q 176 182 140 142 l 199 160 q 165 98 178 132 q 151 13 151 64 q 167 -52 151 -15 q 226 -119 183 -89 q 397 -167 290 -167 q 518 -150 465 -167 q 611 -96 581 -129 q 650 -35 642 -62 l 583 47 q 536 179 536 107 q 538 210 536 197 q 542 225 540 222 l 564 247 q 615 172 581 196 q 654 156 632 161 q 714 147 676 151 q 821 276 749 206 q 928 361 872 329 q 1038 393 985 393 m 896 142 q 1124 204 1074 142 q 1113 223 1124 207 q 1085 251 1103 239 q 1004 276 1050 276 q 835 207 915 276 q 794 166 810 185 q 775 142 778 147 l 896 142 m 754 -162 q 828 -76 813 -97 q 904 -137 871 -99 q 956 -76 942 -97 q 1006 -111 981 -89 q 1044 -153 1032 -133 q 971 -237 1011 -199 q 900 -174 935 -200 q 843 -237 876 -204 q 754 -162 786 -181 z "},"ڞ":{"ha":1310,"x_min":97,"x_max":1226,"o":"m 1038 393 q 1155 356 1111 393 q 1226 244 1199 319 q 1187 145 1208 182 q 1125 74 1165 108 q 1011 10 1078 33 q 858 -14 944 -14 q 696 0 790 -14 q 699 -44 699 -31 q 610 -257 697 -179 q 506 -312 565 -294 q 383 -331 447 -331 q 175 -260 251 -331 q 115 -167 132 -219 q 97 -71 97 -115 q 119 79 97 10 q 176 182 140 142 l 199 160 q 165 98 178 132 q 151 13 151 64 q 167 -52 151 -15 q 226 -119 183 -89 q 397 -167 290 -167 q 518 -150 465 -167 q 611 -96 581 -129 q 650 -35 642 -62 l 583 47 q 536 179 536 107 q 538 210 536 197 q 542 225 540 222 l 564 247 q 615 172 581 196 q 654 156 632 161 q 714 147 676 151 q 821 276 749 206 q 928 361 872 329 q 1038 393 985 393 m 896 142 q 1124 204 1074 142 q 1113 223 1124 207 q 1085 251 1103 239 q 1004 276 1050 276 q 835 207 915 276 q 794 166 810 185 q 775 142 778 147 l 896 142 m 928 683 q 1001 769 969 728 q 1051 735 1025 757 q 1090 693 1078 713 q 1017 608 1057 647 q 928 683 969 657 m 867 533 q 940 619 913 586 q 982 592 960 608 q 1018 558 1004 575 l 1069 619 q 1120 585 1094 607 q 1158 543 1146 563 q 1085 458 1125 497 q 1014 522 1043 503 q 956 458 996 499 q 867 533 904 513 z "},"ڟ":{"ha":935,"x_min":97,"x_max":851,"o":"m 668 396 q 796 343 747 396 q 851 247 824 311 q 841 211 850 242 q 810 144 832 181 q 721 56 775 89 q 493 3 638 4 l 319 -1 l 290 -51 l 261 -21 l 271 -3 l 189 -4 l 97 154 q 165 150 114 153 q 249 147 215 147 q 306 149 278 147 q 343 150 333 150 q 406 235 368 190 q 386 544 406 404 q 328 788 365 693 l 306 807 q 306 838 306 814 q 313 882 307 861 q 335 925 319 906 q 379 949 351 944 q 471 828 413 871 q 447 802 454 815 q 439 771 439 789 q 442 742 439 753 q 474 540 465 619 q 481 422 481 488 q 468 300 481 344 q 668 396 571 396 m 521 147 q 657 161 604 147 q 749 210 710 175 q 713 254 732 238 q 628 282 681 282 q 474 222 546 282 q 425 175 446 200 q 404 147 404 150 l 521 147 m 585 685 q 658 771 626 729 q 708 736 682 758 q 747 694 735 714 q 674 610 714 649 q 585 685 626 658 m 524 535 q 597 621 569 588 q 639 593 617 610 q 675 560 661 576 l 726 621 q 777 586 751 608 q 815 544 803 564 q 742 460 782 499 q 671 524 700 504 q 613 460 653 500 q 524 535 561 514 z "},"ڠ":{"ha":715,"x_min":97,"x_max":674,"o":"m 674 -374 l 553 -514 l 485 -514 q 207 -437 297 -514 q 126 -333 156 -394 q 97 -192 97 -271 q 146 -6 97 -89 q 247 114 183 60 q 175 210 197 158 q 156 308 156 253 q 199 417 171 371 q 356 508 258 508 q 467 474 417 508 q 508 435 490 456 q 544 382 526 414 l 504 331 q 432 372 463 360 q 363 385 401 385 q 278 365 311 385 q 228 326 246 346 q 300 249 258 282 q 338 222 314 238 q 379 197 361 207 l 625 257 l 561 114 q 501 98 550 111 q 401 65 453 85 q 308 19 349 44 q 181 -175 181 -58 q 209 -257 181 -218 q 292 -324 238 -296 q 554 -374 389 -374 l 674 -374 m 265 807 q 339 893 307 851 q 389 858 363 881 q 428 817 415 836 q 354 732 394 771 q 265 807 307 781 m 204 657 q 278 743 250 710 q 319 715 297 732 q 356 682 342 699 l 407 743 q 458 708 432 731 q 496 667 483 686 q 422 582 463 621 q 351 646 381 626 q 293 582 333 622 q 204 657 242 636 z "}}}
